<?xml version="1.0" encoding="iso-8859-1"?>
<!-- Generator: Adobe Illustrator 18.0.0, SVG Export Plug-In . SVG Version: 6.00 Build 0)  -->
<!DOCTYPE svg PUBLIC "-//W3C//DTD SVG 1.1//EN" "http://www.w3.org/Graphics/SVG/1.1/DTD/svg11.dtd">
<svg version="1.1" id="Layer_1" xmlns:amcharts="http://amcharts.com/ammap"
	 xmlns="http://www.w3.org/2000/svg" xmlns:xlink="http://www.w3.org/1999/xlink" x="0px" y="0px" width="974.143px"
	 height="699.92px" viewBox="0 0 974.143 699.92" style="enable-background:new 0 0 974.143 699.92;" xml:space="preserve">
<defs>
	
	
		<amcharts:ammap  rightLongitude="190.122401" topLatitude="83.646363" projection="mercator" leftLongitude="-169.522279" bottomLatitude="-55.621433">
		</amcharts:ammap>
</defs>
<g>
	<polygon points="497.016,548.72 498.804,546.831 497.888,545.188 495.548,545.087 491.1,546.293 489.095,548.241 489.211,551.918 
		492.554,553.241 496.071,551.191 	"/>
	<polygon points="184.566,475.437 187.313,473.315 183.607,474.797 180.671,474.725 180.09,475.931 179.799,475.96 177.866,476.135 
		178.811,478.126 180.802,478.765 184.988,476.76 184.857,476.367 	"/>
	<polygon points="555.677,664.343 551.651,665.971 549.893,668.471 549.529,669.866 550.024,670.36 553.512,669.459 
		556.157,666.407 556.084,665.157 	"/>
	<polygon points="525.155,627.774 526.521,625.012 531.347,624.533 526.783,620.783 527.495,618.922 524.501,615.085 
		526.812,611.422 526.812,611.422 529.806,610.042 529.094,608.08 531.826,607.876 532.117,606.277 528.716,605.056 
		526.027,603.923 525.838,602.149 523.745,600.086 522.103,600.1 520.053,603.283 516.914,606.117 516.899,606.103 513.426,608.327 
		511.812,609.853 511.82,609.862 509.821,612.426 506.9,615.637 502.016,616.51 500.272,617.28 499.458,620.71 496.304,621.466 
		493.324,620.071 493.324,620.071 490.897,622.759 490.417,626.509 490.984,630.056 492.946,633.515 494.981,634.634 
		495.606,640.07 498.963,640.535 501.638,640.317 503.12,642.279 507.96,640.826 509.995,642.119 512.902,642.352 514.516,644.837 
		519.152,643.006 519.748,644.445 521.318,638.239 521.405,634.213 525.329,631.436 	"/>
	<polygon points="477.874,645.637 478.891,640.593 476.914,638.035 473.92,637.672 472.496,635.405 471.798,632.585 470.33,632.483 
		467.99,631.073 469.618,627.774 466.522,625.928 464.168,622.542 460.738,619.765 456.595,619.707 452.729,615.347 
		450.476,613.661 447.322,610.914 443.718,606.946 437.41,606.161 434.779,606.001 435.142,608.065 439.386,612.542 
		442.453,614.809 444.59,618.283 448.267,620.826 449.764,623.98 450.956,627.454 454.531,630.826 457.627,636.495 459.648,639.532 
		462.729,642.832 464.473,645.288 469.706,648.602 473.136,652.003 477.641,651.916 	"/>
	<polygon points="569.587,631.335 567.901,629.198 568.526,626.742 570.634,627.134 570.852,623.603 570.459,621.931 
		568.046,621.582 567.756,619.373 566.404,620.841 565.59,624.082 566.796,629.256 568.439,631.814 	"/>
	<polygon points="560.634,642.802 563.453,643.544 564.98,642.192 563.962,640.869 559.834,641.058 	"/>
	<polygon points="506.827,659.023 505.344,656.378 497.786,654.416 496.885,656.102 489.08,655.695 488.499,654.212 
		486.813,653.907 483.528,652.323 478.586,652.076 475.796,655.971 479.531,656.276 480.243,658.035 487.67,659.721 
		489.371,659.212 492.365,659.619 497.089,661.174 500.897,661.916 505.126,662.221 508.818,662.105 513.295,663.747 
		517.946,662.192 512.946,659.764 	"/>
	<polygon points="540.925,662.846 538.367,661.625 535.126,662.482 535.14,663.98 540.562,664.488 546.681,663.325 547.276,661.058 
		543.643,662.541 	"/>
	<polygon points="535.024,666.247 531.23,667.061 536.637,669.939 538.352,669.866 538.585,668.747 537.16,667.497 	"/>
	<polygon points="530.867,661.828 528.353,662.163 526.884,661.073 525.794,662.541 523.556,662.57 522.161,664.924 
		524.355,664.953 527.175,664.401 531.884,663.573 	"/>
	<polygon points="621.01,638.719 616.636,637.948 613.612,636.495 610.124,635.085 606.505,635.085 601.825,637.527 
		598.424,641.829 594.209,639.402 593.075,632.846 592.421,631.364 585.88,629.707 583.788,631.03 578.293,632.003 580.023,634.009 
		583.657,634.75 585.27,637.163 591.229,637.178 591.578,638.253 588.671,638.181 584.282,639.634 587.392,641.625 587.407,643.384 
		588.337,644.866 589.907,644.503 591.113,642.526 597.232,646.277 600.589,646.611 608.496,650.055 610.458,653.471 
		611.519,657.904 608.947,659.038 607.217,662.366 612.377,662.235 613.38,661.073 617.522,661.901 621.156,665.259 
		621.083,651.945 	"/>
	<polygon points="593.685,651.64 592.959,653.108 593.351,656.175 595.444,653.398 595.473,651.451 594.543,650.259 	"/>
	<polygon points="539.253,633.907 535.605,630.303 536.186,627.236 539.748,626.655 546.535,626.451 550.46,627.236 
		553.526,626.451 556.797,622.44 556.084,621.553 552.058,624.489 547.378,624.663 542.233,624.096 539.05,622.905 535.591,625.913 
		534.733,627.585 532.684,633.689 532.102,636.901 530.416,639.561 531.681,642.337 533.396,642.366 534.021,646.276 
		532.858,650.012 534.602,651.204 537.19,650.608 537.03,644.794 536.681,640.07 539.399,638.835 539.094,642.788 542.03,645.172 
		541.506,646.741 542.524,647.861 546.521,646.291 544.544,649.619 546.143,651.044 548.323,649.852 548.352,647.178 
		544.689,642.497 545.431,641.102 541.579,635.913 545.169,634.344 546.942,631.974 548.715,632.556 549.05,630.695 
		541.448,632.076 	"/>
	<polygon points="573.642,639.532 568.613,639.707 567.639,641.93 570.459,642.076 572.756,641.814 576.157,642.148 579.601,643.82 
		578.119,640.724 	"/>
	<polygon points="618.176,444.682 616.461,448.068 617.159,454.028 614.601,460.394 612.29,462.4 606.316,467.501 603.598,465.074 
		599.339,474.042 594.979,473.024 586.869,474.507 583.874,477.893 579.776,480.437 577.639,483.504 573.787,485.001 
		575.444,488.314 578.017,489.71 577.014,494.012 578.991,495.858 581.622,493.867 584.34,485.713 580.212,482.137 584.979,482.05 
		589.805,479.739 596.897,478.649 597.057,482.312 599.79,484.187 605.604,478.605 612.769,478.3 617.973,475.975 620.095,472.458 
		619.383,469.943 620.923,465.902 620.85,460.626 624.615,455.394 624.731,451.121 622.507,443.693 	"/>
	<polygon points="589.557,485.044 591.65,483.911 593.322,485.466 595.618,482.515 595.095,480.844 592.087,479.797 
		590.415,481.861 588.104,481.295 585.851,484.201 585.822,486.498 588.482,487.879 	"/>
	<polygon points="635.748,429.42 632.885,428.214 629.731,426.325 624.949,420.336 623.743,424.828 622.551,432.647 
		618.191,432.953 616.17,437.226 616.737,442.662 621.272,442.574 623.496,436.586 629.905,440.336 633.481,434.871 
		639.527,433.345 638.626,427.022 	"/>
	<polygon points="375.841,590.507 373.036,588.225 371.19,594.882 371.902,600.74 373.85,603.981 377.396,603.051 379.097,601.888 
		379.707,597.644 377.745,593.385 	"/>
	<polygon points="276.614,517.675 276.105,517.282 274.913,518.823 275.683,520.363 276.221,519.55 	"/>
	<polygon points="531.492,587.469 534.181,585.202 533.454,581.845 531.318,585.943 528.876,588.792 525.925,591.321 
		523.919,594.185 529.341,590.304 	"/>
	<polygon points="538.846,576.336 540.591,578.4 541.666,574.81 540.256,573.313 536.768,573.167 	"/>
	<polygon points="535.111,565.072 535.721,566.903 537.727,569.301 538.25,567.79 539.471,568.763 538.192,569.824 537.989,571.554 
		540.024,572.47 543.73,571.859 546.332,574.359 547.378,572.833 548.89,575.013 552.058,577.048 552.48,575.13 551.143,574.127 
		551.535,571.859 546.448,569.548 544.646,570.042 542.48,569.578 541.564,566.249 542.204,562.862 544.602,561.467 545.678,557.95 
		544.282,554.912 544.951,553.139 544.588,552.049 543.338,553.153 540.823,551.932 538.352,551.961 537.03,555.828 
		536.608,562.441 534.966,561.046 	"/>
	<polygon points="547.436,583.879 546.986,586.438 545.968,587.586 545.125,588.69 547.64,591.524 548.919,590.304 550.198,587.702 
		551.666,586.35 552.058,582.426 549.035,586.408 549.689,583.632 	"/>
	<polygon points="543.12,579.694 543.745,581.656 543.454,583.763 543.599,585.682 546.186,584.446 548.076,582.702 
		548.149,580.972 545.561,580.972 	"/>
	<polygon points="549.675,592.862 547.451,594.403 544.878,595.551 543.279,598.996 543.948,600.188 546.971,597.906 
		548.89,598.065 550.169,596.365 552.756,598.298 551.506,600.231 552.654,603.181 557.451,605.551 558.613,603.646 
		557.305,600.652 559.209,598.588 560.692,602.745 562.087,599.01 561.84,596.713 561.419,593.996 561.157,592.484 560.808,590.42 
		557.509,588.472 557.756,591.641 554.878,591.757 554.209,593.589 551.114,594.708 	"/>
	<polygon points="557.858,578.574 556.753,577.019 552.843,576.932 555.329,580.101 555.387,581.67 552.989,581.336 
		553.628,583.836 554.849,584.054 555.023,586.946 556.957,586.031 555.954,583.487 555.866,582.106 559.006,583.196 	"/>
	<polygon points="474.618,97.611 475.825,89.297 465.49,77.175 462.424,75.751 459.081,78.222 451.639,105.256 	"/>
	<polygon points="426.683,73.963 433.442,82.292 444.793,88.396 453.688,85.78 454.691,65.984 445.302,42.67 437.381,29.56 
		428.558,35.534 417.977,52.728 423.544,57.481 	"/>
	<polygon points="655.966,161.113 660.675,154.935 650.443,150.749 642.841,148.307 641.868,153.525 649.44,159.732 	"/>
	<polygon points="620.255,174.964 616.388,180.661 617.101,181.417 625.458,182.987 631.635,182.885 631.141,179.15 
		625.356,173.612 	"/>
	<polygon points="619.441,158.656 634.455,159.092 637.667,147.261 622.943,138.438 612.188,137.697 606.81,140.866 604.615,152.13 
		612.682,162.319 	"/>
	<polygon points="779.96,214.338 785.28,213.582 789.48,210.588 789.829,208.858 783.928,205.21 780.469,205.181 779.946,205.719 
		774.757,211.01 775.484,214.978 	"/>
	<polygon points="260.262,196.359 256.091,199.208 256.687,206.228 264.07,209.643 265.146,215.196 278.46,216.794 280.872,215.719 
		273.082,205.385 272.253,194.455 278.634,181.17 284.709,166.897 297.369,152.116 309.811,144.354 324.243,136.011 
		326.976,130.619 324.142,123.599 316.206,125.924 309.229,132.45 295.668,135.677 282.209,146.447 273.096,154.95 274.201,162.028 
		264.448,175.153 268.198,176.926 260.117,188.946 	"/>
	<polygon points="623.423,380.919 625.807,387.328 625.632,395.831 624.688,400.54 625.153,407.139 624.702,412.968 
		625.458,417.909 628.132,413.36 631.228,416.906 631.345,412.778 627.377,406.63 629.877,397.75 635.908,399.799 631.81,388.637 
		630.124,382.082 630.225,375.541 628.816,369 627.754,364.422 625.938,365.396 627.551,368.608 623.786,371.762 	"/>
	<path d="M813.056,258.77l-11.061-1.555l0.945,7.486l-2.747-2.529l0.349-6.453l-10.683-10.668l-9.985-8.517l-5.698-5l-11.715-5.582
		l-8.474,0.712l-13.008-3.328l-1.817,5.261l3.299,7.369l-5.043,3.604l-7.093-10.16l-7.718,1.293l-7.689-2.282l-7.224,0.305
		l-5.45,2.384l-5.015-3.329l0.494-8.75l-3.387-5.087l-8.11-2.049l-16.453,2.354l-10.668-9.666l-3.474-7.776l-36.802-8.808
		l-5.378,5.916l2.936,12.209l-6.671-1.802l-3.009,3.59l-7.892-3.953l-6.948,3.459l-6.541-5.814l-3.939,13.343l-6.41-5.073
		l-5.116-10.145l2.413-5.581l-1.875-8.779l-6.584-7.471l-6.511,0.073l-8.648-2.529l-0.233,10.857l-17.035-2.079l-0.988-6.657
		l-13.081-2.398l-6.511,2.282l-1.788,3.721l-2.078-9.288l-3.663,2.776l-6.032-3.706l-5.058-2.079l3.067-4.477l10.712-8.604
		l4.506-4.709l1.017-8.503l-3.27-6.323l-9.186-8.488l-11.918-0.233l-3.721,4.273l-1.105-8.764l-9.229-2.791l5.552-4.549
		l-6.991-6.119l-9.622,7.718l-3.895,7.747l-1.119,7.616l-7.485-0.291l-9.142,9.069l-3.328-3.793l-10.697,1.57l-1.366,4.578
		l-10.756,2.195l-7.921,8.009l-4.68,0.436l-4.724,10.203l3.314,7.82l-8.837,1.918l-9.796-0.64l-7.093,2.936l0.407,14.942
		l3.619,11.075l-7.529-7.529l-8.459,0.712l-6.817,5.204l1.86,9.259l-4.36-2.311l1.613-12.602l-2.137-7.543l-2.035,0.32l0.945,9.622
		l-7.296,8.779l5.291,10.218l-3.256,12.035l0.974,6.424l4.462,0.93l-1.904,7.384l2.369,6.192l-3.532,5.073l-1.076,5.16l-4.477,2.645
		l-1.628,3.648l-4.666-1.483l7.979-14.825l1.744-7.282l-4.491-6.875l0.93-16.09l-1.308-8.634l-2.529-4.041l3.866-10.581
		l-0.843-7.529l-10.785-3.648l-3.023,2.732l-2.674,12.238l-7.514,11.613l0.116,3.982l2.18,9.433l-1.337,5.567l4.913,1.134
		l0.116,2.442l4.142,5.974l-2.733,5.77l-14.767-12.791l-5.639-3.619l-12.035-3.546l-2.122,3.866l4.273,6.657l-4.637,7.398
		l-4.651-6.715l-6.046,4.636l-7.631,0.305l-2.922,3.75l-5.058-1.134l4.012-6.744l-3.067-0.552l-14.229,9.506l-8.517,5.116
		l-1.003,6.7l-6.293,2.238l-3.212-3.546l-0.029-5.872l5.16-1.323l-2.325-6.075l-11.395-3.546l2.994,6.817l-1.991,6.41l3.401,6.221
		l-2.369,6.991l-3.808-3.532l-3.765-0.582l-9.491,9.796l2.747,7.093l-3.43,2.311l-9.854-5.959l-2.587,3.648l2.456,4.07l-0.523,4.52
		l-3.183-2.413l-5.247-2.863l-0.262-9.811l-0.262-4.578l-6.642-7.413l2.994-1.308l18.197,7.718l6.657-2.689l4.52-5.363l-0.276-6.977
		l-3.125-5.102l-15.392-12.572l-11.162-2.733l-6.7-7.064l-4.2,4.084l-6.933,4.636l-3.285,1.046l-0.596,7.849l6.235,7.253
		l-3.765,7.965l4.738,11.57l-2.747,8.372l3.663,7.049l-1.672,6.032l6.032,6.192l-1.526,4.506l-3.779,5.014l-8.721,10.77l4.273,3.895
		l-4.636,4.462l0.61,1.395l-2.907,4.549l1.206,7.209l-1.744,2.413l1.962,1.729l0.349,3.619l1.308,4.346l4.288,1.831l0.581,1.802
		l2.137-0.857L172.21,356l0.392,3.357l-0.872,1.904l2.558,4.578l1.657,1.264l-0.247,1.25l2.747,1.206l1.177,1.817l-1.584,1.482
		l-3.285-0.232l-0.785,0.639l0.959,2.239l1.003,4.273l1.526,0.262l1.032-1.511l1.235,0.334l4.229-0.64l2.602,3.75l-1.017,1.323
		l0.334,2.021l3.256,0.32l1.453,2.805l-0.087,1.265l5.174,2.238l3.125-1.003l2.514,2.965l2.384-0.073l6.003,2.049l0.044,1.831
		l-1.657,3.241l0.901,3.386l-0.64,2.035l-3.939,0.451l-2.108,1.686l-0.131,2.66l3.663-0.959l0.102,1.308l-6.003,2.427l2.282,2.326
		l-3.387,4.869l-2.965,0.93l3.517,3.372l4.651,2.151l5.189,4.753l0.494-0.654l0.012,0.003l-0.492,0.665l1.497,1.701l2.253,0.64
		l2.355,2.049l1.017,3.735l-0.61,2.326l-4.811,2.82l-3.503-0.48l-4.753,0.829l-5.843-2.078l-7.137-3.837l-6.744,0.116l-4.753,1.541
		l-4.898,3.517l-7.761-0.712l-1.715,4.084l-6.279,0.218l-4.52,5.058l2.587,2.5l-1.977,4.041l2.979,2.849l2.413,5.058l4.448-0.087
		l3.939,2.689l2.82-0.596l0.945-2.093l4.389,0.175l3.299,2.703l6.192-0.567l2.805-2.907l3.416,1.163l2.485-0.436l-1.541,1.89
		l1.497,2.282l0,0l-0.988,2.049l0.378,3.794l-0.087,0.174L191,482.03l-1.453,3.968l-0.116,0.043l-0.581,1.221l-0.828,3.634
		l-1.076,2.224l0.276,0.276l-1.177,1.57l2.674,8.067l0.131,0.668l-0.494,1.86l-0.189,1.613l-0.625,2.529l2.02-0.014l2.078,3.139
		l2.485,3.663l1.584,3.372l1.192,1.003l1.134,2.325l-0.218,1.003l1.337,2.558l2.209,0.916l1.904,1.729l2.34,4.884l-0.174,2.602
		l0.465,3.023l2.703,4.142l1.817,0.698l2.82,2.965l1.148,3.503l2.18,3.576l2.093,1.511l0.32,1.7l1.235,1.279l0.523,1.802
		l0.174,1.832l-0.494,0.814l0.422,1.918l-0.814,0.204l1.177,1.729l0.799,3.082l0.654,1.235l-0.116,2.282l1.061,2.427l2.82,0.204
		l1.308-0.552l2.02,0.087l0.625-1.061l1.076-0.305l0.887-1.09l1.032-0.233l3.416-0.218l2.602-0.8l2.384-1.744l1.221,0.247
		l1.788-0.218l3.648-2.951l6.511-1.962l4.055-1.773l0.102-1.439l0.785-1.86l2.95-1.148l-0.001-0.002l1.876-0.231l2.732-1.424
		l2.253,0.392l1.977-1.177l-0.015-1.715l1.599-1.075l2.529,0.029l0.93-0.901l0.393-2.078l2.543-1.599l1.875,0.014l0.378-0.523
		l-0.494-2.878l0.654-2.18l0.843-1.032l1.846,0.232l1.526-2.965l1.701-1.439l0.654-1.221l1.483-2.602l0.015-0.974l-1.453-0.552
		l-1.105-1.454l-1.846-2.529l-2.413-0.799l-2.994-0.582l-2.282-1.613l-1.814-3.009h0.011l-0.552-3.547l-0.77-1.526l-2.573,2.762
		l-3.052,2.878l-2.791,3.009l-2.456-0.131l-3.372-0.116l-3.183,0.698l-0.16-1.221l-0.727,0.218l-0.77-1.7l0.887-2.631l-0.073-2.631
		l-1.235-1.41l-1.105,0.494l-1.104,2.354l0.276,3.256l-0.61-1.09l-0.552-1.468l-1.163-1.264l-0.523-1.511l0.407-1.497l-0.247-1.875
		l-2.776-1.904l-0.698-1.613l-2.006-1.032l-1.599-3.968l-1.308-3.503l0.363-1.061l-0.843-2.049l2.413,0.218l1.526-1.832l2.587,1.555
		l2.195-0.756l3.009,6.206l2.718,4.375l3.924,1.308l4.113,3.503l4.985,1.497l4.099-2.195l3.14-0.814l1.948,0.814l1.744,5.538
		l4.593,0.596l4.448,1.032l7.66,1.352l5.741-0.639l6.628-0.073l7.5-0.843l3.154,3.401l1.221,3.198l2.979,1.119l4.782,3.75
		l1.206,1.715l-1.962,1.584l5.32,5.276l2.878,0.523l5.93-2.602l0.785,4.07l-0.015,5.203l1.221,5.48l1.686,8.198l3.706,5.77
		l0.712,2.616l1.003,5.203l2.166,3.982l1.424,1.948l1.57,4.157l1.889,5.756l3.852,3.823l1.642-1.177l1.366-2.791l3.721-1.163
		l-1.235-1.352l1.846-3.125l2.107-0.204l0.029-7.02l1.715-3.939l-0.218-3.445l-0.843-5.45l1.221-3.198l1.904-0.233l3.677-1.497
		l2.035-1.046v-1.948l4.055-2.776l3.067-2.689l4.564-5.029l5.857-2.907l2.18-2.558l-0.233-3.27l5.029-0.901l2.762,0.058l0.596-1.599
		l1.57,0.392l1.148,0.48l0.596-0.8l1.744,0.887l1.279-2.427l-0.378-1.817l3.75,0.175l1.7,2.558l0.785,2.107l0.233,2.209l1.163,2.267
		l2.892,3.517l2.384,0.552l-0.494,1.555l3.198,4.927l0.843,3.982l-1.41,5.247l2.529,0.974l2.282,0.378l4.637-2.994l2.689-2.122
		l1.759,3.488l0.741,5.32l1.323,5l1.657,2.151l-0.334,4.52l1.366,2.442l-1.25,3.168l0.392,3.052l-1.192,3.939l-0.451,2.558
		l0.77,2.267l0.669-2.398l1.977,1.933l2.166,2.311l0.698,2.02l1.613,1.555v0.014l0.901,1.73l-0.451,2.965l1.468,2.209l0.567,3.357
		l2.355,2.718l0.48,2.064l4.825,3.212l3.852,2.994l2.892-0.276l0.073-1.366l-1.599-3.575l-1.439-1.119l-0.305-2.398l-0.392-1.395
		l0.436-1.846l-0.233-2.732l-1.715-2.718l-2.413-2.456l-0.93-0.378v-0.015l-2.108-2.107l-2.471-0.48l-2.267-2.34l-0.741-3.532
		l-1.657-3.735l-2.645-0.131l-0.276-2.98l1.323-3.634l2.195-6.032l0.32-4.564l3.59-0.029l-0.596,3.27l3.488-0.087l3.663,1.904
		l2.049,4.273l1.657,2.151l3.416,0.596l3.023,2.34l-1.148,2.776l1.482,2.631l5.087-3.808l3.314-3.43l4.68-2.66l3.387-2.718
		l0.552-7.296l-1.86-7.732l-2.485-3.386l-3.692-2.602l-3.808-5.552l-3.125-4.491l0.901-2.98l3.401-4.084l5.436-3.721l-0.029-0.015
		l1.933-0.712l5.465,1.395l-0.959,1.686l1.076,3.139l2.253-0.247l1.395-4.579l4.317-0.668l5.698-2.18l2.311-2.18l1.41,1.424
		l2.485-1.948l4.593-0.509l5.668-3.706l5.61-4.099l3.779-5.349l3.299-5.944l2.979-4.957l2.282-0.407l1.032-3.663l0.625-3.794
		l-2.398-1.453l-0.974-2.514l2.558-1.294l0.073-3.532l-2.762-3.677l-2.485-4.433l-1.599-4.811l-4.389-2.704l2.093-3.474l3.968-2.514
		l1.904-2.718l5.77-1.41l-0.669-2.674l-2.631-0.131l-3.619-1.991l-4.564,3.648l-3.227-1.482l-0.131-2.296l-3.328-0.843l-2.151-3.503
		l2.078-2.442l3.997-0.247l2.514-3.401l4.608-3.692l3.546-1.89l2.151,2.805l-3.227,3.561l0.858,2.049l-2.166,2.427l4.389-1.424
		l2.994-2.456l5.698-1.541l-0.014,0.029l1.919,1.41l2.369,0.581l0.276,0.858l-1.032,2.82l0.363,0.945l-0.959,0.61l-1.119,2.282
		l1.09,0.829l1.061,0.465l0.145,0.959l1.192-0.422l0.494-0.959l1.977,0.974l2.791,4.36l-3.023,0.857l1.802,5.233l-0.756,3.735
		l0.451,2.689l3.677-0.422l3.256-2.049l3.692-0.959l1.526-2.732l-0.029-5.785l-1.003-3.3l-3.517-6.075l-2.311-2.297l-1.628-0.843
		l0.48-0.581l0.131-2.282l1.759-1.425l2.718-0.872l1.541-1.57l0.727-0.945l2.108-1.177l-0.16-3.881l1.221-1.861l1.773-1.846
		l1.541,0.334l-0.567-0.974l0.014-0.029l0.567,0.959l0.64-1.832l5.465-4.055l2.558,2.704l2.573-0.073l5.436-3.27l2.631-3.314
		l5.494-6.584l5.538-6.773l1.366-4.099l6.148-8.735l1.831-9.956l0.349-7.66l3.183-6.555l-0.131-5.698l-5.886-7.543l-4.477-0.451
		l-2.602,3.459l-3.953-1.526l-2.006-4.36l-6.424-0.887l15.625-17.122l13.197-15.014l13.401-2.354l12.456,1.366l5.043-3.924
		l6.337,1.221l-0.291,5.741l6.293-0.814l9.099-2.064l-3.372-4.913l10.203-13.895l10.523-2.907l3.343,10.378l10.334-9.244
		l2.442-7.151l4.956-0.741l-3.27,12.165l-7.325,6.642l-7.02,8.328l-7.282,9.854l-6.337,1.715l-0.218,3.546l-3.445,4.462
		l-1.962,10.102l2.267,15.479l1.744,9.724l1.512,4.477l5.872-6.075l1.221-6.773l6.075-1.657l1.41-7.849l7.122-3.59l-1.701-3.052
		l1.744-6.032l3.779-0.276l0.552-10.843l-4.636-1.701l-0.145-3.11l4.884-7.587l1.308-5.276l5.45,1.104l3.924-3.474l1.86,3.023
		l10.625-6.424l5.828,5.668l1.497-3.706l5.916-5.087l6.235-5.959l3.619-1.003l11.395-6.555l7.602,1.918l1.047-2.325l-0.48-3.677
		l-1.875-2.427l-2.427-7.558l-3.677-5l5.276,0.698l5.232-4.2l0.029-0.058l2.311-4.113l-1.831-4.636l4.884-2.384l-0.887,3.706
		l2.209,3.445l4.636-1.264l4.142,1.599l0.916,4.2l5.421,2.791l3.111,3.285l3.823,0.276l1.628-1.962l0.102-9.39l6.686-1.017
		l4.041-4.317L813.056,258.77z M273.824,526.827l0.697,0.586l-0.004,0.002l-0.694-0.583L273.824,526.827z M233.378,455.707
		l-0.586-1.069l0.015-0.814l-1.802,0.015l-1.206-1.41l-0.843,0.131l0.006,0.019l-0.006-0.004h-0.015l-1.599-1.541l-3.023-1.323
		l0.392-2.602l-0.698-1.889l5.655-0.841l0.842,1.408l1.555,0.93l-0.814,1.337l2.166,1.832l-1.148,1.686l1.73,1.439l1.831,0.857
		l0.102,3.648L233.378,455.707z M265.887,447.705l-3.837-1.323l-0.901,4.491l2.703,0.32l-1.046,3.604l3.183,1.773l-0.596,5.421
		l0.756,3.619l-0.392,1.192l-6.366,1.337l-5.785-0.872l-2.834-2.558l-3.866-1.061l-1.294-3.793v-0.029l-0.116-2.573l1.497-1.221
		l0.698-1.831l0.712-4.099l3.358-0.422l-1.25-1.439l-1.904-0.247l-2.078-3.808l-2.136-2.863l0,0l-4.448-6.482l0.407-3.764
		l-3.706-5.378l4.055-5.945l3.953-0.959l1.842-3.438l0.019,0.008l3.794-1.25l4.724-2.602l3.459,1.453l4.084-0.291l0.727,3.648
		l-0.741,5.683l-3.561-0.858l-3.459,0.93l-0.16,4.186l-3.968-0.538l0.145,1.86l2.238,1.425l1.846,5.043l4.724,1.889l0.77,1.918
		l-1.003,2.282l0.233,1.337l1.279,3.503l0.407-3.968l3.285-1.395l1.163,3.111l2.979,3.241L265.887,447.705z"/>
	<polygon points="235.917,55.01 240.335,60.649 245.103,56.74 245.67,52.786 249.332,50.94 254.797,47.699 256.367,43.891 
		250.321,38.295 246.484,42.51 244.144,48.499 243.315,41.74 237.123,42.045 229.173,46.609 238.242,47.365 	"/>
	<polygon points="562.523,662.308 559.674,662.453 556.172,663.369 555.692,664.328 556.099,665.142 556.172,666.392 559.587,665.2 
		563.831,663.413 565.328,662.308 563.788,661.799 	"/>
	<polygon points="540.227,533.357 542.684,526.279 543.396,523.575 541.535,522.253 538.265,525.625 535.867,529.985 
		536.332,533.256 538.483,536.962 	"/>
</g>
</svg>
