<?xml version="1.0" encoding="iso-8859-1"?>
<!-- Generator: Adobe Illustrator 18.0.0, SVG Export Plug-In . SVG Version: 6.00 Build 0)  -->
<!DOCTYPE svg PUBLIC "-//W3C//DTD SVG 1.1//EN" "http://www.w3.org/Graphics/SVG/1.1/DTD/svg11.dtd">
<svg version="1.1" id="Layer_1" xmlns:amcharts="http://amcharts.com/ammap"
	 xmlns="http://www.w3.org/2000/svg" xmlns:xlink="http://www.w3.org/1999/xlink" x="0px" y="0px" width="974.143px"
	 height="699.92px" viewBox="0 0 974.143 699.92" style="enable-background:new 0 0 974.143 699.92;" xml:space="preserve">
<defs>
	
	
		<amcharts:ammap  rightLongitude="190.122401" topLatitude="83.646363" projection="mercator" leftLongitude="-169.522279" bottomLatitude="-55.621433">
		</amcharts:ammap>
</defs>
<g>
	<polygon points="763.71,476.024 761.664,470.418 759.468,466.827 756.561,463.18 753.802,466.977 753.654,472.078 749.056,477.982 
		745.526,476.944 746.653,480.592 744.161,484.864 737.308,490.144 732.592,495.039 728.913,495.159 725.858,496.701 721.2,498.481 
		717.047,498.778 715.949,504.265 713.042,509.101 713.695,517.111 715.267,522.598 717.195,526.752 716.454,532.328 
		712.478,539.034 712.449,541.969 708.622,543.513 707.139,549.92 707.91,556.357 710.817,563.536 711.381,571.576 713.665,576.382 
		720.28,579.644 725.057,581.988 732.325,578.102 739.088,575.936 742.856,565.405 746.03,552.916 751.192,536.096 755.286,523.963 
		758.549,513.817 759.082,506.461 761.367,504.472 762.108,500.794 760.536,494.446 762.079,491.894 764.927,496.939 
		766.38,494.387 767.211,490.294 765.075,486.289 	"/>
	<path d="M773.044,265.193l-0.208-2.344l-3.145,0.03l-3.946,2.907l-4.42,0.831l-3.827,1.246l-2.64,0.178l-4.746,0.297l-2.967,1.543
		l-4.124,0.564l-7.327,2.61l-9.048,0.979l-7.861,2.166l-4.124-0.03l-3.738-3.53l-1.632-3.471l-2.7-1.572l0,0l-3.589-2.284
		l4.746-2.017l0.267-3.53l-1.958-2.611l-2.521,2.077l-3.56-0.742l-2.848-2.759l-3.411-4.954l-3.678-2.729l-2.166-2.967l-7.238-3.411
		l-5.696-0.089l-2.017-1.81l-4.865,2.017l-5.043-3.886l-2.611,6.378l-9.671-1.78l-0.89-3.411l3.589-12.608l0.801-5.725l2.611-2.67
		l6.141-1.424l4.212-4.954l-4.569-3.204l-3.145-2.166l-3.055-10.442l-1.216-9.078l1.81-1.602l-2.67-8.722l-1.454-1.839l-9.7-8.039
		l-0.267-5.844l1.661-1.572l-7.476-10.086l-2.67-5.162l-3.055-4.984l-6.289-14.477l-5.102-9.434l-3.441-9.997l0.831-0.86
		l5.933,13.557l3.768,4.212l2.759,3.026l1.958-1.661l2.254-4.865l1.78-7.12l2.344-3.827l-5.458-16.464l-4.094,2.433l-6.497-0.564
		l-6.645-2.284l-1.928,3.174l-2.284-4.806l-5.903-1.216l-7.357,0.801l-3.412,2.759l-6.408,3.056l-3.856-1.483l-8.247-2.877
		l-8.01-2.551l-11.065,0.148l-2.017-3.204l-8.277-1.157l-2.64-1.661l-3.085-0.03l-2.848-4.39l-11.243-2.017l-5.725,1.335
		l-5.992,4.598l-2.611,4.746l1.928,7.446l-3.975,4.42l-4.064,2.492l-8.87-4.776l-11.718-4.034l-7.476-1.899l-3.886-8.662
		l-11.035-4.361l-6.942-1.661l-3.5,0.86l-9.76-3.412l-3.174-1.542l-2.106-4.717l-4.302-0.178l-1.572-5.429l5.488-5.073l1.098-8.781
		l-2.877-2.521l0.03-4.747l4.183-5.073l-0.593-1.988l-7.06,3.827l0.237-5.251l-5.814-1.246l-9.078,4.183l-5.666,0.623l-3.382-2.403
		l-8.9,0.089l-7.832,4.064l-4.183-1.542l-13.765,0.86l-14.091,1.839l-8.01,3.115l-5.251,4.242l-9.018,1.78l-7.98,5.547l-3.619-0.119
		l-8.603-2.225l-7.921,0.712l-5.013-4.331l-6.111-0.059l-2.64,6.26l-5.547,10.413l-6.17,4.123l-8.336,4.539l-5.34,6.645
		l-1.127,5.162l-3.174,8.366l2.076,11.955l-6.942,7.95l-4.153,2.521l-6.556,6.437l-7.743,1.038l-3.856,3.323l-0.326,0.267
		l-0.148,0.119l-5.28,9.493l-5.518,3.382l-3.026,5.666l-0.178,4.895l-2.225,5.31l-2.789,1.454l-4.628,5.755l-2.848,6.378
		l0.534,3.026l-2.729,4.657l-3.204,2.433l-0.385,4.123l-0.356,3.767l4.39,3.797l2.136,4.212l-0.831,4.361l1.009,4.361l0.919,8.633
		l-1.038,8.158l-2.314,4.272l0.712,4.628l-1.958,4.42l-4.034,6.022l-3.678,1.632l4.153,3.026l3.441,6.645l-1.068,3.768l1.365,6.497
		l0.534,1.81l2.521,1.78l-0.03,1.276l1.899,2.403l3.5,0.534l4.45,3.53l2.433,1.394l1.216,1.839l0.919,3.708l2.077,1.691l2.136,1.068
		l3.233,3.293l3.649,4.954l1.038,6.17l1.454,3.055l4.331,4.45l5.963,3.352l2.254,0.623l5.607,5.369l7.09,4.539l7.535,6.319
		l8.573,3.946l2.195-0.059l1.602,0.208l8.247-3.026l5.755-2.403l9.878-1.454l5.31-0.089l5.814,1.632l3.768-0.089l7.416,2.344
		l7.505-2.403l4.628-2.848l13.053-4.865l6.675-1.75l6.882-0.979h7.327l6.259-0.089l5.903,5.458l2.729,5.992l4.45,5.191l6.645,0.178
		l3.204-1.839l3.174,0.415l8.633-2.967l-0.119,2.284l2.136,1.187l1.691,3.708l3.797,1.424l3.263,5.458l-1.216,6.526l-2.877,9.285
		l1.572,1.246l-1.691,6.141l-2.017,5.992l-1.81,2.67l-0.267,2.729l5.043,8.544l5.518,6.823l8.543,8.366l6.823,8.751v0.03l2.225,6.23
		l1.157,2.581l0.03,0.089l-0.801,1.602l4.153,5.251l1.691,5.577l2.521,8.069l-2.551,3.323l-0.445,1.75l2.047,5.013l2.225,5.102
		l2.492,2.996l0.445,4.776l-0.86,6.259l-2.67,3.768l-4.776,5.547l-1.988,3.471l-2.699,7.683l-0.445,3.678l-2.877,7.861l-1.157,7.565
		l0.771,5.429l0.009-0.004l0.496,6.56l6.793,8.514l1.81,5.488l4.361,10.59l4.302,7.327l3.233,3.678l1.068,4.865l0.178,10.769
		l2.789,14.002l2.047,6.675l1.839,8.989l3.263,6.823l6.17,7.09l0.018-0.022l5.945,12.273v0.03l4.183,8.128l5.458,9.048l0.208,7.505
		l-2.67,1.78l2.699,6.615l-0.059,5.814l1.097,2.699l0.386-1.394l3.59,4.479l2.818,0.178l3.53,3.589l3.797-0.237l5.132-3.797
		l7.09-1.602l8.573-3.945l3.441,0.534l5.043-1.216l9.018,1.928l4.124-1.899l5.043,1.483l1.068-2.759l4.242-0.504l8.692-3.856
		l6.289-4.479l5.874-5.874l9.404-10.027l4.717-6.912l2.314-4.924l3.53-4.835l1.632-1.365l5.637-4.806l2.166-4.242l0.979-7.772
		l2.076-6.764h-0.02l0.05,0.001l0.712-4.865l-2.106-0.623l-0.712-3.856l3.649-3.411l9.997-4.924l6.853-3.085l3.471-3.234
		l1.246-3.767l-1.958-1.543l1.335-4.183l0.237-8.781l-1.454,0.445l-0.119-2.67l-1.632-5.221l-3.946-6.675l0.712-6.289l3.412-2.047
		l5.814-6.2l3.204-1.602l9.404-9.345l9.374-4.183l7.594-3.293l5.31-5.34l3.234-5.963l2.462-6.141l-1.453-4.153l-0.327-13.29
		l-1.038-7.416l0.356-8.395l-1.365-3.768l-3.026-1.839l-3.441-8.276l-2.907-5.221l0.534-4.005l-0.475-2.522l2.284-5.043
		l-0.237-2.166l-5.34-3.026l-0.475-4.717l3.827-10.235l3.352-2.729l1.632-5.518l2.67-3.323l1.157-5.844l3.145-0.593l2.047-3.441
		l5.814-3.322l1.869-1.958l1.928-4.331l9.107-10.027l7.743-6.289l12.459-8.188l8.306-6.704l9.79-11.302l7.09-9.285l7.149-12.163
		l5.132-10.65l4.005-9.345l2.344-9.048l1.78-3.026l-0.03-4.45L773.044,265.193z"/>
</g>
</svg>
