<?xml version="1.0" encoding="utf-8"?>
<!-- Generator: Adobe Illustrator 18.0.0, SVG Export Plug-In . SVG Version: 6.00 Build 0)  -->
<!DOCTYPE svg PUBLIC "-//W3C//DTD SVG 1.1//EN" "http://www.w3.org/Graphics/SVG/1.1/DTD/svg11.dtd">
<svg version="1.1" id="Layer_1" xmlns:amcharts="http://amcharts.com/ammap"
	 xmlns="http://www.w3.org/2000/svg" xmlns:xlink="http://www.w3.org/1999/xlink" x="0px" y="0px" width="974.1px" height="699.9px"
	 viewBox="2373.8 3909.6 974.1 699.9" enable-background="new 2373.8 3909.6 974.1 699.9" xml:space="preserve">
<defs>
	
	
		<amcharts:ammap  rightLongitude="190.122401" topLatitude="83.646363" projection="mercator" leftLongitude="-169.522279" bottomLatitude="-55.621433">
		</amcharts:ammap>
</defs>
<g>
	<polygon points="2959.9,4202.9 2959.5,4194.3 2955.7,4182.2 2945,4170 2938.6,4164.3 2928.9,4155.2 2926.6,4139.5 2923.2,4141.7 
		2917.7,4135.4 2912.2,4138.6 2906.9,4122.7 2899.1,4113.6 2900.9,4110.1 2891.7,4103.8 2882,4096.9 2867.2,4089.4 2862.7,4079.7 
		2864.1,4072.2 2860.4,4060 2856.9,4058.3 2854.8,4051.3 2851.9,4039.2 2853.3,4032.9 2846.7,4027.4 2842.2,4021.4 2833.4,4026.7 
		2828.4,4015.7 2828.8,4010.8 2827.8,4002.9 2822.8,3995.8 2822.2,3990 2818.8,3988.3 2817.9,3979.6 2814,3972.8 2809,3978 
		2808.6,3982 2806,3989.6 2802.7,3996.9 2804.9,4001.6 2802.2,4004.4 2800.4,4014.9 2802,4023 2801,4027.1 2802.9,4033.8 
		2798.8,4045.1 2797.1,4052.8 2794.3,4059.1 2791.6,4066.8 2782.6,4071.7 2769.5,4066.8 2767.4,4062.4 2760.2,4058.8 2756.4,4058.8 
		2746.4,4050.4 2739.4,4045.5 2728.9,4041 2718,4033.2 2717,4029.2 2721.9,4022.3 2725.9,4015.3 2724.3,4009.7 2729,4009.2 
		2734.1,4003.6 2737.8,3996.1 2731.5,3989.2 2728.3,3991.9 2723.2,3990.7 2715.2,3994.7 2706.7,3990.4 2702.8,3991.8 2691.2,3988.3 
		2684,3982.5 2674.9,3979.1 2667.6,3981.1 2677.6,3985.7 2677.9,3992.8 2666.4,3995.4 2659.4,3993.8 2651.1,3998.7 2645.1,4006.7 
		2647.3,4010.1 2641.1,4013.8 2634.6,4025 2637.5,4032.7 2628.8,4031.4 2620.2,4031.3 2612.6,4023 2602.5,4016.5 2595.9,4018.4 
		2589.9,4020.4 2589.6,4023.9 2583.6,4022.3 2583.4,4026.2 2576.6,4028.6 2573.2,4034.1 2565.8,4041.1 2564.1,4051.8 2558.1,4048.8 
		2553.8,4055.7 2558.6,4062.4 2552.8,4065.2 2547.1,4053 2537.5,4065 2537.2,4072.8 2536.5,4078.5 2528.5,4085.8 2525,4093.5 
		2517.6,4099.9 2503.2,4104.1 2495.6,4103.8 2492,4105.1 2490,4108.3 2481.7,4109.9 2470.9,4115.3 2467.1,4113.5 2460.9,4114.6 
		2450.5,4120 2443.8,4126.2 2432.7,4131.1 2426.9,4141.2 2425.9,4130 2420.2,4140.6 2421.7,4149.3 2419.8,4156.7 2417.1,4160.3 
		2415.6,4169 2418.8,4173.5 2420.1,4178.2 2426.9,4190.1 2427.1,4197.8 2423.1,4192 2416.3,4187.6 2420.9,4201.6 2414.9,4195 
		2416.8,4201.5 2424.6,4213.6 2426.3,4225.7 2432.4,4231.8 2432.7,4236.4 2438.2,4246.5 2437.6,4255.5 2439.9,4264.5 2447.1,4280.5 
		2448.6,4290.1 2446.9,4301.3 2447.4,4307.1 2445.1,4310.9 2438.3,4313.1 2438,4322.5 2445.4,4325.6 2459.9,4336.2 2469,4336.2 
		2479,4336.9 2485.6,4331.6 2492.5,4326.9 2496.5,4327.6 2504.7,4318.9 2514,4318.1 2523.9,4316.3 2536,4319.3 2544.6,4317.8 
		2556.2,4317.4 2561.3,4310.8 2563.9,4302.3 2575.8,4298.5 2590.3,4290.2 2603.3,4291.3 2618.9,4285.9 2636.6,4280.2 2661.1,4278.6 
		2674.3,4286.5 2683.9,4286.9 2701.5,4296.7 2698.9,4300.4 2706.1,4306.5 2714.7,4318.4 2714.2,4327.1 2724.9,4333.9 2730.1,4320.8 
		2738.7,4315.2 2749.8,4301.3 2750.9,4313.3 2745.6,4321.4 2743.6,4330.9 2736.4,4340.1 2748.6,4337 2755.3,4325.5 2758.6,4337.8 
		2754.1,4345.9 2767.3,4347.9 2774,4354.8 2777.2,4363.3 2779.7,4376.3 2788.6,4386.9 2801.8,4392 2809.6,4393.2 2817.4,4395.9 
		2829.2,4400.7 2841.2,4388.1 2848.6,4384.8 2846.5,4393.8 2854.9,4396.9 2866.2,4404.6 2874.5,4397.1 2880.8,4390.4 2893.4,4383.3 
		2908.7,4382.6 2916.6,4376.7 2915.9,4371.3 2917.7,4359.6 2921.1,4347 2926.4,4338.6 2930.4,4324.3 2935,4316.2 2940,4303.5 
		2950.2,4295.6 2956.2,4280.9 2958.9,4269.5 2958.6,4260.4 2962.3,4246.4 2964.7,4239.2 2965.5,4225.5 2958.9,4212.4 	"/>
	<polygon points="2885,4436 2874.3,4439.5 2866.8,4442 2853.6,4435.7 2844.6,4434.1 2844.3,4442.4 2852.2,4458.2 2854.1,4470.4 
		2862.5,4486.5 2870.9,4487 2873.7,4488.1 2883.2,4475 2888,4480.2 2889.4,4465.2 2894.1,4458.9 2893.2,4437.3 	"/>
	<polygon points="3299.8,4379.2 3292,4385.8 3282.8,4384.5 3271.8,4378.8 3269.7,4365.9 3263.5,4361.3 3263.2,4372.9 3253.3,4355 
		3249.5,4340.1 3238.8,4335.8 3231.4,4326.6 3226.3,4327.9 3232,4339.6 3242.8,4354.5 3249.3,4361.5 3248.9,4364.4 3254.5,4375.9 
		3255.1,4387 3252.8,4400.4 3242.9,4406.5 3242.5,4412.9 3257.3,4419.9 3261.8,4429.7 3253.9,4444.6 3259.6,4447.2 3261.9,4452 
		3272.5,4444.7 3279.3,4432.4 3284.5,4422.8 3286.5,4419.4 3285.2,4411.8 3288.9,4406.5 3299.3,4406.8 3303.5,4396.6 3306.8,4381.2 
			"/>
	<polygon points="3234.7,4445.5 3231.6,4438 3228.6,4430.4 3219,4438.7 3216.9,4448.8 3211.7,4453.5 3205.6,4467.2 3197.5,4476.8 
		3185.7,4486.6 3175.9,4493.8 3167.1,4497.4 3149.9,4516.3 3142.5,4530.7 3144.8,4537.9 3159.7,4539.3 3168.6,4545.9 3181.1,4546.3 
		3188,4540.6 3198.7,4531.8 3206.5,4512.2 3210.1,4499.6 3221.9,4492.5 3232.4,4492.3 3227.4,4483.2 3234.3,4475.7 3243.3,4462 
		3248.4,4453.5 3248.4,4445.8 3244.4,4438.2 	"/>
</g>
</svg>
