<?xml version="1.0" encoding="iso-8859-1"?>
<!-- Generator: Adobe Illustrator 18.0.0, SVG Export Plug-In . SVG Version: 6.00 Build 0)  -->
<!DOCTYPE svg PUBLIC "-//W3C//DTD SVG 1.1//EN" "http://www.w3.org/Graphics/SVG/1.1/DTD/svg11.dtd">
<svg version="1.1" id="Layer_1" xmlns:amcharts="http://amcharts.com/ammap"
	 xmlns="http://www.w3.org/2000/svg" xmlns:xlink="http://www.w3.org/1999/xlink" x="0px" y="0px" width="974.143px"
	 height="699.92px" viewBox="1299.629 2309.76 974.143 699.92" style="enable-background:new 1299.629 2309.76 974.143 699.92;"
	 xml:space="preserve">
<defs>
	
	
		<amcharts:ammap  rightLongitude="190.122401" topLatitude="83.646363" projection="mercator" leftLongitude="-169.522279" bottomLatitude="-55.621433">
		</amcharts:ammap>
</defs>
<g>
	<polygon points="1796.642,2858.48 1798.43,2856.591 1797.514,2854.948 1795.174,2854.847 1790.726,2856.053 1788.721,2858.001 
		1788.837,2861.678 1792.18,2863.001 1795.697,2860.951 	"/>
	<polygon points="1484.192,2785.197 1486.939,2783.075 1483.233,2784.557 1480.297,2784.485 1479.716,2785.691 1479.425,2785.72 
		1477.492,2785.895 1478.437,2787.886 1480.428,2788.525 1484.614,2786.52 1484.483,2786.127 	"/>
	<polygon points="1855.303,2974.103 1851.277,2975.731 1849.519,2978.231 1849.155,2979.626 1849.65,2980.12 1853.138,2979.219 
		1855.783,2976.167 1855.71,2974.917 	"/>
	<polygon points="1824.781,2937.534 1826.147,2934.772 1830.973,2934.293 1826.409,2930.543 1827.121,2928.682 1824.127,2924.845 
		1826.438,2921.182 1826.438,2921.182 1829.432,2919.802 1828.72,2917.84 1831.452,2917.636 1831.743,2916.037 1828.342,2914.816 
		1825.653,2913.683 1825.464,2911.909 1823.371,2909.846 1821.729,2909.86 1819.679,2913.043 1816.54,2915.877 1816.525,2915.863 
		1813.052,2918.087 1811.438,2919.613 1811.446,2919.622 1809.447,2922.186 1806.526,2925.397 1801.642,2926.27 1799.898,2927.04 
		1799.084,2930.47 1795.93,2931.226 1792.95,2929.831 1792.95,2929.831 1790.523,2932.519 1790.043,2936.269 1790.61,2939.816 
		1792.572,2943.275 1794.607,2944.394 1795.232,2949.83 1798.589,2950.295 1801.264,2950.077 1802.746,2952.039 1807.586,2950.586 
		1809.621,2951.879 1812.528,2952.112 1814.142,2954.597 1818.778,2952.766 1819.374,2954.205 1820.944,2947.999 1821.031,2943.973 
		1824.955,2941.196 	"/>
	<polygon points="1777.5,2955.397 1778.517,2950.353 1776.54,2947.795 1773.546,2947.432 1772.122,2945.165 1771.424,2942.345 
		1769.956,2942.243 1767.616,2940.833 1769.244,2937.534 1766.148,2935.688 1763.794,2932.302 1760.364,2929.525 1756.221,2929.467 
		1752.355,2925.107 1750.102,2923.421 1746.948,2920.674 1743.344,2916.706 1737.036,2915.921 1734.405,2915.761 1734.768,2917.825 
		1739.012,2922.302 1742.079,2924.569 1744.216,2928.043 1747.893,2930.586 1749.39,2933.74 1750.582,2937.214 1754.157,2940.586 
		1757.253,2946.255 1759.274,2949.292 1762.355,2952.592 1764.099,2955.048 1769.332,2958.362 1772.762,2961.763 1777.267,2961.676 
			"/>
	<polygon points="1869.213,2941.095 1867.527,2938.958 1868.152,2936.502 1870.26,2936.894 1870.478,2933.363 1870.085,2931.691 
		1867.672,2931.342 1867.382,2929.133 1866.03,2930.601 1865.216,2933.842 1866.422,2939.016 1868.065,2941.574 	"/>
	<polygon points="1860.26,2952.562 1863.079,2953.304 1864.606,2951.952 1863.588,2950.629 1859.46,2950.818 	"/>
	<polygon points="1806.453,2968.783 1804.97,2966.138 1797.412,2964.176 1796.511,2965.862 1788.706,2965.455 1788.125,2963.972 
		1786.439,2963.667 1783.154,2962.083 1778.212,2961.836 1775.422,2965.731 1779.157,2966.036 1779.869,2967.795 1787.296,2969.481 
		1788.997,2968.972 1791.991,2969.379 1796.715,2970.934 1800.523,2971.676 1804.752,2971.981 1808.444,2971.865 1812.921,2973.507 
		1817.572,2971.952 1812.572,2969.524 	"/>
	<polygon points="1840.551,2972.606 1837.993,2971.385 1834.752,2972.242 1834.766,2973.74 1840.188,2974.248 1846.307,2973.085 
		1846.902,2970.818 1843.269,2972.301 	"/>
	<polygon points="1834.65,2976.007 1830.856,2976.821 1836.263,2979.699 1837.978,2979.626 1838.211,2978.507 1836.786,2977.257 	
		"/>
	<polygon points="1830.493,2971.588 1827.979,2971.923 1826.51,2970.833 1825.42,2972.301 1823.182,2972.33 1821.787,2974.684 
		1823.981,2974.713 1826.801,2974.161 1831.51,2973.333 	"/>
	<polygon points="1920.636,2948.479 1916.262,2947.708 1913.238,2946.255 1909.75,2944.845 1906.131,2944.845 1901.451,2947.287 
		1898.05,2951.589 1893.835,2949.162 1892.701,2942.606 1892.047,2941.124 1885.506,2939.467 1883.414,2940.79 1877.919,2941.763 
		1879.649,2943.769 1883.283,2944.51 1884.896,2946.923 1890.855,2946.938 1891.204,2948.013 1888.297,2947.941 1883.908,2949.394 
		1887.018,2951.385 1887.033,2953.144 1887.963,2954.626 1889.533,2954.263 1890.739,2952.286 1896.858,2956.037 1900.215,2956.371 
		1908.122,2959.815 1910.084,2963.231 1911.145,2967.664 1908.573,2968.798 1906.843,2972.126 1912.003,2971.995 1913.006,2970.833 
		1917.148,2971.661 1920.782,2975.019 1920.709,2961.705 	"/>
	<polygon points="1893.311,2961.4 1892.585,2962.868 1892.977,2965.935 1895.07,2963.158 1895.099,2961.211 1894.169,2960.019 	"/>
	<polygon points="1838.879,2943.667 1835.231,2940.063 1835.812,2936.996 1839.374,2936.415 1846.161,2936.211 1850.086,2936.996 
		1853.152,2936.211 1856.423,2932.2 1855.71,2931.313 1851.684,2934.249 1847.004,2934.423 1841.859,2933.856 1838.676,2932.665 
		1835.217,2935.673 1834.359,2937.345 1832.31,2943.449 1831.728,2946.661 1830.042,2949.321 1831.307,2952.097 1833.022,2952.126 
		1833.647,2956.036 1832.484,2959.772 1834.228,2960.964 1836.816,2960.368 1836.656,2954.554 1836.307,2949.83 1839.025,2948.595 
		1838.72,2952.548 1841.656,2954.932 1841.132,2956.501 1842.15,2957.621 1846.147,2956.051 1844.17,2959.379 1845.769,2960.804 
		1847.949,2959.612 1847.978,2956.938 1844.315,2952.257 1845.057,2950.862 1841.205,2945.673 1844.795,2944.104 1846.568,2941.734 
		1848.341,2942.316 1848.676,2940.455 1841.074,2941.836 	"/>
	<polygon points="1873.268,2949.292 1868.239,2949.467 1867.265,2951.69 1870.085,2951.836 1872.382,2951.574 1875.783,2951.908 
		1879.227,2953.58 1877.745,2950.484 	"/>
	<polygon points="1917.802,2754.442 1916.087,2757.828 1916.785,2763.788 1914.227,2770.154 1911.916,2772.16 1905.942,2777.261 
		1903.224,2774.834 1898.965,2783.802 1894.605,2782.784 1886.495,2784.267 1883.5,2787.653 1879.402,2790.197 1877.265,2793.264 
		1873.413,2794.761 1875.07,2798.074 1877.643,2799.47 1876.64,2803.772 1878.617,2805.618 1881.248,2803.627 1883.966,2795.473 
		1879.838,2791.897 1884.605,2791.81 1889.431,2789.499 1896.523,2788.409 1896.683,2792.072 1899.416,2793.947 1905.23,2788.365 
		1912.395,2788.06 1917.599,2785.735 1919.721,2782.218 1919.009,2779.703 1920.549,2775.662 1920.476,2770.386 1924.241,2765.154 
		1924.357,2760.881 1922.133,2753.453 	"/>
	<polygon points="1889.183,2794.804 1891.276,2793.671 1892.948,2795.226 1895.244,2792.275 1894.721,2790.604 1891.713,2789.557 
		1890.041,2791.621 1887.73,2791.055 1885.477,2793.961 1885.448,2796.258 1888.108,2797.639 	"/>
	<polygon points="1935.374,2739.18 1932.511,2737.974 1929.357,2736.085 1924.575,2730.096 1923.369,2734.588 1922.177,2742.407 
		1917.817,2742.713 1915.796,2746.986 1916.363,2752.422 1920.898,2752.334 1923.122,2746.346 1929.531,2750.096 1933.107,2744.631 
		1939.153,2743.105 1938.252,2736.782 	"/>
	<polygon points="1675.467,2900.267 1672.662,2897.985 1670.816,2904.642 1671.528,2910.5 1673.476,2913.741 1677.022,2912.811 
		1678.723,2911.648 1679.333,2907.404 1677.371,2903.145 	"/>
	<polygon points="1576.24,2827.435 1575.731,2827.042 1574.539,2828.583 1575.309,2830.123 1575.847,2829.31 	"/>
	<polygon points="1831.118,2897.229 1833.807,2894.962 1833.08,2891.605 1830.944,2895.703 1828.502,2898.552 1825.551,2901.081 
		1823.545,2903.945 1828.967,2900.064 	"/>
	<polygon points="1838.472,2886.096 1840.217,2888.16 1841.292,2884.57 1839.882,2883.073 1836.394,2882.927 	"/>
	<polygon points="1834.737,2874.832 1835.347,2876.663 1837.353,2879.061 1837.876,2877.55 1839.097,2878.523 1837.818,2879.584 
		1837.615,2881.314 1839.65,2882.23 1843.356,2881.619 1845.958,2884.119 1847.004,2882.593 1848.516,2884.773 1851.684,2886.808 
		1852.106,2884.89 1850.769,2883.887 1851.161,2881.619 1846.074,2879.308 1844.272,2879.802 1842.106,2879.338 1841.19,2876.009 
		1841.83,2872.622 1844.228,2871.227 1845.304,2867.71 1843.908,2864.672 1844.577,2862.899 1844.214,2861.809 1842.964,2862.913 
		1840.449,2861.692 1837.978,2861.721 1836.656,2865.588 1836.234,2872.201 1834.592,2870.806 	"/>
	<polygon points="1847.062,2893.639 1846.612,2896.198 1845.594,2897.346 1844.751,2898.45 1847.266,2901.284 1848.545,2900.064 
		1849.824,2897.462 1851.292,2896.11 1851.684,2892.186 1848.661,2896.168 1849.315,2893.392 	"/>
	<polygon points="1842.746,2889.454 1843.371,2891.416 1843.08,2893.523 1843.225,2895.442 1845.812,2894.206 1847.702,2892.462 
		1847.775,2890.732 1845.187,2890.732 	"/>
	<polygon points="1849.301,2902.622 1847.077,2904.163 1844.504,2905.311 1842.905,2908.756 1843.574,2909.948 1846.597,2907.666 
		1848.516,2907.825 1849.795,2906.125 1852.382,2908.058 1851.132,2909.991 1852.28,2912.941 1857.077,2915.311 1858.239,2913.406 
		1856.931,2910.412 1858.835,2908.348 1860.318,2912.505 1861.713,2908.77 1861.466,2906.473 1861.045,2903.756 1860.783,2902.244 
		1860.434,2900.18 1857.135,2898.232 1857.382,2901.401 1854.504,2901.517 1853.835,2903.349 1850.74,2904.468 	"/>
	<polygon points="1857.484,2888.334 1856.379,2886.779 1852.469,2886.692 1854.955,2889.861 1855.013,2891.43 1852.615,2891.096 
		1853.254,2893.596 1854.475,2893.814 1854.649,2896.706 1856.583,2895.791 1855.58,2893.247 1855.492,2891.866 1858.632,2892.956 	
		"/>
	<polygon points="1774.244,2407.371 1775.451,2399.057 1765.116,2386.935 1762.05,2385.511 1758.707,2387.982 1751.265,2415.016 	
		"/>
	<polygon points="1726.309,2383.723 1733.068,2392.052 1744.419,2398.156 1753.314,2395.54 1754.317,2375.744 1744.928,2352.43 
		1737.007,2339.32 1728.184,2345.294 1717.603,2362.488 1723.17,2367.241 	"/>
	<polygon points="1955.592,2470.873 1960.301,2464.695 1950.069,2460.509 1942.467,2458.067 1941.494,2463.285 1949.066,2469.492 	
		"/>
	<polygon points="1919.881,2484.724 1916.014,2490.421 1916.727,2491.177 1925.084,2492.747 1931.261,2492.645 1930.767,2488.91 
		1924.982,2483.372 	"/>
	<polygon points="1919.067,2468.416 1934.081,2468.852 1937.293,2457.021 1922.569,2448.198 1911.814,2447.457 1906.436,2450.626 
		1904.241,2461.89 1912.308,2472.079 	"/>
	<polygon points="2079.586,2524.098 2084.906,2523.342 2089.106,2520.348 2089.455,2518.618 2083.554,2514.97 2080.095,2514.941 
		2079.572,2515.479 2074.383,2520.77 2075.11,2524.738 	"/>
	<polygon points="1559.888,2506.119 1555.717,2508.968 1556.313,2515.988 1563.696,2519.403 1564.772,2524.956 1578.086,2526.554 
		1580.498,2525.479 1572.708,2515.145 1571.879,2504.215 1578.26,2490.93 1584.335,2476.657 1596.995,2461.876 1609.437,2454.114 
		1623.869,2445.771 1626.602,2440.379 1623.768,2433.359 1615.832,2435.684 1608.855,2442.21 1595.294,2445.437 1581.835,2456.207 
		1572.722,2464.71 1573.827,2471.788 1564.074,2484.913 1567.824,2486.686 1559.743,2498.706 	"/>
	<polygon points="1923.049,2690.679 1925.433,2697.088 1925.258,2705.591 1924.314,2710.3 1924.779,2716.899 1924.328,2722.728 
		1925.084,2727.669 1927.758,2723.12 1930.854,2726.666 1930.971,2722.538 1927.003,2716.39 1929.503,2707.51 1935.534,2709.559 
		1931.436,2698.397 1929.75,2691.842 1929.851,2685.301 1928.442,2678.76 1927.38,2674.182 1925.564,2675.156 1927.177,2678.368 
		1923.412,2681.522 	"/>
	<path d="M2112.682,2568.53l-11.061-1.555l0.945,7.486l-2.747-2.529l0.349-6.453l-10.683-10.668l-9.985-8.517l-5.698-5
		l-11.715-5.582l-8.474,0.712l-13.008-3.328l-1.817,5.261l3.299,7.369l-5.043,3.604l-7.093-10.16l-7.718,1.293l-7.689-2.282
		l-7.224,0.305l-5.45,2.384l-5.015-3.329l0.494-8.75l-3.387-5.087l-8.11-2.049l-16.453,2.354l-10.668-9.666l-3.474-7.776
		l-36.802-8.808l-5.378,5.916l2.936,12.209l-6.671-1.802l-3.009,3.59l-7.892-3.953l-6.948,3.459l-6.541-5.814l-3.939,13.343
		l-6.41-5.073l-5.116-10.145l2.413-5.581l-1.875-8.779l-6.584-7.471l-6.511,0.073l-8.648-2.529l-0.233,10.857l-17.035-2.079
		l-0.988-6.657l-13.081-2.398l-6.511,2.282l-1.788,3.721l-2.078-9.288l-3.663,2.776l-6.032-3.706l-5.058-2.079l3.067-4.477
		l10.712-8.604l4.506-4.709l1.017-8.503l-3.27-6.323l-9.186-8.488l-11.918-0.233l-3.721,4.273l-1.105-8.764l-9.229-2.791
		l5.552-4.549l-6.991-6.119l-9.622,7.718l-3.895,7.747l-1.119,7.616l-7.485-0.291l-9.142,9.069l-3.328-3.793l-10.697,1.57
		l-1.366,4.578l-10.756,2.195l-7.921,8.009l-4.68,0.436l-4.724,10.203l3.314,7.82l-8.837,1.918l-9.796-0.64l-7.093,2.936
		l0.407,14.942l3.619,11.075l-7.529-7.529l-8.459,0.712l-6.817,5.204l1.86,9.259l-4.36-2.311l1.613-12.602l-2.137-7.543l-2.035,0.32
		l0.945,9.622l-7.296,8.779l5.291,10.218l-3.256,12.035l0.974,6.424l4.462,0.93l-1.904,7.384l2.369,6.192l-3.532,5.073l-1.076,5.16
		l-4.477,2.645l-1.628,3.648l-4.666-1.483l7.979-14.825l1.744-7.282l-4.491-6.875l0.93-16.09l-1.308-8.634l-2.529-4.041
		l3.866-10.581l-0.843-7.529l-10.785-3.648l-3.023,2.732l-2.674,12.238l-7.514,11.613l0.116,3.982l2.18,9.433l-1.337,5.567
		l4.913,1.134l0.116,2.442l4.142,5.974l-2.733,5.77l-14.767-12.791l-5.639-3.619l-12.035-3.546l-2.122,3.866l4.273,6.657
		l-4.637,7.398l-4.651-6.715l-6.046,4.636l-7.631,0.305l-2.922,3.75l-5.058-1.134l4.012-6.744l-3.067-0.552l-14.229,9.506
		l-8.517,5.116l-1.003,6.7l-6.293,2.238l-3.212-3.546l-0.029-5.872l5.16-1.323l-2.325-6.075l-11.395-3.546l2.994,6.817l-1.991,6.41
		l3.401,6.221l-2.369,6.991l-3.808-3.532l-3.765-0.582l-9.491,9.796l2.747,7.093l-3.43,2.311l-9.854-5.959l-2.587,3.648l2.456,4.07
		l-0.523,4.52l-3.183-2.413l-5.247-2.863l-0.262-9.811l-0.262-4.578l-6.642-7.413l2.994-1.308l18.197,7.718l6.657-2.689l4.52-5.363
		l-0.276-6.977l-3.125-5.102l-15.392-12.572l-11.162-2.733l-6.7-7.064l-4.2,4.084l-6.933,4.636l-3.285,1.046l-0.596,7.849
		l6.235,7.253l-3.765,7.965l4.738,11.57l-2.747,8.372l3.663,7.049l-1.672,6.032l6.032,6.192l-1.526,4.506l-3.779,5.014l-8.721,10.77
		l4.273,3.895l-4.636,4.462l0.61,1.395l-2.907,4.549l1.206,7.209l-1.744,2.413l1.962,1.729l0.349,3.619l1.308,4.346l4.288,1.831
		l0.581,1.802l2.137-0.857l3.982,1.715l0.392,3.357l-0.872,1.904l2.558,4.578l1.657,1.264l-0.247,1.25l2.747,1.206l1.177,1.817
		l-1.584,1.482l-3.285-0.232l-0.785,0.639l0.959,2.239l1.003,4.273l1.526,0.262l1.032-1.511l1.235,0.334l4.229-0.64l2.602,3.75
		l-1.017,1.323l0.334,2.021l3.256,0.32l1.453,2.805l-0.087,1.265l5.174,2.238l3.125-1.003l2.514,2.965l2.384-0.073l6.003,2.049
		l0.044,1.831l-1.657,3.241l0.901,3.386l-0.64,2.035l-3.939,0.451l-2.108,1.686l-0.131,2.66l3.663-0.959l0.102,1.308l-6.003,2.427
		l2.282,2.326l-3.387,4.869l-2.965,0.93l3.517,3.372l4.651,2.151l5.189,4.753l0.494-0.654l0.012,0.003l-0.492,0.665l1.497,1.701
		l2.253,0.64l2.355,2.049l1.017,3.735l-0.61,2.326l-4.811,2.82l-3.503-0.48l-4.753,0.829l-5.843-2.078l-7.137-3.837l-6.744,0.116
		l-4.753,1.541l-4.898,3.517l-7.761-0.712l-1.715,4.084l-6.279,0.218l-4.52,5.058l2.587,2.5l-1.977,4.041l2.979,2.849l2.413,5.058
		l4.448-0.087l3.939,2.689l2.82-0.596l0.945-2.093l4.389,0.175l3.299,2.703l6.192-0.567l2.805-2.907l3.416,1.163l2.485-0.436
		l-1.541,1.89l1.497,2.282v0l-0.988,2.049l0.378,3.794l-0.087,0.174l-2.02,3.459l-1.453,3.968l-0.116,0.043l-0.581,1.221
		l-0.828,3.634l-1.076,2.224l0.276,0.276l-1.177,1.57l2.674,8.067l0.131,0.668l-0.494,1.86l-0.189,1.613l-0.625,2.529l2.02-0.014
		l2.078,3.139l2.485,3.663l1.584,3.372l1.192,1.003l1.134,2.325l-0.218,1.003l1.337,2.558l2.209,0.916l1.904,1.729l2.34,4.884
		l-0.174,2.602l0.465,3.023l2.703,4.142l1.817,0.698l2.82,2.965l1.148,3.503l2.18,3.576l2.093,1.511l0.32,1.7l1.235,1.279
		l0.523,1.802l0.174,1.832l-0.494,0.814l0.422,1.918l-0.814,0.204l1.177,1.729l0.799,3.082l0.654,1.235l-0.116,2.282l1.061,2.427
		l2.82,0.204l1.308-0.552l2.02,0.087l0.625-1.061l1.076-0.305l0.887-1.09l1.032-0.233l3.416-0.218l2.602-0.8l2.384-1.744
		l1.221,0.247l1.788-0.218l3.648-2.951l6.511-1.962l4.055-1.773l0.102-1.439l0.785-1.86l2.95-1.148l-0.001-0.002l1.876-0.231
		l2.732-1.424l2.253,0.392l1.977-1.177l-0.015-1.715l1.599-1.075l2.529,0.029l0.93-0.901l0.393-2.078l2.543-1.599l1.875,0.014
		l0.378-0.523l-0.494-2.878l0.654-2.18l0.843-1.032l1.846,0.232l1.526-2.965l1.701-1.439l0.654-1.221l1.483-2.602l0.015-0.974
		l-1.453-0.552l-1.105-1.454l-1.846-2.529l-2.413-0.799l-2.994-0.582l-2.282-1.613l-1.814-3.009h0.011l-0.552-3.547l-0.77-1.526
		l-2.573,2.762l-3.052,2.878l-2.791,3.009l-2.456-0.131l-3.372-0.116l-3.183,0.698l-0.16-1.221l-0.727,0.218l-0.77-1.7l0.887-2.631
		l-0.073-2.631l-1.235-1.41l-1.105,0.494l-1.104,2.354l0.276,3.256l-0.61-1.09l-0.552-1.468l-1.163-1.264l-0.523-1.511l0.407-1.497
		l-0.247-1.875l-2.776-1.904l-0.698-1.613l-2.006-1.032l-1.599-3.968l-1.308-3.503l0.363-1.061l-0.843-2.049l2.413,0.218
		l1.526-1.832l2.587,1.555l2.195-0.756l3.009,6.206l2.718,4.375l3.924,1.308l4.113,3.503l4.985,1.497l4.099-2.195l3.14-0.814
		l1.948,0.814l1.744,5.538l4.593,0.596l4.448,1.032l7.66,1.352l5.741-0.639l6.628-0.073l7.5-0.843l3.154,3.401l1.221,3.198
		l2.979,1.119l4.782,3.75l1.206,1.715l-1.962,1.584l5.32,5.276l2.878,0.523l5.93-2.602l0.785,4.07l-0.015,5.203l1.221,5.48
		l1.686,8.198l3.706,5.77l0.712,2.616l1.003,5.203l2.166,3.982l1.424,1.948l1.57,4.157l1.889,5.756l3.852,3.823l1.642-1.177
		l1.366-2.791l3.721-1.163l-1.235-1.352l1.846-3.125l2.107-0.204l0.029-7.02l1.715-3.939l-0.218-3.445l-0.843-5.45l1.221-3.198
		l1.904-0.233l3.677-1.497l2.035-1.046v-1.948l4.055-2.776l3.067-2.689l4.564-5.029l5.857-2.907l2.18-2.558l-0.233-3.27l5.029-0.901
		l2.762,0.058l0.596-1.599l1.57,0.392l1.148,0.48l0.596-0.8l1.744,0.887l1.279-2.427l-0.378-1.817l3.75,0.175l1.7,2.558l0.785,2.107
		l0.233,2.209l1.163,2.267l2.892,3.517l2.384,0.552l-0.494,1.555l3.198,4.927l0.843,3.982l-1.41,5.247l2.529,0.974l2.282,0.378
		l4.637-2.994l2.689-2.122l1.759,3.488l0.741,5.32l1.323,5l1.657,2.151l-0.334,4.52l1.366,2.442l-1.25,3.168l0.392,3.052
		l-1.192,3.939l-0.451,2.558l0.77,2.267l0.669-2.398l1.977,1.933l2.166,2.311l0.698,2.02l1.613,1.555l0,0.014l0.901,1.73
		l-0.451,2.965l1.468,2.209l0.567,3.357l2.355,2.718l0.48,2.064l4.825,3.212l3.852,2.994l2.892-0.276l0.073-1.366l-1.599-3.575
		l-1.439-1.119l-0.305-2.398l-0.392-1.395l0.436-1.846l-0.233-2.732l-1.715-2.718l-2.413-2.456l-0.93-0.378l0-0.015l-2.108-2.107
		l-2.471-0.48l-2.267-2.34l-0.741-3.532l-1.657-3.735l-2.645-0.131l-0.276-2.98l1.323-3.634l2.195-6.032l0.32-4.564l3.59-0.029
		l-0.596,3.27l3.488-0.087l3.663,1.904l2.049,4.273l1.657,2.151l3.416,0.596l3.023,2.34l-1.148,2.776l1.482,2.631l5.087-3.808
		l3.314-3.43l4.68-2.66l3.387-2.718l0.552-7.296l-1.86-7.732l-2.485-3.386l-3.692-2.602l-3.808-5.552l-3.125-4.491l0.901-2.98
		l3.401-4.084l5.436-3.721l-0.029-0.015l1.933-0.712l5.465,1.395l-0.959,1.686l1.076,3.139l2.253-0.247l1.395-4.579l4.317-0.668
		l5.698-2.18l2.311-2.18l1.41,1.424l2.485-1.948l4.593-0.509l5.668-3.706l5.61-4.099l3.779-5.349l3.299-5.944l2.979-4.957
		l2.282-0.407l1.032-3.663l0.625-3.794l-2.398-1.453l-0.974-2.514l2.558-1.294l0.073-3.532l-2.762-3.677l-2.485-4.433l-1.599-4.811
		l-4.389-2.704l2.093-3.474l3.968-2.514l1.904-2.718l5.77-1.41l-0.669-2.674l-2.631-0.131l-3.619-1.991l-4.564,3.648l-3.227-1.482
		l-0.131-2.296l-3.328-0.843l-2.151-3.503l2.078-2.442l3.997-0.247l2.514-3.401l4.608-3.692l3.546-1.89l2.151,2.805l-3.227,3.561
		l0.858,2.049l-2.166,2.427l4.389-1.424l2.994-2.456l5.698-1.541l-0.014,0.029l1.919,1.41l2.369,0.581l0.276,0.858l-1.032,2.82
		l0.363,0.945l-0.959,0.61l-1.119,2.282l1.09,0.829l1.061,0.465l0.145,0.959l1.192-0.422l0.494-0.959l1.977,0.974l2.791,4.36
		l-3.023,0.857l1.802,5.233l-0.756,3.735l0.451,2.689l3.677-0.422l3.256-2.049l3.692-0.959l1.526-2.732l-0.029-5.785l-1.003-3.3
		l-3.517-6.075l-2.311-2.297l-1.628-0.843l0.48-0.581l0.131-2.282l1.759-1.425l2.718-0.872l1.541-1.57l0.727-0.945l2.108-1.177
		l-0.16-3.881l1.221-1.861l1.773-1.846l1.541,0.334l-0.567-0.974l0.014-0.029l0.567,0.959l0.64-1.832l5.465-4.055l2.558,2.704
		l2.573-0.073l5.436-3.27l2.631-3.314l5.494-6.584l5.538-6.773l1.366-4.099l6.148-8.735l1.831-9.956l0.349-7.66l3.183-6.555
		l-0.131-5.698l-5.886-7.543l-4.477-0.451l-2.602,3.459l-3.953-1.526l-2.006-4.36l-6.424-0.887l15.625-17.122l13.197-15.014
		l13.401-2.354l12.456,1.366l5.043-3.924l6.337,1.221l-0.291,5.741l6.293-0.814l9.099-2.064l-3.372-4.913l10.203-13.895
		l10.523-2.907l3.343,10.378l10.334-9.244l2.442-7.151l4.956-0.741l-3.27,12.165l-7.325,6.642l-7.02,8.328l-7.282,9.854
		l-6.337,1.715l-0.218,3.546l-3.445,4.462l-1.962,10.102l2.267,15.479l1.744,9.724l1.512,4.477l5.872-6.075l1.221-6.773l6.075-1.657
		l1.41-7.849l7.122-3.59l-1.701-3.052l1.744-6.032l3.779-0.276l0.552-10.843l-4.636-1.701l-0.145-3.11l4.884-7.587l1.308-5.276
		l5.45,1.104l3.924-3.474l1.86,3.023l10.625-6.424l5.828,5.668l1.497-3.706l5.916-5.087l6.235-5.959l3.619-1.003l11.395-6.555
		l7.602,1.918l1.047-2.325l-0.48-3.677l-1.875-2.427l-2.427-7.558l-3.677-5l5.276,0.698l5.232-4.2l0.029-0.058l2.311-4.113
		l-1.831-4.636l4.884-2.384l-0.887,3.706l2.209,3.445l4.636-1.264l4.142,1.599l0.916,4.2l5.421,2.791l3.111,3.285l3.823,0.276
		l1.628-1.962l0.102-9.39l6.686-1.017l4.041-4.317L2112.682,2568.53z M1573.45,2836.587l0.697,0.586l-0.004,0.002l-0.694-0.583
		L1573.45,2836.587z M1533.004,2765.467l-0.586-1.069l0.015-0.814l-1.802,0.015l-1.206-1.41l-0.843,0.131l0.006,0.019l-0.006-0.004
		l-0.015,0l-1.599-1.541l-3.023-1.323l0.392-2.602l-0.698-1.889l5.655-0.841l0.842,1.408l1.555,0.93l-0.814,1.337l2.166,1.832
		l-1.148,1.686l1.73,1.439l1.831,0.857l0.102,3.648L1533.004,2765.467z M1565.513,2757.465l-3.837-1.323l-0.901,4.491l2.703,0.32
		l-1.046,3.604l3.183,1.773l-0.596,5.421l0.756,3.619l-0.392,1.192l-6.366,1.337l-5.785-0.872l-2.834-2.558l-3.866-1.061
		l-1.294-3.793l0-0.029l-0.116-2.573l1.497-1.221l0.698-1.831l0.712-4.099l3.358-0.422l-1.25-1.439l-1.904-0.247l-2.078-3.808
		l-2.136-2.863l0,0l-4.448-6.482l0.407-3.764l-3.706-5.378l4.055-5.945l3.953-0.959l1.842-3.438l0.019,0.008l3.794-1.25l4.724-2.602
		l3.459,1.453l4.084-0.291l0.727,3.648l-0.741,5.683l-3.561-0.858l-3.459,0.93l-0.16,4.186l-3.968-0.538l0.145,1.86l2.238,1.425
		l1.846,5.043l4.724,1.889l0.77,1.918l-1.003,2.282l0.233,1.337l1.279,3.503l0.407-3.968l3.285-1.395l1.163,3.111l2.979,3.241
		L1565.513,2757.465z"/>
	<polygon points="1535.543,2364.77 1539.961,2370.409 1544.729,2366.5 1545.296,2362.546 1548.958,2360.7 1554.423,2357.459 
		1555.993,2353.651 1549.947,2348.055 1546.11,2352.27 1543.77,2358.259 1542.941,2351.5 1536.749,2351.805 1528.799,2356.369 
		1537.868,2357.125 	"/>
	<polygon points="1862.149,2972.068 1859.3,2972.213 1855.798,2973.129 1855.318,2974.088 1855.725,2974.902 1855.798,2976.152 
		1859.213,2974.96 1863.457,2973.173 1864.954,2972.068 1863.414,2971.559 	"/>
	<polygon points="1839.853,2843.117 1842.31,2836.039 1843.022,2833.335 1841.161,2832.013 1837.891,2835.385 1835.493,2839.745 
		1835.958,2843.016 1838.109,2846.722 	"/>
</g>
</svg>
