<?xml version="1.0" encoding="iso-8859-1"?>
<!-- Generator: Adobe Illustrator 18.0.0, SVG Export Plug-In . SVG Version: 6.00 Build 0)  -->
<!DOCTYPE svg PUBLIC "-//W3C//DTD SVG 1.1//EN" "http://www.w3.org/Graphics/SVG/1.1/DTD/svg11.dtd">
<svg version="1.1" id="Layer_1" xmlns:amcharts="http://amcharts.com/ammap"
	 xmlns="http://www.w3.org/2000/svg" xmlns:xlink="http://www.w3.org/1999/xlink" x="0px" y="0px" width="974.143px"
	 height="699.92px" viewBox="0 0 974.143 699.92" style="enable-background:new 0 0 974.143 699.92;" xml:space="preserve">
<defs>
	
	
		<amcharts:ammap  rightLongitude="190.122401" topLatitude="83.646363" projection="mercator" leftLongitude="-169.522279" bottomLatitude="-55.621433">
		</amcharts:ammap>
</defs>
<g>
	<polygon points="919.205,614.949 926.422,606.035 903.924,589.48 884.608,571.652 858.078,561.252 824.754,559.128 
		827.091,553.186 794.191,549.79 773.816,567.619 737.735,579.717 712.477,594.786 683.187,599.243 666.844,584.386 
		661.114,589.268 637.343,586.721 638.615,573.986 617.391,552.549 589.375,526.868 566.451,502.671 551.17,469.986 542.254,460.01 
		539.284,443.879 551.594,428.385 547.562,412.467 553.08,386.572 562.207,380.63 560.72,353.25 557.324,337.756 559.447,310.801 
		565.815,286.392 579.397,265.593 573.456,243.306 576.427,229.723 581.521,223.779 565.815,206.8 544.166,197.461 526.974,183.665 
		508.931,172.204 499.382,170.93 472.214,162.44 460.329,167.746 444.834,169.232 430.613,164.987 411.725,161.804 404.719,168.596 
		385.616,175.388 358.026,177.085 330.434,171.568 321.094,174.538 315.575,169.657 298.596,170.505 285.437,181.33 
		279.282,178.783 261.878,170.93 256.784,180.269 237.257,169.019 249.143,147.795 259.967,145.885 271.641,129.329 278.433,98.13 
		274.824,92.399 280.979,70.113 275.674,60.562 285.437,33.607 286.285,16.626 275.038,16.414 274.824,7.288 263.575,8.137 
		242.351,45.704 231.528,38.276 224.311,41.248 224.735,50.374 169.762,49.737 114.155,49.737 114.155,84.758 87.198,84.758 
		109.272,105.558 131.345,119.779 137.926,133.15 147.689,136.971 145.99,157.771 69.793,157.983 41.142,208.073 49.419,219.534 
		42.627,233.967 41.142,251.796 73.19,276.841 100.357,288.939 137.5,290 168.064,300.613 184.832,313.772 217.943,317.592 
		242.562,329.69 263.999,335.421 298.384,336.27 304.964,322.05 323.217,327.356 333.405,346.246 328.947,350.702 318.972,341.576 
		312.393,350.915 342.32,378.295 367.363,397.184 380.523,417.561 408.328,441.969 428.916,461.071 415.332,472.533 
		432.099,481.022 424.246,500.125 423.822,518.377 431.887,530.476 450.988,536.418 464.573,552.974 476.458,538.754 
		472.638,521.137 488.344,531.962 492.165,549.578 512.753,557.219 536.101,568.892 552.655,583.325 554.778,596.484 
		547.986,606.884 560.084,619.407 592.345,632.779 599.136,641.693 601.048,628.746 626.518,628.746 642.01,635.75 666.419,639.571 
		678.305,663.766 698.044,667.162 705.685,656.975 716.084,692.632 743.677,689.661 752.379,680.747 768.51,673.105 
		740.281,640.844 746.012,628.321 758.958,626.199 783.156,611.342 795.041,590.542 821.146,586.721 850.863,603.276 
		861.897,623.015 876.969,627.048 862.323,642.966 875.058,675.228 894.798,692.42 902.438,663.555 921.751,667.799 933.001,649.97 
			"/>
</g>
</svg>
