<?xml version="1.0" encoding="iso-8859-1"?>
<!-- Generator: Adobe Illustrator 18.0.0, SVG Export Plug-In . SVG Version: 6.00 Build 0)  -->
<!DOCTYPE svg PUBLIC "-//W3C//DTD SVG 1.1//EN" "http://www.w3.org/Graphics/SVG/1.1/DTD/svg11.dtd">
<svg version="1.1" id="Layer_1" xmlns:amcharts="http://amcharts.com/ammap"
	 xmlns="http://www.w3.org/2000/svg" xmlns:xlink="http://www.w3.org/1999/xlink" x="0px" y="0px" width="974.143px"
	 height="699.92px" viewBox="1299.629 3109.68 974.143 699.92" style="enable-background:new 1299.629 3109.68 974.143 699.92;"
	 xml:space="preserve">
<defs>
	
	
		<amcharts:ammap  rightLongitude="190.122401" topLatitude="83.646363" projection="mercator" leftLongitude="-169.522279" bottomLatitude="-55.621433">
		</amcharts:ammap>
</defs>
<polygon points="2152.51,3383.367 2151.744,3352.585 2138.42,3320.116 2164.149,3305.721 2164.456,3277.385 2152.51,3250.124 
	2150.672,3218.115 2140.411,3195.753 2118.356,3187.791 2039.329,3189.015 1986.49,3180.591 1944.985,3179.673 1941.77,3161.6 
	1899.039,3149.042 1844.823,3174.16 1777.894,3208.159 1748.489,3229.448 1728.272,3206.322 1679.721,3177.375 1655.676,3197.439 
	1612.027,3211.222 1612.486,3185.186 1568.991,3168.033 1568.225,3139.24 1540.81,3150.573 1508.342,3140.773 1510.333,3182.89 
	1520.135,3210.304 1490.882,3245.988 1482.918,3230.061 1447.08,3234.042 1438.656,3249.357 1446.774,3273.557 1436.053,3338.341 
	1425.179,3364.53 1399.296,3364.53 1406.647,3436.36 1401.747,3481.848 1410.323,3496.857 1407.872,3525.802 1428.089,3543.11 
	1489.963,3555.055 1468.215,3599.47 1462.855,3645.11 1451.062,3655.983 1431.459,3650.012 1432.836,3666.092 1401.44,3701.47 
	1400.828,3729.651 1421.35,3719.849 1436.053,3746.958 1454.584,3760.129 1475.26,3757.22 1499.306,3736.389 1506.81,3746.191 
	1527.18,3744.2 1536.522,3719.238 1568.378,3727.047 1587.216,3716.479 1590.585,3690.903 1616.622,3699.787 1621.676,3687.994 
	1664.099,3676.967 1673.596,3698.867 1735.011,3714.949 1730.416,3745.427 1740.678,3771.616 1731.182,3777.129 1761.047,3779.273 
	1769.011,3768.86 1783.561,3778.813 1800.407,3780.04 1800.254,3762.885 1815.11,3756.607 1819.398,3731.794 1853.552,3715.256 
	1867.183,3722.914 1899.346,3749.409 1934.724,3761.202 1950.805,3752.011 1983.734,3735.929 2010.536,3738.534 2044.996,3726.896 
	2070.879,3684.625 2091.248,3641.741 2117.438,3628.415 2114.374,3611.263 2090.635,3593.803 2099.059,3567.613 2110.852,3550.615 
	2120.194,3554.444 2109.167,3525.035 2148.222,3469.749 2169.51,3461.938 2174.105,3442.947 "/>
</svg>
