<?xml version="1.0" encoding="iso-8859-1"?>
<!-- Generator: Adobe Illustrator 18.0.0, SVG Export Plug-In . SVG Version: 6.00 Build 0)  -->
<!DOCTYPE svg PUBLIC "-//W3C//DTD SVG 1.1//EN" "http://www.w3.org/Graphics/SVG/1.1/DTD/svg11.dtd">
<svg version="1.1" id="Layer_1" xmlns:amcharts="http://amcharts.com/ammap"
	 xmlns="http://www.w3.org/2000/svg" xmlns:xlink="http://www.w3.org/1999/xlink" x="0px" y="0px" width="974.143px"
	 height="699.92px" viewBox="0 0 974.143 699.92" style="enable-background:new 0 0 974.143 699.92;" xml:space="preserve">
<defs>
	
	
		<amcharts:ammap  rightLongitude="190.122401" topLatitude="83.646363" projection="mercator" leftLongitude="-169.522279" bottomLatitude="-55.621433">
		</amcharts:ammap>
</defs>
<polygon points="852.881,273.687 852.115,242.905 838.791,210.436 864.52,196.041 864.827,167.705 852.881,140.444 851.043,108.435 
	840.782,86.073 818.727,78.111 739.7,79.335 686.861,70.911 645.356,69.993 642.141,51.92 599.41,39.362 545.194,64.48 
	478.265,98.479 448.86,119.768 428.643,96.642 380.092,67.695 356.047,87.759 312.398,101.542 312.857,75.506 269.362,58.353 
	268.596,29.56 241.181,40.893 208.713,31.093 210.704,73.21 220.506,100.624 191.253,136.308 183.289,120.381 147.451,124.362 
	139.027,139.677 147.145,163.877 136.424,228.661 125.55,254.85 99.667,254.85 107.018,326.68 102.118,372.168 110.694,387.177 
	108.243,416.122 128.46,433.43 190.334,445.375 168.586,489.79 163.226,535.43 151.433,546.303 131.83,540.332 133.207,556.412 
	101.811,591.79 101.199,619.971 121.721,610.169 136.424,637.278 154.955,650.449 175.631,647.54 199.677,626.709 207.181,636.511 
	227.551,634.52 236.893,609.558 268.749,617.367 287.587,606.799 290.956,581.223 316.993,590.107 322.047,578.314 364.47,567.287 
	373.967,589.187 435.382,605.269 430.787,635.747 441.049,661.936 431.553,667.449 461.418,669.593 469.382,659.18 483.932,669.133 
	500.778,670.36 500.625,653.205 515.481,646.927 519.769,622.114 553.923,605.576 567.554,613.234 599.717,639.729 635.095,651.522 
	651.176,642.331 684.105,626.249 710.907,628.854 745.367,617.216 771.25,574.945 791.619,532.061 817.809,518.735 814.745,501.583 
	791.006,484.123 799.43,457.933 811.223,440.935 820.565,444.764 809.538,415.355 848.593,360.069 869.881,352.258 874.476,333.267 
	"/>
</svg>
