<?xml version="1.0" encoding="iso-8859-1"?>
<!-- Generator: Adobe Illustrator 18.0.0, SVG Export Plug-In . SVG Version: 6.00 Build 0)  -->
<!DOCTYPE svg PUBLIC "-//W3C//DTD SVG 1.1//EN" "http://www.w3.org/Graphics/SVG/1.1/DTD/svg11.dtd">
<svg version="1.1" id="Layer_1" xmlns:amcharts="http://amcharts.com/ammap"
	 xmlns="http://www.w3.org/2000/svg" xmlns:xlink="http://www.w3.org/1999/xlink" x="0px" y="0px" width="974.143px"
	 height="699.92px" viewBox="2373.771 2309.76 974.143 699.92" style="enable-background:new 2373.771 2309.76 974.143 699.92;"
	 xml:space="preserve">
<defs>
	
	
		<amcharts:ammap  rightLongitude="190.122401" topLatitude="83.646363" projection="mercator" leftLongitude="-169.522279" bottomLatitude="-55.621433">
		</amcharts:ammap>
</defs>
<g>
	<polygon points="3292.976,2924.709 3300.193,2915.795 3277.695,2899.24 3258.38,2881.412 3231.849,2871.012 3198.526,2868.888 
		3200.862,2862.946 3167.963,2859.55 3147.588,2877.379 3111.506,2889.477 3086.248,2904.546 3056.958,2909.003 3040.615,2894.146 
		3034.885,2899.028 3011.114,2896.481 3012.387,2883.746 2991.162,2862.309 2963.146,2836.628 2940.223,2812.431 2924.942,2779.746 
		2916.026,2769.77 2913.056,2753.639 2925.365,2738.145 2921.333,2722.227 2926.851,2696.332 2935.978,2690.39 2934.492,2663.01 
		2931.096,2647.516 2933.218,2620.561 2939.587,2596.152 2953.169,2575.353 2947.227,2553.066 2950.199,2539.483 2955.293,2533.539 
		2939.587,2516.56 2917.937,2507.221 2900.745,2493.425 2882.703,2481.964 2873.153,2480.69 2845.985,2472.2 2834.1,2477.506 
		2818.606,2478.992 2804.385,2474.747 2785.496,2471.564 2778.491,2478.356 2759.388,2485.148 2731.797,2486.845 2704.205,2481.328 
		2694.866,2484.298 2689.347,2479.417 2672.368,2480.265 2659.209,2491.09 2653.054,2488.543 2635.65,2480.69 2630.556,2490.029 
		2611.028,2478.779 2622.914,2457.555 2633.739,2455.645 2645.412,2439.089 2652.204,2407.89 2648.596,2402.159 2654.751,2379.873 
		2649.445,2370.322 2659.209,2343.367 2660.057,2326.386 2648.809,2326.174 2648.596,2317.048 2637.347,2317.897 2616.122,2355.464 
		2605.299,2348.036 2598.082,2351.008 2598.506,2360.134 2543.534,2359.497 2487.926,2359.497 2487.926,2394.518 2460.97,2394.518 
		2483.044,2415.318 2505.117,2429.539 2511.697,2442.91 2521.461,2446.731 2519.762,2467.531 2443.565,2467.743 2414.913,2517.833 
		2423.191,2529.294 2416.399,2543.727 2414.913,2561.556 2446.962,2586.601 2474.129,2598.699 2511.272,2599.76 2541.836,2610.373 
		2558.604,2623.532 2591.714,2627.352 2616.334,2639.45 2637.771,2645.181 2672.155,2646.03 2678.735,2631.81 2696.988,2637.116 
		2707.177,2656.006 2702.719,2660.462 2692.744,2651.336 2686.164,2660.675 2716.091,2688.055 2741.135,2706.944 2754.295,2727.321 
		2782.099,2751.729 2802.688,2770.831 2789.103,2782.293 2805.87,2790.782 2798.017,2809.885 2797.594,2828.137 2805.659,2840.236 
		2824.76,2846.178 2838.345,2862.734 2850.23,2848.514 2846.41,2830.897 2862.116,2841.722 2865.937,2859.338 2886.525,2866.979 
		2909.872,2878.652 2926.426,2893.085 2928.549,2906.244 2921.757,2916.644 2933.856,2929.167 2966.117,2942.539 2972.908,2951.453 
		2974.819,2938.506 3000.289,2938.506 3015.782,2945.51 3040.191,2949.331 3052.077,2973.526 3071.816,2976.922 3079.456,2966.735 
		3089.856,3002.392 3117.448,2999.421 3126.151,2990.507 3142.282,2982.865 3114.053,2950.604 3119.784,2938.081 3132.73,2935.959 
		3156.927,2921.102 3168.812,2900.302 3194.918,2896.481 3224.634,2913.036 3235.669,2932.775 3250.74,2936.808 3236.094,2952.726 
		3248.829,2984.988 3268.569,3002.18 3276.209,2973.315 3295.523,2977.559 3306.773,2959.73 	"/>
</g>
</svg>
