<?xml version="1.0" encoding="iso-8859-1"?>
<!-- Generator: Adobe Illustrator 18.0.0, SVG Export Plug-In . SVG Version: 6.00 Build 0)  -->
<!DOCTYPE svg PUBLIC "-//W3C//DTD SVG 1.1//EN" "http://www.w3.org/Graphics/SVG/1.1/DTD/svg11.dtd">
<svg version="1.1" id="Layer_1" xmlns:amcharts="http://amcharts.com/ammap"
	 xmlns="http://www.w3.org/2000/svg" xmlns:xlink="http://www.w3.org/1999/xlink" x="0px" y="0px" width="974.143px"
	 height="699.92px" viewBox="0 0 974.143 699.92" style="enable-background:new 0 0 974.143 699.92;" xml:space="preserve">
<defs>
	
	
		<amcharts:ammap  rightLongitude="190.122401" topLatitude="83.646363" projection="mercator" leftLongitude="-169.522279" bottomLatitude="-55.621433">
		</amcharts:ammap>
</defs>
<g>
	<polygon points="462.014,488.423 462.856,492.841 469.171,498.79 472.792,490.233 470.874,484.845 	"/>
	<polygon points="451.885,620.829 453.889,614.6 452.876,607.573 448.975,610.698 447.747,613.738 449.148,619.191 	"/>
	<polygon points="362.393,493.358 365.647,488.315 367.629,491.268 365.431,496.01 366.876,498.855 374.204,500.687 
		374.291,500.838 378.343,507.196 377.459,513.102 368.471,512.197 367.329,518.792 370.648,524.138 364.333,527.177 
		366.035,531.056 375.476,532.673 375.519,532.673 370.108,534.764 361.25,544.765 364.462,546.64 368.708,543.04 374.291,544.118 
		378.278,539.678 381.102,541.553 391.383,538.945 399.466,539.031 404.897,534.009 402.483,528.987 405.565,526.121 
		406.298,519.805 398.97,517.909 397.246,513.943 393.517,502.282 389.378,500.622 383.99,488.143 383.516,487.022 377.264,486.332 
		382.697,476.568 384.27,467.472 377.653,467.408 371.489,468.959 377.955,456.609 370.712,457.493 365.884,456.587 
		361.186,465.877 358.987,477.43 362.048,483.013 	"/>
	<polygon points="551.831,667.148 547.326,666.631 542.627,667.041 539.329,664.54 538.209,667.709 545.58,669.153 545.516,670.36 
		554.223,669.735 554.978,667.558 551.68,668.442 	"/>
	<polygon points="344.374,530.345 355.086,524.569 359.656,515.688 358.664,508.446 361.897,501.355 355.431,494.91 
		350.366,495.342 351.616,500.946 350.371,506.463 350.344,506.463 351.594,500.924 350.344,495.32 345.775,500.213 
		337.562,508.296 340.709,518.577 335.816,528.88 	"/>
	<polygon points="485.315,646.133 479.151,646.974 472.081,646.284 471.24,650.207 479.668,654.065 482.75,654.884 487.363,657.708 
		488.634,653.85 487.729,651.5 489.906,645.508 	"/>
	<polygon points="448.781,624.687 445.462,624.277 446.841,628.804 447.078,638.244 449.363,640.292 451.82,637.706 
		454.558,638.201 455.398,627.834 451.777,622.187 	"/>
	<path d="M430.375,457.169l8.363,5.841l8.061-2.673l11.941-13.514l4.027,7.175l-0.018,0.046l4.591,16.165l5.065,12.523l1.918,10.152
		l7.005-0.496l3.427-8.514l7.328,1.056l3.427-10.26l2.306-19.054l6.294-2.716l5.539-13.428l-5.776-6.768l-4.311-8.772l4.418-18.127
		l11.661-11.51l9.613-11.057l-0.948-8.665l5.863-10.109l10.389-4.181l8.406,6.94l0.647,6.121l-4.052,2.996l-13.816,15.131
		l-5.475,8.492l-2.888,7.716l2.931,11.661l-1.336,12.329l5.841,4.031l3.513,6.617l9.829-2.543l10.626-4.462l10.971-0.97
		l12.932-15.971l5.604-7.436l2.285-6.682l-8.945-9.182l2.479-8.923l-5.453-10.475l4.073-12.415l-7.027-17.157l5.583-11.812
		l-9.268-10.755l0.884-11.639l2.565-12.049l-7.005-6.343l7.027,6.343l-2.565,12.049l4.871-1.552l10.281-6.876l-6.617-11.014
		l7.781-4.807l-18.903-13.45l-10.841,3.751l-11.014-0.819l-9.204,15.066l-9.937-0.948l-13.256,7.738l-16.618,21.317l-10.13,12.221
		l-14.527,29.658l-11.057,20.045l-11.941,14.204l-15.95,11.165l-5.561,8.363l1.918,28.581L430.375,457.169z M497.493,329.247
		l0.051,0.001L497.493,329.247L497.493,329.247z"/>
	<polygon points="532.044,132.459 545.537,120.906 536.829,114.396 534.437,103.231 521.914,109.224 525.556,118.578 
		521.375,125.949 	"/>
	<polygon points="475.702,115.991 484.754,124.311 479.28,134.269 492.277,150.736 499.562,149.702 502.429,127.049 
		507.731,121.682 511.094,99.934 526.311,87.734 506.417,63.4 498.785,51.437 489.906,52.644 487.621,64.348 479.021,64.822 
		475.702,52.838 459.235,65.102 463.933,90.515 	"/>
	<polygon points="516.353,58.636 517.43,67.948 535.256,73.465 552.779,69.564 561.745,51.2 549.891,38.699 534.631,29.56 
		528.509,40.531 519.737,31.737 501.071,41.91 507.688,58.033 	"/>
	<polygon points="638.327,552.74 638.262,550.003 629.36,546.985 625.826,547.071 622.097,542.674 617.463,544.161 609.789,540.842 
		609.919,538.967 607.763,534.807 602.935,534.354 602.439,531.358 603.948,529.375 600.09,523.836 593.818,524.784 
		591.986,524.289 590.455,526.53 588.214,526.121 586.727,519.805 585.304,516.486 586.468,515.538 591.339,515.883 
		593.688,513.684 591.943,510.99 587.869,509.201 588.235,507.347 585.778,505.472 581.985,498.682 583.278,495.837 
		582.696,490.858 576.79,488.315 573.622,489.587 572.76,486.936 566.401,484.22 564.44,477.775 563.944,472.408 561.034,469.843 
		556.034,469.822 550.839,465.64 548.188,464.239 543.037,466.244 541.873,474.844 537.023,475.059 532.238,466.696 
		526.548,470.533 523.573,477.516 523.358,485.729 524.651,494.695 516.31,498.1 514.93,502.691 509.089,502.562 508.636,500.019 
		502.623,498.251 494.993,501.786 485.574,506.571 481.436,509.567 478.59,506.313 471.758,502.239 468.374,505.062 
		462.231,507.002 462.295,503.338 456.174,500.924 456.066,496.872 456.066,496.872 454.428,491.72 458.782,483.983 
		460.571,485.168 462.058,481.073 458.782,479.435 458.049,476.352 459.837,472.731 460.054,466.955 455.183,470.123 
		453.071,473.206 447.747,473.895 446.022,477.215 445.009,480.189 445.181,491.225 447.639,497.087 447.919,503.015 
		449.298,506.873 445.181,511.895 444.061,509.653 439.017,510.214 437.832,512.369 432.81,512.089 424.554,516.292 
		419.252,530.819 416.148,533.492 411.309,535.385 411.299,535.346 406.018,537.285 404.208,545.066 390.133,552.33 
		384.421,548.343 386.339,558.775 376.187,556.425 368.342,558.408 368.945,565.025 378.191,568.474 382.654,572.979 
		388.883,582.161 387.74,599.145 384.615,604.146 384.627,604.184 384.615,604.168 374.851,603.909 369.829,604.34 363.406,602.918 
		355.28,602.982 347.887,601.473 339.352,607.444 341.809,611.022 341.507,616.798 341.766,619.514 342.973,622.402 
		343.124,625.786 341.852,630.55 341.421,633.718 339.028,636.542 338.532,641.628 339.977,644.538 342.691,645.25 343.253,649.948 
		342.326,655.854 345.451,655.035 348.641,656.091 351.055,654.13 356.703,655.294 358.427,659.604 360.647,662.126 
		363.621,662.751 365.927,659.928 369.699,657.298 375.476,657.428 383.128,657.32 387.417,651.522 391.986,650.013 393.28,645.056 
		396.771,641.607 394.422,637.188 396.75,630.808 400.479,626.433 401.018,623.76 408.754,622.079 414.489,616.712 414.165,611.992 
		414.104,612.001 414.144,611.97 414.833,607.034 423.628,604.362 435.547,606.603 441.022,601.926 441.065,601.969 
		443.587,601.366 447.079,597.486 449.858,596.343 454.773,599.124 457.791,600.094 459.666,608.284 463.783,613.005 
		469.301,618.286 474.021,621.907 478.483,622.424 481.091,625.635 484.97,627.079 486.76,630.485 489.26,631.476 491.113,635.421 
		493.462,639.926 492.148,641.585 490.919,645.702 490.898,648.03 493.42,647.448 496.653,640.852 499.175,640.4 499.886,636.348 
		495.51,633.459 498.054,628.373 503.313,629.666 506.675,633.33 507.796,630.507 507.171,629.041 501.998,624.903 497.558,622.488 
		492.148,619.579 493.851,617.984 492.385,616.195 487.643,616.238 480.918,609.664 477.879,602.831 472.21,598.628 
		470.228,594.339 470.96,591.925 470.615,587.679 475.53,584.618 480.336,585.868 479,586.644 478.784,586.774 478.633,589.748 
		480.422,592.615 482.276,588.929 486.156,590.265 486.285,593.154 489.044,596.688 487.815,597.335 492.902,603.478 
		498.42,605.935 501.933,608.909 507.602,611.927 510.231,613.544 511.913,616.195 513.184,616.82 514.198,618.091 513.378,620.592 
		512.861,626.045 513.378,629.817 516.741,632.468 516.849,634.192 517.883,634.731 517.862,634.839 518.271,637.059 
		521.332,639.538 520.966,640.917 521.354,641.456 523.703,644.991 526.333,644.883 529.027,644.28 530.234,644.689 532.26,644.862 
		531.419,646.198 530.234,645.831 528.768,644.84 527.496,645.185 526.958,646.069 525.75,645.853 524.975,646.888 523.724,648.008 
		524.781,650.034 525.686,650.228 526.569,651.047 527.345,652.642 526.224,653.871 527.043,656.048 528.38,657.212 528.919,656.63 
		528.66,654.819 530.04,654.819 531.247,657.061 531.031,658.656 532.001,659.303 532.562,656.458 533.79,656.501 534.76,659.195 
		536.01,659.195 533.424,650.681 535.579,652.168 537.562,651.759 535.773,647.879 538.446,647.426 541.377,649.905 
		541.291,645.594 538.295,643.374 534.932,639.818 537.217,638.115 534.199,634.451 532.842,629.752 533.984,628.028 
		537.174,632.08 540.536,632.08 543.597,630.808 539.416,626.368 546.744,624.299 549.891,625.053 553.577,625.269 555.021,624.385 
		556.896,619.363 553.941,617.371 553.943,617.229 560.107,614.686 565.302,615.785 563.362,611.13 565.561,605.245 
		568.708,601.818 570.389,591.666 572.221,592.442 575.152,590.632 575.023,588.412 579.7,582.053 581.942,577.247 587.546,576.169 
		587.955,579.424 597.353,581.622 598.301,582.096 599.271,581.213 600.133,582.959 593.322,586.472 592.244,588.132 
		598.84,590.632 597.525,594.619 600.866,596.322 609.078,591.429 615.695,589.964 616.881,586.903 610.716,587.42 607.763,585.351 
		604.552,582.183 607.397,579.962 612.613,576.686 618.26,576.234 622.291,573.389 627.119,572.677 627.313,568.733 
		630.417,566.233 636.258,565.564 637.206,562.568 635.891,557.546 	"/>
</g>
</svg>
