<?xml version="1.0" encoding="iso-8859-1"?>
<!-- Generator: Adobe Illustrator 18.0.0, SVG Export Plug-In . SVG Version: 6.00 Build 0)  -->
<!DOCTYPE svg PUBLIC "-//W3C//DTD SVG 1.1//EN" "http://www.w3.org/Graphics/SVG/1.1/DTD/svg11.dtd">
<svg version="1.1" id="Layer_1" xmlns:amcharts="http://amcharts.com/ammap"
	 xmlns="http://www.w3.org/2000/svg" xmlns:xlink="http://www.w3.org/1999/xlink" x="0px" y="0px" width="974.143px"
	 height="699.92px" viewBox="2373.771 -90 974.143 699.92" style="enable-background:new 2373.771 -90 974.143 699.92;"
	 xml:space="preserve">
<defs>
	
	
		<amcharts:ammap  rightLongitude="190.122401" topLatitude="83.646363" projection="mercator" leftLongitude="-169.522279" bottomLatitude="-55.621433">
		</amcharts:ammap>
</defs>
<g>
	<polygon points="2835.786,398.423 2836.627,402.841 2842.942,408.79 2846.563,400.233 2844.645,394.845 	"/>
	<polygon points="2825.656,530.829 2827.66,524.6 2826.647,517.573 2822.746,520.698 2821.518,523.738 2822.919,529.191 	"/>
	<polygon points="2736.164,403.358 2739.418,398.315 2741.401,401.268 2739.203,406.01 2740.647,408.855 2747.975,410.687 
		2748.062,410.838 2752.114,417.196 2751.23,423.102 2742.242,422.197 2741.1,428.792 2744.419,434.138 2738.104,437.177 
		2739.806,441.056 2749.247,442.673 2749.29,442.673 2743.88,444.764 2735.021,454.765 2738.233,456.64 2742.479,453.04 
		2748.062,454.118 2752.049,449.678 2754.873,451.553 2765.154,448.945 2773.237,449.031 2778.668,444.009 2776.254,438.987 
		2779.336,436.121 2780.069,429.805 2772.741,427.909 2771.017,423.943 2767.288,412.282 2763.149,410.622 2757.761,398.143 
		2757.287,397.022 2751.036,396.332 2756.468,386.568 2758.041,377.472 2751.424,377.408 2745.26,378.959 2751.726,366.609 
		2744.483,367.493 2739.655,366.587 2734.957,375.877 2732.758,387.43 2735.819,393.013 	"/>
	<polygon points="2925.602,577.148 2921.097,576.631 2916.398,577.041 2913.1,574.54 2911.98,577.709 2919.351,579.153 
		2919.287,580.36 2927.994,579.735 2928.749,577.558 2925.451,578.442 	"/>
	<polygon points="2718.145,440.345 2728.857,434.569 2733.427,425.688 2732.435,418.446 2735.668,411.355 2729.202,404.91 
		2724.137,405.342 2725.387,410.946 2724.142,416.463 2724.115,416.463 2725.365,410.924 2724.115,405.32 2719.546,410.213 
		2711.333,418.296 2714.48,428.577 2709.588,438.88 	"/>
	<polygon points="2859.086,556.133 2852.922,556.974 2845.852,556.284 2845.011,560.207 2853.439,564.065 2856.521,564.884 
		2861.134,567.708 2862.405,563.85 2861.5,561.5 2863.677,555.508 	"/>
	<polygon points="2822.552,534.687 2819.233,534.277 2820.612,538.804 2820.849,548.244 2823.134,550.292 2825.591,547.706 
		2828.329,548.201 2829.169,537.834 2825.548,532.187 	"/>
	<path d="M2804.146,367.169l8.363,5.841l8.061-2.673l11.941-13.514l4.027,7.175l-0.018,0.046l4.591,16.165l5.065,12.523
		l1.918,10.152l7.005-0.496l3.427-8.514l7.328,1.056l3.427-10.26l2.306-19.054l6.294-2.716l5.539-13.428l-5.776-6.768l-4.311-8.772
		l4.418-18.127l11.661-11.51l9.613-11.057l-0.948-8.665l5.863-10.109l10.389-4.181l8.406,6.94l0.647,6.121l-4.052,2.996
		l-13.816,15.131l-5.475,8.492l-2.888,7.716l2.931,11.661l-1.336,12.329l5.841,4.031l3.513,6.617l9.829-2.543l10.626-4.462
		l10.971-0.97l12.932-15.971l5.604-7.436l2.285-6.682l-8.945-9.182l2.479-8.923l-5.453-10.475l4.073-12.415l-7.027-17.157
		l5.583-11.812l-9.268-10.755l0.884-11.639l2.565-12.049l-7.005-6.343l7.027,6.343l-2.565,12.049l4.871-1.552l10.281-6.876
		l-6.617-11.014l7.781-4.807l-18.903-13.45l-10.841,3.751l-11.014-0.819l-9.204,15.066l-9.937-0.948l-13.256,7.738l-16.618,21.317
		l-10.13,12.221l-14.527,29.658l-11.057,20.045l-11.941,14.204l-15.95,11.165l-5.561,8.363l1.918,28.581L2804.146,367.169z
		 M2871.264,239.247l0.051,0.001L2871.264,239.247L2871.264,239.247z"/>
	<polygon points="2905.815,42.459 2919.308,30.906 2910.6,24.396 2908.208,13.231 2895.685,19.224 2899.327,28.578 2895.146,35.949 
			"/>
	<polygon points="2849.473,25.991 2858.525,34.311 2853.051,44.269 2866.048,60.736 2873.333,59.702 2876.2,37.049 2881.502,31.682 
		2884.865,9.934 2900.082,-2.266 2880.188,-26.6 2872.557,-38.563 2863.677,-37.356 2861.392,-25.652 2852.792,-25.178 
		2849.473,-37.162 2833.006,-24.898 2837.704,0.515 	"/>
	<polygon points="2890.124,-31.364 2891.201,-22.052 2909.027,-16.535 2926.55,-20.436 2935.516,-38.8 2923.662,-51.301 
		2908.402,-60.44 2902.28,-49.469 2893.508,-58.263 2874.842,-48.09 2881.459,-31.967 	"/>
	<polygon points="3012.098,462.74 3012.033,460.003 3003.131,456.985 2999.597,457.071 2995.868,452.674 2991.234,454.161 
		2983.56,450.842 2983.69,448.967 2981.534,444.807 2976.706,444.354 2976.21,441.358 2977.719,439.375 2973.861,433.836 
		2967.589,434.784 2965.757,434.289 2964.226,436.53 2961.985,436.121 2960.498,429.805 2959.075,426.486 2960.239,425.538 
		2965.11,425.883 2967.459,423.684 2965.714,420.99 2961.64,419.201 2962.006,417.347 2959.549,415.472 2955.756,408.682 
		2957.049,405.837 2956.467,400.858 2950.561,398.315 2947.393,399.587 2946.531,396.936 2940.172,394.22 2938.211,387.775 
		2937.715,382.408 2934.805,379.843 2929.805,379.822 2924.61,375.64 2921.959,374.239 2916.808,376.244 2915.644,384.844 
		2910.794,385.059 2906.009,376.696 2900.319,380.533 2897.344,387.516 2897.129,395.729 2898.422,404.695 2890.081,408.1 
		2888.701,412.691 2882.86,412.562 2882.407,410.019 2876.394,408.251 2868.764,411.786 2859.345,416.571 2855.207,419.567 
		2852.361,416.313 2845.529,412.239 2842.145,415.062 2836.002,417.002 2836.066,413.338 2829.945,410.924 2829.837,406.872 
		2829.837,406.872 2828.199,401.72 2832.553,393.983 2834.342,395.168 2835.829,391.073 2832.553,389.435 2831.82,386.352 
		2833.609,382.731 2833.825,376.955 2828.954,380.123 2826.842,383.206 2821.518,383.895 2819.793,387.215 2818.78,390.189 
		2818.953,401.225 2821.41,407.087 2821.69,413.015 2823.069,416.873 2818.953,421.895 2817.832,419.653 2812.788,420.214 
		2811.603,422.369 2806.581,422.089 2798.325,426.292 2793.023,440.819 2789.919,443.492 2785.08,445.385 2785.07,445.346 
		2779.789,447.285 2777.979,455.066 2763.904,462.33 2758.192,458.343 2760.11,468.775 2749.958,466.425 2742.113,468.408 
		2742.716,475.025 2751.963,478.474 2756.425,482.979 2762.654,492.161 2761.511,509.145 2758.386,514.146 2758.398,514.184 
		2758.386,514.168 2748.622,513.909 2743.6,514.34 2737.177,512.918 2729.051,512.982 2721.658,511.473 2713.123,517.444 
		2715.58,521.022 2715.278,526.798 2715.537,529.514 2716.744,532.402 2716.895,535.786 2715.623,540.55 2715.192,543.718 
		2712.799,546.542 2712.303,551.628 2713.748,554.538 2716.463,555.25 2717.024,559.948 2716.097,565.854 2719.222,565.035 
		2722.412,566.091 2724.826,564.13 2730.474,565.294 2732.198,569.604 2734.418,572.126 2737.392,572.751 2739.698,569.928 
		2743.47,567.298 2749.247,567.428 2756.899,567.32 2761.188,561.522 2765.757,560.013 2767.051,555.056 2770.542,551.607 
		2768.193,547.188 2770.521,540.808 2774.25,536.433 2774.789,533.76 2782.526,532.079 2788.26,526.712 2787.936,521.992 
		2787.875,522.001 2787.915,521.97 2788.604,517.034 2797.399,514.362 2809.318,516.603 2814.793,511.926 2814.836,511.969 
		2817.358,511.366 2820.85,507.486 2823.63,506.343 2828.544,509.124 2831.562,510.094 2833.437,518.284 2837.554,523.005 
		2843.072,528.286 2847.792,531.907 2852.254,532.424 2854.862,535.635 2858.741,537.079 2860.531,540.485 2863.031,541.476 
		2864.884,545.421 2867.234,549.926 2865.919,551.585 2864.69,555.702 2864.669,558.03 2867.191,557.448 2870.424,550.852 
		2872.946,550.4 2873.657,546.348 2869.281,543.459 2871.825,538.373 2877.084,539.666 2880.446,543.33 2881.567,540.507 
		2880.942,539.041 2875.769,534.903 2871.329,532.488 2865.919,529.579 2867.622,527.984 2866.156,526.195 2861.414,526.238 
		2854.689,519.664 2851.65,512.831 2845.981,508.628 2843.999,504.339 2844.731,501.925 2844.386,497.679 2849.301,494.618 
		2854.107,495.868 2852.771,496.644 2852.555,496.774 2852.404,499.748 2854.193,502.615 2856.047,498.929 2859.927,500.265 
		2860.056,503.154 2862.815,506.688 2861.586,507.335 2866.673,513.478 2872.191,515.935 2875.704,518.909 2881.373,521.927 
		2884.002,523.544 2885.684,526.195 2886.955,526.82 2887.969,528.091 2887.149,530.592 2886.632,536.045 2887.149,539.817 
		2890.512,542.468 2890.62,544.192 2891.654,544.731 2891.633,544.839 2892.042,547.059 2895.103,549.538 2894.737,550.917 
		2895.125,551.456 2897.474,554.991 2900.104,554.883 2902.798,554.28 2904.005,554.689 2906.031,554.862 2905.19,556.198 
		2904.005,555.831 2902.539,554.84 2901.267,555.185 2900.729,556.069 2899.521,555.853 2898.746,556.888 2897.495,558.008 
		2898.552,560.034 2899.457,560.228 2900.34,561.047 2901.116,562.642 2899.995,563.871 2900.814,566.048 2902.151,567.212 
		2902.69,566.63 2902.431,564.819 2903.811,564.819 2905.018,567.061 2904.802,568.656 2905.772,569.303 2906.333,566.458 
		2907.561,566.501 2908.531,569.195 2909.781,569.195 2907.195,560.681 2909.35,562.168 2911.333,561.759 2909.544,557.879 
		2912.217,557.426 2915.148,559.905 2915.062,555.594 2912.066,553.374 2908.703,549.818 2910.988,548.115 2907.97,544.451 
		2906.613,539.752 2907.755,538.028 2910.945,542.08 2914.307,542.08 2917.368,540.808 2913.187,536.368 2920.515,534.299 
		2923.662,535.053 2927.348,535.269 2928.792,534.385 2930.667,529.363 2927.712,527.371 2927.714,527.229 2933.878,524.686 
		2939.073,525.785 2937.133,521.13 2939.332,515.245 2942.479,511.818 2944.16,501.666 2945.992,502.442 2948.923,500.632 
		2948.794,498.412 2953.471,492.053 2955.713,487.247 2961.317,486.169 2961.726,489.424 2971.124,491.622 2972.072,492.096 
		2973.042,491.213 2973.904,492.959 2967.093,496.472 2966.015,498.132 2972.611,500.632 2971.296,504.619 2974.637,506.322 
		2982.849,501.429 2989.466,499.964 2990.652,496.903 2984.487,497.42 2981.534,495.351 2978.323,492.183 2981.168,489.962 
		2986.384,486.686 2992.031,486.234 2996.062,483.389 3000.89,482.677 3001.084,478.733 3004.188,476.233 3010.029,475.564 
		3010.977,472.568 3009.662,467.546 	"/>
</g>
</svg>
