<?xml version="1.0" encoding="iso-8859-1"?>
<!-- Generator: Adobe Illustrator 18.0.0, SVG Export Plug-In . SVG Version: 6.00 Build 0)  -->
<!DOCTYPE svg PUBLIC "-//W3C//DTD SVG 1.1//EN" "http://www.w3.org/Graphics/SVG/1.1/DTD/svg11.dtd">
<svg version="1.1" id="Layer_1" xmlns:amcharts="http://amcharts.com/ammap"
	 xmlns="http://www.w3.org/2000/svg" xmlns:xlink="http://www.w3.org/1999/xlink" x="0px" y="0px" width="974.143px"
	 height="699.92px" viewBox="0 0 974.143 699.92" style="enable-background:new 0 0 974.143 699.92;" xml:space="preserve">
<defs>
	
	
		<amcharts:ammap  rightLongitude="190.122401" topLatitude="83.646363" projection="mercator" leftLongitude="-169.522279" bottomLatitude="-55.621433">
		</amcharts:ammap>
</defs>
<polygon points="932.044,293.482 926.466,291.359 926.132,279.826 914.974,273.997 910.269,265.962 904.524,258.967 
	915.099,246.768 914.142,238.025 905.315,235.735 904.399,227.033 900.569,216.042 905.565,208.422 900.485,206.382 
	903.691,196.182 908.437,178.487 907.396,166.371 898.695,165.872 885.372,153.006 876.046,151.383 863.139,143.93 854.812,142.556 
	849.691,145.304 841.905,144.888 833.62,153.298 823.336,156.129 822.212,159.543 803.976,163.373 787.405,160.876 779.286,153.548 
	768.211,150.509 764.506,139.641 761.633,140.349 754.347,132.605 758.344,125.194 754.93,120.739 750.558,121.863 736.777,132.938 
	732.53,133.355 724.537,131.398 718.624,124.487 716.792,118.782 708.798,123.071 712.421,140.224 710.172,144.763 716.542,156.545 
	710.964,159.002 706.842,155.296 693.269,153.381 688.273,155.671 674.991,157.919 668.662,157.67 655.256,163.124 645.638,163.165 
	639.435,160.459 626.57,164.497 622.781,161.666 622.115,169.743 618.992,172.908 615.869,176.03 613.038,181.901 614.121,192.768 
	613.871,193.268 608.084,203.176 603.92,214.543 603.587,214.668 601.922,218.165 599.549,228.574 596.468,234.944 597.259,235.735 
	593.886,240.231 588.141,243.645 579.023,242.854 569.697,239.649 566.99,244.104 563.784,237.358 555.499,235.652 545.174,236.776 
	540.385,240.648 531.392,244.936 525.98,242.854 514.405,238.816 503.164,235.235 487.634,235.443 484.803,230.947 473.186,229.323 
	469.481,226.991 465.151,226.95 461.154,220.788 445.375,217.957 437.339,219.83 428.929,226.284 425.264,232.945 427.971,243.396 
	422.392,249.599 416.689,253.096 404.24,246.393 387.794,240.731 377.302,238.066 371.848,225.909 356.36,219.789 346.617,217.457 
	341.704,218.664 328.006,213.877 323.551,211.712 320.595,205.091 314.558,204.842 312.351,197.223 320.054,190.103 
	321.594,177.779 317.556,174.24 317.597,167.578 323.467,160.459 322.634,157.67 312.726,163.041 313.059,155.671 304.899,153.922 
	292.158,159.793 284.206,160.667 279.46,157.295 266.97,157.42 255.978,163.124 250.107,160.959 230.789,162.166 211.012,164.747 
	199.771,169.119 192.401,175.073 179.743,177.571 168.545,185.357 163.465,185.19 151.391,182.068 140.275,183.067 133.238,176.988 
	124.662,176.905 120.956,185.69 113.17,200.304 104.509,206.091 92.811,212.461 85.316,221.787 83.735,229.031 79.28,240.773 
	82.194,257.552 72.451,268.71 66.623,272.249 57.421,281.283 46.555,282.741 41.142,287.404 92.728,287.737 92.728,288.611 
	92.478,291.151 136.403,322.502 175.789,350.189 215.176,377.46 217.924,383.247 225.21,386.786 230.622,388.785 230.747,396.612 
	243.695,395.405 260.141,389.909 293.949,365.552 333.96,341.612 352.404,347.067 358.982,353.978 367.226,349.315 379.009,342.403 
	425.598,366.426 472.146,390.159 472.729,438.497 462.653,437.664 457.324,446.532 454.243,453.943 456.658,456.733 
	452.827,460.396 454.16,465.309 451.12,470.306 449.955,474.677 454.076,473.969 456.491,478.549 456.616,485.461 460.905,488.916 
	460.78,491.789 462.112,496.869 468.857,504.238 468.857,509.026 466.983,513.939 467.733,517.561 471.771,520.934 472.729,521.516 
	480.681,526.096 487.051,530.801 487.176,534.632 495.004,540.71 499.875,545.748 502.831,552.742 511.574,557.364 513.448,561.069 
	520.484,570.687 525.73,572.061 528.853,570.104 534.265,570.896 540.76,568.439 543.55,573.393 553.834,581.138 558.622,577.931 
	566.033,580.555 575.442,577.848 583.644,577.848 590.847,572.519 598.008,565.566 605.919,557.905 599.049,545.207 593.72,542.5 
	591.638,537.837 585.726,532.133 578.565,531.301 582.562,524.597 588.724,524.306 590.472,520.725 590.347,511.566 
	590.347,510.192 593.803,497.868 599.299,494.537 600.506,489.708 605.502,480.673 612.539,474.76 617.285,463.061 619.159,452.777 
	617.909,447.989 622.947,430.295 624.072,422.259 627.736,418.512 636.354,416.513 642.266,409.561 635.854,405.064 
	631.441,402.024 627.153,387.369 625.445,374.629 627.985,372.38 624.238,360.139 622.198,357.559 608.583,346.276 608.209,338.073 
	610.54,335.867 600.048,321.711 596.301,314.466 592.013,307.472 583.186,287.154 576.025,273.914 571.195,259.884 572.361,258.676 
	580.688,277.703 585.976,283.615 589.848,287.862 592.596,285.53 595.76,278.702 598.258,268.71 601.547,263.338 601.922,265.254 
	600.506,270.583 599.965,275.205 598.175,282.449 603.962,282.408 609.916,291.4 617.035,301.892 621.573,311.552 624.987,314.425 
	628.235,321.087 627.611,323.959 631.441,331.287 637.769,333.91 643.224,338.865 649.927,352.853 649.427,360.306 650.759,368.967 
	658.503,380.832 663.708,382.831 671.785,391.324 675.074,401.359 681.32,411.601 687.315,415.931 688.231,420.802 691.77,424.466 
	693.269,429.628 693.768,434.874 692.353,437.206 693.56,442.702 691.229,443.285 694.601,448.239 696.891,457.066 698.765,460.605 
	698.431,467.141 701.471,474.094 709.548,474.677 713.295,473.095 719.082,473.345 720.873,470.306 723.954,469.431 
	726.493,466.308 729.449,465.643 739.233,465.018 746.686,462.728 753.514,457.732 757.011,458.44 762.133,457.815 772.583,449.363 
	791.235,443.743 802.852,438.663 803.143,434.541 805.391,429.212 813.843,425.923 813.841,425.918 819.214,425.257 
	827.041,421.176 833.495,422.301 839.156,418.928 839.115,414.015 843.695,410.934 850.94,411.017 853.604,408.436 854.728,402.482 
	862.015,397.903 867.385,397.944 868.468,396.445 867.052,388.201 868.926,381.956 871.341,379 876.628,379.666 881,371.173 
	885.872,367.051 887.745,363.554 891.992,356.101 892.034,353.311 887.87,351.729 884.706,347.566 879.417,340.321 872.507,338.031 
	863.93,336.366 857.393,331.744 852.198,323.127 852.229,323.127 850.647,312.968 852.188,310.636 853.312,305.265 851.855,304.141 
	847.215,309.912 847.215,309.912 841.072,316.506 832.329,324.75 824.334,333.368 817.299,332.994 807.64,332.661 798.521,334.66 
	798.062,331.162 795.982,331.786 793.775,326.915 796.315,319.379 796.107,311.844 792.568,307.805 789.403,309.22 786.239,315.965 
	787.03,325.292 785.281,322.169 783.698,317.964 780.369,314.341 778.87,310.011 780.036,305.723 779.328,300.352 771.375,294.898 
	769.376,290.277 763.632,287.32 759.052,275.954 755.303,265.92 756.344,262.881 753.931,257.01 760.842,257.635 765.214,252.389 
	772.625,256.844 778.912,254.679 787.53,272.457 795.316,284.989 806.557,288.736 818.34,298.77 832.62,303.058 844.362,296.771 
	853.354,294.44 858.934,296.771 863.93,312.634 877.086,314.341 889.827,317.298 911.768,321.17 916.182,306.181 933.001,299.478 
	"/>
</svg>
