<?xml version="1.0" encoding="iso-8859-1"?>
<!-- Generator: Adobe Illustrator 18.0.0, SVG Export Plug-In . SVG Version: 6.00 Build 0)  -->
<!DOCTYPE svg PUBLIC "-//W3C//DTD SVG 1.1//EN" "http://www.w3.org/Graphics/SVG/1.1/DTD/svg11.dtd">
<svg version="1.1" id="Layer_1" xmlns:amcharts="http://amcharts.com/ammap"
	 xmlns="http://www.w3.org/2000/svg" xmlns:xlink="http://www.w3.org/1999/xlink" x="0px" y="0px" width="974.143px"
	 height="699.92px" viewBox="1299.629 1509.84 974.143 699.92" style="enable-background:new 1299.629 1509.84 974.143 699.92;"
	 xml:space="preserve">
<defs>
	
	
		<amcharts:ammap  rightLongitude="190.122401" topLatitude="83.646363" projection="mercator" leftLongitude="-169.522279" bottomLatitude="-55.621433">
		</amcharts:ammap>
</defs>
<polygon points="2231.672,1803.322 2226.094,1801.199 2225.76,1789.666 2214.602,1783.837 2209.897,1775.802 2204.152,1768.807 
	2214.727,1756.608 2213.77,1747.865 2204.943,1745.575 2204.027,1736.873 2200.197,1725.882 2205.193,1718.262 2200.113,1716.222 
	2203.319,1706.022 2208.065,1688.327 2207.025,1676.211 2198.323,1675.712 2185,1662.846 2175.674,1661.223 2162.767,1653.77 
	2154.44,1652.396 2149.319,1655.144 2141.533,1654.728 2133.248,1663.138 2122.964,1665.969 2121.84,1669.383 2103.604,1673.213 
	2087.033,1670.716 2078.914,1663.388 2067.839,1660.349 2064.134,1649.481 2061.261,1650.189 2053.975,1642.445 2057.972,1635.034 
	2054.558,1630.579 2050.186,1631.703 2036.405,1642.778 2032.158,1643.195 2024.165,1641.238 2018.252,1634.327 2016.42,1628.622 
	2008.426,1632.911 2012.049,1650.064 2009.8,1654.603 2016.17,1666.385 2010.592,1668.842 2006.47,1665.136 1992.897,1663.221 
	1987.901,1665.511 1974.619,1667.759 1968.29,1667.51 1954.884,1672.964 1945.266,1673.005 1939.063,1670.299 1926.198,1674.337 
	1922.409,1671.506 1921.743,1679.583 1918.62,1682.748 1915.497,1685.87 1912.666,1691.741 1913.749,1702.608 1913.499,1703.108 
	1907.712,1713.016 1903.548,1724.383 1903.215,1724.508 1901.55,1728.005 1899.177,1738.414 1896.096,1744.784 1896.887,1745.575 
	1893.514,1750.071 1887.769,1753.485 1878.651,1752.694 1869.325,1749.489 1866.618,1753.944 1863.412,1747.198 1855.127,1745.492 
	1844.802,1746.616 1840.013,1750.488 1831.02,1754.776 1825.608,1752.694 1814.033,1748.656 1802.792,1745.075 1787.262,1745.283 
	1784.431,1740.787 1772.815,1739.163 1769.109,1736.831 1764.779,1736.79 1760.782,1730.628 1745.003,1727.797 1736.967,1729.67 
	1728.557,1736.124 1724.893,1742.785 1727.599,1753.236 1722.02,1759.439 1716.317,1762.936 1703.868,1756.233 1687.422,1750.571 
	1676.93,1747.906 1671.476,1735.749 1655.988,1729.629 1646.245,1727.297 1641.332,1728.504 1627.634,1723.717 1623.179,1721.552 
	1620.223,1714.931 1614.186,1714.682 1611.979,1707.063 1619.682,1699.943 1621.222,1687.619 1617.184,1684.08 1617.225,1677.418 
	1623.096,1670.299 1622.263,1667.51 1612.354,1672.881 1612.687,1665.511 1604.527,1663.762 1591.786,1669.633 1583.834,1670.507 
	1579.088,1667.135 1566.598,1667.26 1555.606,1672.964 1549.735,1670.799 1530.417,1672.006 1510.64,1674.587 1499.399,1678.959 
	1492.029,1684.913 1479.372,1687.411 1468.173,1695.197 1463.093,1695.03 1451.019,1691.908 1439.903,1692.907 1432.866,1686.828 
	1424.29,1686.745 1420.584,1695.53 1412.798,1710.144 1404.138,1715.931 1392.439,1722.301 1384.945,1731.627 1383.363,1738.871 
	1378.908,1750.613 1381.822,1767.392 1372.079,1778.55 1366.251,1782.089 1357.049,1791.123 1346.183,1792.581 1340.77,1797.244 
	1392.356,1797.577 1392.356,1798.451 1392.106,1800.991 1436.031,1832.342 1475.417,1860.029 1514.804,1887.3 1517.552,1893.087 
	1524.838,1896.626 1530.25,1898.625 1530.375,1906.452 1543.323,1905.245 1559.769,1899.749 1593.577,1875.392 1633.588,1851.452 
	1652.032,1856.907 1658.61,1863.818 1666.854,1859.155 1678.637,1852.243 1725.226,1876.266 1771.774,1899.999 1772.357,1948.337 
	1762.281,1947.504 1756.952,1956.372 1753.871,1963.783 1756.286,1966.573 1752.455,1970.236 1753.788,1975.149 1750.748,1980.146 
	1749.583,1984.517 1753.704,1983.809 1756.119,1988.389 1756.244,1995.301 1760.533,1998.756 1760.408,2001.629 1761.74,2006.709 
	1768.485,2014.078 1768.485,2018.866 1766.611,2023.779 1767.361,2027.401 1771.399,2030.774 1772.357,2031.356 1780.309,2035.936 
	1786.679,2040.641 1786.804,2044.472 1794.632,2050.55 1799.503,2055.588 1802.459,2062.582 1811.202,2067.204 1813.076,2070.909 
	1820.112,2080.527 1825.358,2081.901 1828.481,2079.944 1833.893,2080.736 1840.388,2078.279 1843.178,2083.233 1853.462,2090.978 
	1858.25,2087.771 1865.661,2090.395 1875.07,2087.688 1883.272,2087.688 1890.475,2082.359 1897.636,2075.406 1905.547,2067.745 
	1898.677,2055.047 1893.348,2052.34 1891.266,2047.677 1885.354,2041.973 1878.193,2041.141 1882.19,2034.437 1888.352,2034.146 
	1890.1,2030.565 1889.975,2021.406 1889.975,2020.032 1893.431,2007.708 1898.927,2004.377 1900.134,1999.548 1905.13,1990.513 
	1912.167,1984.6 1916.913,1972.901 1918.787,1962.617 1917.537,1957.829 1922.575,1940.135 1923.7,1932.099 1927.364,1928.352 
	1935.982,1926.353 1941.894,1919.401 1935.482,1914.904 1931.069,1911.864 1926.781,1897.209 1925.073,1884.469 1927.613,1882.22 
	1923.866,1869.979 1921.826,1867.399 1908.211,1856.116 1907.837,1847.913 1910.168,1845.707 1899.676,1831.551 1895.929,1824.306 
	1891.641,1817.312 1882.814,1796.994 1875.653,1783.754 1870.823,1769.724 1871.989,1768.516 1880.316,1787.543 1885.604,1793.455 
	1889.476,1797.702 1892.224,1795.37 1895.388,1788.542 1897.886,1778.55 1901.175,1773.178 1901.55,1775.094 1900.134,1780.423 
	1899.593,1785.045 1897.803,1792.289 1903.59,1792.248 1909.544,1801.24 1916.663,1811.732 1921.201,1821.392 1924.615,1824.265 
	1927.863,1830.927 1927.239,1833.799 1931.069,1841.127 1937.397,1843.75 1942.852,1848.705 1949.555,1862.693 1949.055,1870.146 
	1950.387,1878.807 1958.131,1890.672 1963.336,1892.671 1971.413,1901.164 1974.702,1911.199 1980.948,1921.441 1986.943,1925.771 
	1987.859,1930.642 1991.398,1934.306 1992.897,1939.468 1993.396,1944.714 1991.981,1947.046 1993.188,1952.542 1990.857,1953.125 
	1994.229,1958.079 1996.519,1966.906 1998.393,1970.445 1998.059,1976.981 2001.099,1983.934 2009.176,1984.517 2012.923,1982.935 
	2018.71,1983.185 2020.501,1980.146 2023.582,1979.271 2026.121,1976.148 2029.077,1975.483 2038.861,1974.858 2046.314,1972.568 
	2053.142,1967.572 2056.64,1968.28 2061.761,1967.655 2072.211,1959.203 2090.863,1953.583 2102.48,1948.503 2102.771,1944.381 
	2105.019,1939.052 2113.471,1935.763 2113.469,1935.758 2118.842,1935.097 2126.669,1931.016 2133.123,1932.141 2138.785,1928.768 
	2138.743,1923.855 2143.323,1920.774 2150.568,1920.857 2153.232,1918.276 2154.356,1912.322 2161.643,1907.743 2167.013,1907.784 
	2168.096,1906.285 2166.68,1898.041 2168.554,1891.796 2170.969,1888.84 2176.256,1889.506 2180.628,1881.013 2185.5,1876.891 
	2187.373,1873.394 2191.62,1865.941 2191.662,1863.151 2187.498,1861.569 2184.334,1857.406 2179.046,1850.161 2172.135,1847.871 
	2163.558,1846.206 2157.021,1841.584 2151.826,1832.967 2151.858,1832.967 2150.276,1822.808 2151.817,1820.476 2152.941,1815.105 
	2151.484,1813.981 2146.843,1819.752 2146.843,1819.752 2140.7,1826.346 2131.957,1834.59 2123.963,1843.208 2116.927,1842.834 
	2107.268,1842.501 2098.149,1844.5 2097.691,1841.002 2095.61,1841.626 2093.403,1836.755 2095.943,1829.219 2095.735,1821.684 
	2092.196,1817.645 2089.031,1819.06 2085.867,1825.805 2086.658,1835.132 2084.91,1832.009 2083.327,1827.804 2079.997,1824.181 
	2078.498,1819.851 2079.664,1815.563 2078.956,1810.192 2071.004,1804.738 2069.005,1800.117 2063.26,1797.16 2058.68,1785.794 
	2054.932,1775.76 2055.973,1772.721 2053.559,1766.85 2060.47,1767.475 2064.842,1762.229 2072.253,1766.684 2078.54,1764.519 
	2087.158,1782.297 2094.944,1794.829 2106.185,1798.576 2117.968,1808.61 2132.248,1812.898 2143.99,1806.611 2152.983,1804.28 
	2158.562,1806.611 2163.558,1822.474 2176.714,1824.181 2189.455,1827.138 2211.396,1831.01 2215.81,1816.021 2232.63,1809.318 "/>
</svg>
