<?xml version="1.0" encoding="iso-8859-1"?>
<!-- Generator: Adobe Illustrator 18.0.0, SVG Export Plug-In . SVG Version: 6.00 Build 0)  -->
<!DOCTYPE svg PUBLIC "-//W3C//DTD SVG 1.1//EN" "http://www.w3.org/Graphics/SVG/1.1/DTD/svg11.dtd">
<svg version="1.1" id="Layer_1" xmlns:amcharts="http://amcharts.com/ammap"
	 xmlns="http://www.w3.org/2000/svg" xmlns:xlink="http://www.w3.org/1999/xlink" x="0px" y="0px" width="974.143px"
	 height="699.92px" viewBox="2373.771 3109.68 974.143 699.92" style="enable-background:new 2373.771 3109.68 974.143 699.92;"
	 xml:space="preserve">
<defs>
	
	
		<amcharts:ammap  rightLongitude="190.122401" topLatitude="83.646363" projection="mercator" leftLongitude="-169.522279" bottomLatitude="-55.621433">
		</amcharts:ammap>
</defs>
<g>
	<polygon points="2910.881,3696.748 2908.973,3697.11 2909.262,3698.772 2913.686,3698.05 2913.556,3696.878 	"/>
	<polygon points="2912.183,3704.18 2911.301,3706.999 2912.819,3708.286 2913.845,3710.83 2914.843,3710.614 2914.814,3708.04 
		2913.397,3704.353 	"/>
	<polygon points="2916.317,3701.201 2917.011,3698.006 2913.802,3695.968 2913.816,3696.488 2915.638,3698.266 2915.566,3700.623 	
		"/>
	<polygon points="2847.455,3346.059 2849.667,3340.073 2848.192,3335.071 2844.65,3329.404 2838.823,3333.77 2836.669,3340.883 
		2841.585,3344.917 	"/>
	<polygon points="2871.802,3349.095 2880.129,3348.835 2891.754,3346.507 2896.944,3348.358 2902.987,3345.091 2905.517,3340.984 
		2904.606,3334.449 2900.269,3328.334 2893.677,3327.177 2885.421,3328.58 2878.973,3332.107 2873.06,3330.748 2867.594,3330.025 
		2865.021,3326.122 2860.366,3322.348 2861.291,3315.944 2857.792,3310.189 2849.811,3310.233 2845.315,3304.464 2836.958,3303.307 
		2835.426,3310.681 2840.125,3316.088 2848.51,3318.185 2852.573,3325.543 2853.064,3333.64 2854.467,3342.3 2865.238,3347.245 	"/>
	<polygon points="2847.007,3382.348 2851.358,3372.329 2856.187,3369.654 2862.245,3357.018 2854.496,3353.447 2846.052,3352.927 
		2842.033,3356.931 2839.908,3363.047 2839.85,3370.016 2842.38,3381.857 	"/>
	<polygon points="2806.698,3273.886 2802.78,3279.944 2811.802,3280.695 2818.467,3287.115 2825.089,3289.283 2823.513,3281.071 
		2820.419,3271.341 2809.46,3263.606 2801.508,3260.657 2801.797,3268.883 	"/>
	<polygon points="2784.592,3275.447 2779.315,3271.254 2777.146,3270.3 2772.982,3276.488 2772.91,3279.38 2779.648,3279.394 	"/>
	<polygon points="2782.481,3293.302 2783.826,3287.534 2778.115,3284.469 2772.202,3286.479 2768.92,3292.637 2774.934,3298.724 	
		"/>
	<polygon points="2831.378,3285.857 2834.674,3290.368 2840.674,3286.363 2841.773,3279.177 2836.929,3272.064 2834.573,3270.676 
		2829.325,3269.837 2829.643,3278.368 	"/>
	<polygon points="2848.741,3296.657 2849.219,3294.503 2846.37,3290.96 2838.202,3290.686 2839.286,3296.006 2846.876,3297.206 	"/>
	<polygon points="2844.144,3259.081 2851.561,3258.907 2848.351,3264.69 2848.293,3272.353 2852.645,3280.681 2861.045,3283.24 
		2868.216,3281.809 2875.706,3266.295 2881.272,3259.862 2876.385,3252.676 2873.19,3237.279 2866.539,3232.667 2859.715,3227.346 
		2854.539,3213.524 2845.113,3214.883 2846.891,3220.883 2842.741,3222.69 2839.937,3230.382 2837.132,3241.168 2839.705,3251.664 	
		"/>
	<polygon points="2901.296,3364.536 2905.749,3371.91 2906.92,3372.734 2911.358,3370.898 2915.725,3371.187 2920.033,3371.592 
		2919.672,3367.775 2912.674,3359.997 2903.392,3358.435 2901.44,3359.404 	"/>
	<polygon points="2906.24,3491.1 2907.831,3486.589 2906.804,3484.811 2905.142,3484.623 2903.58,3487.225 2903.392,3487.818 
		2904.462,3490.377 	"/>
	<polygon points="2924.24,3436.146 2924.703,3434.686 2924.66,3430.103 2921.493,3427.095 2917.778,3428.614 2916.057,3434.642 
		2917.069,3439.789 2921.609,3439.269 	"/>
	<polygon points="2904.419,3472.637 2901.527,3469.587 2898.549,3470.31 2898.187,3465.886 2893.546,3462.936 2889.108,3459.654 
		2886.751,3457.124 2884.684,3458.614 2883.932,3454.334 2880.997,3453.539 2879.609,3462.401 2879.089,3469.789 2875.561,3474.329 
		2881.055,3473.462 2882.443,3478.739 2888.211,3474.069 2892.231,3469.182 2894.5,3473.317 2900.804,3475.5 	"/>
	<polygon points="2888.66,3484.03 2889.542,3486.387 2892.404,3486.589 2897.146,3481.76 2897.233,3480.04 2891.667,3479.953 	"/>
	<polygon points="2953.85,3406.132 2950.322,3401.288 2940.534,3396.445 2936.313,3388.421 2928.78,3391.298 2928.26,3385.717 
		2922.679,3379.471 2913.686,3372.662 2909.855,3378.025 2901.831,3381.871 2902.438,3373.11 2895.484,3358.58 2885.204,3364.449 
		2881.46,3375.582 2878.264,3367.023 2881.243,3357.813 2870.775,3361.645 2866.611,3367.413 2863.503,3379.587 2864.79,3392.671 
		2870.544,3392.729 2866.308,3398.396 2869.677,3402.676 2876.255,3404.483 2884.828,3407.982 2899.575,3410.614 2906.92,3409.11 
		2909.089,3405.611 2912.284,3409.645 2915.855,3410.31 2920.149,3417.481 2917.546,3420.344 2925.759,3424.146 2931.961,3429.466 
		2933.522,3433.153 2934.635,3437.838 2929.387,3447.857 2927.97,3452.83 2929.33,3456.329 2920.987,3457.573 2913.368,3457.746 
		2910.693,3464.787 2914.12,3468.011 2925.845,3466.522 2925.787,3463.789 2931.686,3468.344 2937.729,3473.086 2936.312,3475.645 
		2941.228,3480.011 2949.932,3485.115 2960.92,3488.57 2960.255,3485.548 2956.033,3480.242 2950.308,3472.479 2960.472,3479.707 
		2965.59,3482.107 2966.992,3475.688 2964.361,3466.58 2962.684,3464.078 2957.175,3459.698 2952.91,3454.045 2953.416,3448.348 
		2958.679,3447.047 2965.055,3456.589 2970.043,3460.71 2977.156,3449.332 2978.414,3442.204 2972.038,3441.524 2966.211,3431.837 
		2959.778,3429.466 2950.236,3422.281 2957.681,3417.033 	"/>
	<polygon points="2863.503,3213.467 2866.886,3224.006 2874.057,3232.507 2888.24,3230.931 2897.363,3233.78 2891.031,3242.527 
		2887.835,3239.953 2876.761,3238.927 2878.481,3250.941 2884.207,3259.674 2883.05,3267.192 2875.865,3272.194 2872.583,3280.103 
		2879.161,3283.934 2884.684,3296.295 2873.84,3288.054 2871.368,3289.413 2873.363,3302.975 2865.874,3307.066 2866.38,3315.524 
		2874.043,3316.435 2880.072,3318.517 2891.985,3315.857 2902.583,3320.584 2913.412,3310.189 2913.325,3305.823 2906.399,3306.517 
		2905.836,3302.411 2911.503,3296.874 2913.426,3289.428 2919.686,3283.89 2923.532,3277.009 2920.178,3266.743 2922.983,3262.912 
		2917.402,3260.18 2929.677,3257.823 2932.264,3253.269 2940.621,3249.51 2947.561,3230.035 2954.168,3222.893 2963.739,3206.816 
		2954.92,3206.96 2958.592,3200.744 2968.395,3194.975 2978.284,3182.107 2978.457,3173.823 2971.04,3165.091 2962.337,3160.854 
		2951.508,3158.223 2942.732,3156.069 2933.956,3153.9 2922.245,3159.654 2920.091,3155.997 2907.701,3157.413 2900.428,3161.129 
		2895.079,3166.406 2891.999,3183.38 2887.575,3174.69 2882.544,3173.042 2876.587,3184.565 2868.635,3189.409 2863.908,3190.363 
		2857.879,3195.915 2858.761,3205.529 	"/>
	<polygon points="2751.975,3336.257 2757.643,3339.076 2775.961,3337.197 2767.546,3344.093 2768.067,3349.052 2774.226,3348.705 
		2784.448,3342.083 2798.182,3339.669 2800.655,3332.122 2799.946,3324.069 2795.696,3323.346 2792.081,3326.136 2790.491,3320.165 
		2789.117,3311.924 2784.925,3309.871 2781.209,3316.247 2787.007,3332.223 2779.922,3330.994 2772.722,3321.177 2761.315,3315.394 
		2757.498,3320.194 	"/>
	<polygon points="2819.797,3407.302 2812.481,3401.621 2805.672,3395.534 2804.414,3386.599 2801.869,3373.703 2797.33,3368.151 
		2793.296,3365.91 2789.725,3367.963 2792.602,3381.828 2790.563,3387.221 2787.252,3374.238 2783.551,3369.741 2778.968,3376.695 
		2773.33,3369.813 2764.308,3373.963 2766.332,3367.515 2762.183,3364.811 2751.325,3373.254 2748.505,3378.618 2745.108,3388.406 
		2752.192,3391.76 2758.452,3391.587 2749.055,3396.589 2751.195,3401.115 2756.949,3401.36 2765.609,3400.392 2773.445,3403.226 
		2768.154,3405.307 2762.443,3404.772 2756.182,3406.811 2753.479,3408.069 2758.467,3417.25 2762.067,3415.977 2767.604,3419.086 
		2769.802,3424.363 2777.016,3423.307 2787.281,3421.63 2794.886,3417.799 2799.599,3417.105 2806.568,3420.17 2813.898,3421.934 
		2815.257,3417.799 2812.669,3413.389 2819.32,3412.464 	"/>
	<polygon points="2830.987,3405.886 2828.154,3411.004 2824.583,3414.604 2830.12,3419.722 2833.416,3418.493 2838.881,3421.905 
		2841.397,3417.958 2838.925,3413.577 2837.71,3411.365 2835.281,3409.254 	"/>
	<polygon points="2805.527,3363.307 2802.448,3360.17 2797.011,3360.748 2795.638,3362.743 2801.956,3372.502 	"/>
	<polygon points="2835.44,3362.599 2834.385,3358.435 2827.156,3360.257 2822.327,3357.206 2817.527,3364.146 2821.995,3373.225 
		2813.725,3371.534 2813.638,3375.886 2823.715,3386.078 2826.52,3390.965 2830.424,3392.021 2837.074,3387.091 2837.797,3375.221 
		2831.667,3369.336 	"/>
	<polygon points="2824.539,3341.36 2831.219,3339.756 2833.069,3327.828 2832.939,3319.225 2829.845,3311.187 2829.527,3313.5 
		2823.831,3312.488 2817.729,3318.401 2813.363,3317.866 2813.624,3330.763 2820.274,3329.505 2820.187,3338.859 	"/>
	<polygon points="2978.486,3580.088 2974.337,3577.486 2969.002,3575.91 2967.599,3576.445 2971.373,3579.394 2976.621,3581.332 
		2978.587,3581.216 	"/>
	<path d="M2983.821,3593.895l-4.062,6.593l-6.694,0.839l-5.263-2.906l-1.33-4.439l-1.287-6.448l3.831-4.092l-3.585-3.022
		l-6.058,0.622l-8.501,5.104l-6.506,7.879l-3.441,0.969l4.67-5.494l5.841-8.053l5.161-2.747l3.397-4.496l4.193-0.434l6.087,0.043
		l8.675,1.33l6.853-1.026l5.104-5.234l6.68-2.299l2.906-2.284l2.949-2.472l-0.289-7.504l-1.634-2.559l-3.152-0.911l-1.605-5.855
		l-2.602-2.241l-6.463-1.822l-3.644-4.077l-5.393-4.092l1.634-4.626l-4.482-9.051l-5.277-9.961l-3.152-7.2l-2.689,3.773
		l-3.875,8.747l-5.87,4.294l-2.935-4.569l-3.701-1.229l-1.345-10.106l0.116-6.94l-7.229-0.636l-1.229-3.282l-4.988-4.973
		l-3.773-2.949l-3.354,2.284l-4.164-0.839l-6.954-2.385l-2.819,2.024l1.359,13.272l1.764,7.402l-4.786,8.313l4.93,5.812l2.747,6.419
		l0.333,4.945l-2.241,5.06l-4.598,5.002l-6.491,3.296l2.863,3.658l2.111,10.699l-2.198,6.766l-3.123,2.111l-6.029-6.188
		l-2.935-7.475l-1.258-6.882l0.665-6.058l-4.41-0.68l-6.694-0.405l-4.294-3.007l-5.075-1.981l-2.906-3.441l-4.048-2.805
		l-7.532-3.224l-5.667,1.475l-1.894-5.711l-1.822-7.214l-5.957-1.301l0.217-9.268l1.576-6.477l4.395-9.542l4.959-7.084l4.713-1.113
		l0.275-5.855l3.195-3.875l5.798-0.607l4.699-6.347l1.186-4.193l3.904-8.284l1.214-5.06l4.193,3.051l5.638-1.562l7.938-7.171
		l0.521-5.118l-2.863-5.754l3.022-5.87l-0.246-5.595l-5.436-5.711l-5.986-1.72l-5.754-0.896l-0.217,12.593l-2.949,9.484
		l-4.236,7.663l-3.918-7.157l1.215-8.111l-4.844-7.258l-5.422,8.805l0.014-11.552l-7.532-2.357l3.6-5.797l-5.509-13.865
		l-4.106-5.653l-5.349-2.082l-4.8,9.296l-0.318,13.504l4.728,4.757l4.337,7.099l-1.836,11.147l-3.268-0.289l-2.573,8.501
		l0.029-10.12l-6.275-3.73l-3.6,1.923l0.463,6.752l-5.913-0.26l-6.289,1.691l-7.157-4.843l-4.525,0.867l-4.077-5.942l-3.268-2.66
		l-3.239,1.113l-4.93,0.506l-2.617,3.773l4.135,4.612l-4.41,5.378l-4.323-6.39l-3.456,1.88l-10.945,1.258l-7.33-2.299l5.696-5.407
		l-5.465-5.639l-3.976,0.723l-5.581-1.908l-9.484-4.178l-6.202-4.872l-4.916-0.679l-1.532,3.412l-4.973,1.894l-0.55-8.892
		l-5.393,7.952l-6.853-10.583l-2.805-1.287l-0.911,5.653l-3.022,2.747l-2.79-4.901l-6.636,2.964l-6.072,5.133l-6.029-1.417
		l-4.916,3.614l-3.557,4.742l-4.222-1.041l-6.376-5.494l-7.605-2.704l-4.41-1.634l-6.145-3.557l-5.393,1.938l-3.123-1.547
		l-7.793-1.128l-8.545-3.817l-4.135,1.214l-6.203-2.067l0.246-2.819l-6.853-0.738l-1.807,2.385l-2.935-5.595l-6.13-2.646
		l-6.231,6.665l-3.73-0.824l-7.677,5.436l-3.947,1.373l-4.135,5.653l-0.969,5.667l-5.118,5.176l-7.186,0.361l-2.27,5.826
		l5.566,3.441l3.889,4.583l2.877,5.263l4.988,3.933l3.296,6.275l-8.559,0.39l0.55-5.031h-3.34l-9.036,4.93l-5.696,4.149l5.132,5.653
		l1.706,3.831l5.942,2.255l5.74-1.055l3.195,2.067l1.229-2.067l4.308-2.067l2.487-0.101l-3.007,3.643l2.27,1.677l0.752,4.222
		l-3.094,2.834l-2.949-0.781l-3.267,4.352l-2.776-1.431l-3.282,0.65l-1.446,4.554l-3.311,4.872l-1.562,4.93l3.123,3.585l0.015,4.699
		l2.776,1.966l3.427,3.802l5.277-1.547l2.617,2.863l-0.737,2.92l0.347,4.67h2.487l4.048-3.137l1.518,3.904l1.099-2.805l2.646,3.947
		l2.198-2.819l1.301,1.345l4.67-2.371l-2.067,4.583l-0.694,5.783l-2.993,2.646l-0.911,1.489l-5.624,4.409l-1.995,2.979l-5.031,0.81
		l-4.323,3.918l-3.961,2.183l-4.439,3.282l0.636,1.171l6.954-1.995l3.369-2.357l4.12-2.415l3.788-1.995l2.776,0.549l4.742-3.08
		l1.287-3.412l6.333-3.802l0.998-3.311l4.063-2.299l4.352-3.195l3.831-5.566l-2.964-3.831l5.841-5.711l2.761-5.45l5.161-4.656
		l1.113,2.111l-4.309,2.559l-1.822,7.995l0.578,4.684l4.496-1.677l3.571-2.689l4.684-1.677l2.241-0.521l-0.839-5.682l4.496-1.75
		l4.814,3.513l7.966,3.745l5.61-0.694l7.084,2.877l3.875,1.518l8.385,8.154l4.757,2.227l6.448,0.188l3.889,0.491l2.183,7.142
		l5.219,5.971l1.142,6.303l3.571,2.27l2.328,2.588l0.087,3.585l4.901,4.988l0.708,5.436l5.19,2.834l-0.578,4.034l2.255,5.725
		l7.345,2.631l2.892,2.733l7.851,6.116l1.793,5.161l0.651,4.93l-0.998,1.576l-2.154-5.653l-5.855-2.053l-0.491,1.186l1.186,2.805
		l1.287,5.104l0.737,7.836l-0.491,5.19l-0.491,5.118l-1.59,5.219l1.301,4.193l0.145,4.626l-0.882,4.41l2.154,2.877l0.564,4.265
		l3.137,4.323l1.793,1.692l-0.145,1.186l3.383,7.012l3.933,4.988l0.491,2.704l1.027,0.795l3.759,0.477l1.446,1.316l2.27,0.246
		l0.448,1.388l1.894,0.578l2.631,2.776l0.679,2.458l0.024-0.002l1.61,4.18l1.88,3.773l1.504,3.065l1.503,2.906l2.371,1.287
		l3.123,3.282l-0.159,2.067l-1.503,1.706l-1.663-0.26l-0.289,0.347l2.385,2.646l2.501,1.084l1.012,1.186l0.535-0.578l2.79,2.01
		l1.937,1.388l0.607,2.429l-0.13,3.253l2.082,1.128l2.92,2.14l2.646,2.501l1.07,2.675l0.723,0.014l1.706-1.605l0.101-0.781
		l-1.475-1.966l-1.634-2.01l-1.952-0.145l-0.217-2.342l-1.128-2.082l-1.2-1.952l-1.345-4.178l-2.559-2.313l-0.853-1.605
		l-1.229-1.156l-0.824-2.949l-0.723,0.072l-0.521-1.59l-0.622-0.318l-0.665-1.084l-3.007-3.195l-1.403-1.923l-0.39-3.513
		l-0.665-2.255l0.651-1.923l2.313,1.301l1.345-0.202l2.935,1.865l-0.058,1.807l1.431,3.585l2.183,3.499l0.174,1.446l1.908,2.241
		l2.342,2.4l2.183,0.376l1.012,3.166l2.4,2.198l2.067,1.055l-0.622,2.776l0.737,1.099l3.484,1.822l1.966,2.761l4.077,3.455
		l3.571,4.366l1.359,2.198l0.376,1.735l1.359,1.937l-0.014,1.504l-0.94,1.113l0.419,1.229l-1.345,0.419l0.969,2.096l2.024,2.704
		l4.352,2.415l1.691,1.937l4.149,1.344l2.27,0.246l1.026,1.128l3.383,2.024l4.598,1.952l3.036,0.593l3.788,1.923l3.036,0.81
		l2.863,1.099l2.039-0.419l3.268-1.576l2.255-0.303l3.311,1.099l2.096,1.359l4.583,4.496l2.183,1.706l1.851,0.824l2.53,0.072
		l2.082,0.723l1.142,0.896l2.255,0.26l1.677,0.824l1.46,0.39l2.342,0.058l0.448-0.969l1.243,0.361l0.694,1.287l-0.303,0.304
		l-0.68-0.622l-0.448,0.636l2.039,1.865l1.706,1.287l0.896,1.388l1.894,1.663l1.402,1.301l-0.925,0.781l1.142,0.578l-0.535,1.301
		l-0.029,1.244l0.549,0.824l1.301,0.405l0.925,1.128l0.81-0.969l-0.26-1.2l1.07,0.737l0.26,1.2l1.402,0.52l1.59,0.795l1.128,0.983
		l0.145,0.896l-0.463,0.708l0.824,0.853l2.198,0.911l0.463,0.607l0.13-0.882h1.735l1.055,0.477l1.663,0.26l0.81,1.648l1.344,0.231
		l0.521-0.694l0.708,2.429l1.879-0.202l0.593-0.607l1.099-0.521l-1.923-2.198l0.39-0.853l0.882-0.145l1.648-1.012l0.81-1.417
		l1.779-0.26l2.024,1.128l0.752,1.345l1.026,0.275l-0.998,1.084l0.867,2.198l1.344,1.171l0.521-1.966l1.316,0.289l0.766-1.215
		l-0.94-2.385l0.491-0.607l-1.532-1.128l-1.316-1.215l-1.807-0.708l-2.27-0.145l0.159-0.405l-2.241-0.231l-1.388,1.214l-2.458,0.824
		l-1.72,1.026l-1.995,0.304l-1.113-1.012l-0.39,0.333l-1.619-0.174l0.087-0.867l-1.446-1.46l-1.908-1.75l-1.562-1.648l-1.041-2.227
		l-0.607-0.679l-0.202-1.099l0.839-1.056l-0.275-1.084l0.376-1.764l0.622-0.405l-0.101-1.865l-0.231-1.055l0.145-1.836l0.434-1.663
		l0.925-1.417l-0.405-1.518l0.202-0.925l0.347-0.405l-1.07-1.157l-1.475-0.636l-1.171-0.94l-1.229-0.781l-0.651-0.087l-1.851-0.578
		l-0.81,0.361l-1.056,0.101l-0.969-0.289l-1.287-0.217l-0.477,0.463l-1.301,0.463l-1.879,0.116l-1.88-0.376l-0.636,0.202
		l-0.376-0.333l-1.157,0.058l-0.896,0.737l-0.419-0.173l-1.186-0.535l-0.347,0.636l-1.33-0.766l0.81-1.446l0.738-0.13l0.795-1.127
		l0.463-2.125l-0.246-0.39l0.419-1.518l-0.361-0.651l0.665-1.836l0.058-1.157l-0.766-0.014l-0.014-0.622l0.853-0.072l1.027,1.084
		l1.012-3.311l0.607-1.85l-0.737-0.738l0.954-2.617l2.183-2.559l0.13-2.082l-0.969-0.911l-2.458,0.362l-3.586-0.145l-4.294,0.998
		l-2.733,1.142l-0.708,1.258l-0.333,3.6l-0.969,2.501l-2.573,1.735l-2.559,0.737l-3.036,0.766l-3.08,0.419l-3.557,1.186
		l-1.677-1.764l-4.309-1.142l-1.59-2.096l-0.94-2.444l-2.689-3.195l-0.81-3.34l-1.258-2.125l-0.708-2.371l0.39-2.125l0.304-5.899
		l0.708-3.195l1.526-3.795l0.093-0.008l-0.05-0.1l0.007-0.016l-0.014,0.001l-0.709-1.418l-0.202-2.169l0.043-3.123l0.94-2.053
		l2.212-2.183l4.034-1.981l3.687-3.427l3.412-1.084l2.516-0.333l2.949,1.07l3.542-0.578l3.022,2.443l2.935,0.145l1.518-0.882
		l1.504,0.679l0.766-0.607l-0.867-0.911l0.072-1.879l-0.723-1.243l1.677-0.723l3.094-0.318l3.6,0.521l4.583-0.593l2.545,1.156
		l1.966,2.169l0.723,0.231l4.092-2.111l1.576,0.708l3.166,3.875l1.142,2.53l-0.838,3.036l0.607,1.779l1.879,3.47l2.154,3.875
		l1.547,1.026l0.636,1.952l1.995,0.535l1.215-0.564l1.012-2.732l0.174-1.75l0.13-3.036l-1.923-5.277l-0.029-1.981l-1.807-3.253
		l-1.359-3.976l-0.723-3.253l0.622-3.34l1.908-2.805l2.284-2.27l4.453-3.123l0.578-1.619l2.053-1.778l2.024-0.318l2.66-2.863
		l4.193-1.46l2.573-3.658l-0.564-5.002l-0.419-1.75l-1.156-0.347l-0.174-4.843l-2.79-1.648l2.675,0.81l-0.867-3.268l0.781-2.241
		l0.477,4.294l2.067,1.966l-1.258,3.47l0.376,0.202l2.284-4.063l1.301-1.995l-0.058-1.952l-1.012-0.925l-0.838-2.805l1.33,1.301
		l0.896,0.275l0.304,1.33l2.949-4.019l0.882-3.788l-1.2-0.246l1.229-1.475l-0.116,0.651l2.588-0.014l5.682-1.605l-1.2-1.012
		l-5.957,1.012l3.383-1.547l2.357-0.26l1.764-0.275l2.993-0.94l1.952,0.101l2.732-0.882l0.318-1.547l-1.214-1.215l0.419,1.981
		l-1.677-0.13l-1.345-2.877l0.043-2.906l0.694-1.243l2.14-3.296l4.28-1.663l4.164-1.937l4.323-2.747l-0.694-1.865l4.597-0.795
		l6.492-0.188l-7.041,4.713l0.159,4.757l3.08,0.405l4.525-4.034l4.019-2.284l8.978-3.398l5.017-3.788l-2.617-2.111
		L2983.821,3593.895z M2763.768,3670.484l-0.053-0.02l0.332-0.818l0.058-0.006L2763.768,3670.484z M2826.607,3696.878l-0.868-3.067
		l0.015,0.017l0.875,3.092L2826.607,3696.878z M2869.055,3593.086l-3.253,1.923l-3.123,1.504l-2.487-2.024l-4.062,1.229l0.014-0.867
		l2.747-2.501l2.877-2.385l4.265-2.111l1.648-2.4l2.299-0.954l0.896-1.489l0.911-0.795l3.773,1.243l2.79,0.145l0.969,0.824
		l1.359,3.441l4.554,0.911l-0.708,1.706l1.605,1.749l-0.694,2.255l1.706,0.738l-0.983,2.067l-1.243-0.231l-0.853-1.648l-3.976,0.521
		l-3.6,1.301l-2.848-2.241l-2.299-0.752l1.301-3.137L2869.055,3593.086z M2889.224,3613.298l-0.202-1.402l2.226-2.256l0.376-2.588
		l-0.333-2.588l-3.007-2.241l-3.441-1.157l-0.564,2.198l-0.896,0.578l-0.723,2.819l-0.376-1.923l-1.619,1.374l-1.012,1.908
		l-1.056,2.776l-0.202,2.371l1.344,3.441l-0.116,3.629l-1.648,2.66l-0.824,0.752l-1.099,0.593l-1.374,0.029l-0.376-0.362
		l-1.099-2.863l-0.029-1.417l0.116-1.359l-0.506-2.704l0.766-3.152l0.911-3.918l2.111-4.381l-0.607,0.014l-2.978,3.672l-0.55-0.665
		l1.59-2.053l2.415-3.716l2.761-0.521l3.166-1.156l3.195,0.607l0.13,0.029l3.571-0.521l-2.024-2.328l0.896-0.954l0.795,1.301
		l3.036,0.723l3.08,0.058l3.282,0.593l3.629,1.128l1.315,1.822l2.631,4.395l-1.301,1.88l-3.296-0.781l-2.053-3.528l0.52,3.6
		l-1.937,3.137l0.217,2.66l-0.333,1.547l-2.747,1.894l-0.202-2.27l-0.723-3.239l-1.504-0.564l-2.516,2.458L2889.224,3613.298z
		 M2905.778,3620.845l-3.051,1.576l-2.082,0.737l-2.4,1.489l-2.935,0.723l-2.024-0.275l-2.501-1.113l1.388-2.096l2.357,0.289
		l3.007-1.735l1.778-1.532l1.2-0.246l2.226,0.549l1.084-0.853l1.981-0.694l3.394-0.654l0.004,0.017l0.073,0.535L2905.778,3620.845z
		 M2917.272,3615.394l-3.325-0.463l-3.181-0.202l-1.793,0.593v0l-0.188,0.058l-1.243,0.289l-1.619-0.52l1.214-1.908l1.229-0.665
		l2.863-0.81l3.427-0.766l1.793,1.055l1.128-1.229l1.287-0.781l0.867,0.419l0.016,0.032l-0.103,0.098l0.419,0.781l0.246,2.183
		L2917.272,3615.394z"/>
	<polygon points="2971.069,3596.599 2969.652,3593.736 2968.12,3595.558 2969.132,3597.524 2974.279,3599.997 2975.782,3599.621 
		2977.778,3597.221 2974.019,3597.38 	"/>
	<polygon points="3013.937,3583.775 3011.103,3584.816 3012.361,3580.32 3008.313,3578.411 3006.448,3579.929 3002.848,3578.223 
		3004.265,3576.04 3001.546,3574.695 2998.901,3576.821 3001.59,3571.298 3003.759,3567.25 3004.539,3565.486 3002.66,3565.197 
		2999.146,3567.438 2996.631,3571.095 2992.438,3581.1 2989.041,3584.801 2990.804,3586.449 2988.274,3588.575 2988.896,3590.353 
		2996.761,3590.541 3001.113,3590.18 3005.002,3591.64 3002.139,3594.43 3004.554,3594.633 3009.252,3589.457 3010.38,3590.223 
		3009.498,3595.095 3012.158,3596.208 3013.995,3595.992 3015.701,3590.772 3014.457,3587.013 	"/>
	<polygon points="2730.158,3396.662 2740.828,3390.618 2740.828,3385.023 2745.86,3375.756 2755.807,3366.083 2760.896,3362.512 
		2756.544,3356.44 2752.611,3352.175 2742.26,3351.351 2736.477,3348.228 2722.771,3350.584 2726.732,3359.592 2723.219,3368.888 
		2720.414,3378.821 2718.679,3384.401 2728.033,3391.182 	"/>
	<polygon points="2728.467,3584.874 2726.79,3581.49 2722.741,3578.931 2720.732,3575.968 2719.358,3573.799 2715.542,3573.134 
		2713.055,3572.165 2708.804,3570.777 2708.457,3572.252 2710.019,3575.693 2714.197,3576.821 2714.92,3578.599 2718.549,3580.768 
		2719.763,3582.951 2726.414,3585.727 	"/>
	<polygon points="2743.098,3322.681 2750.631,3315.38 2754.419,3314.527 2757.542,3308.411 2758.091,3294.286 2752.525,3297.047 
		2746.308,3296.787 2737.98,3308.628 2731.098,3321.611 2736.592,3325.24 	"/>
	<polygon points="2928.448,3725.736 2925.383,3723.972 2922.39,3723.799 2922.693,3722.584 2920.264,3721.703 2918.934,3721.76 
		2916.419,3719.809 2912.978,3717.105 2911.546,3716.093 2907.759,3716.584 2906.139,3714.98 2902.337,3713.49 2899.156,3713.447 
		2895.643,3713.129 2894.674,3713.606 2891.594,3714.025 2889.527,3714.878 2887.691,3715.847 2886.823,3717.423 2884.684,3718.768 
		2886.419,3719.187 2888.414,3718.71 2888.992,3717.64 2890.684,3717.582 2893.59,3715.327 2897.566,3715.543 2896.048,3716.628 
		2897.464,3717.481 2902.741,3718.16 2903.956,3719.071 2907.744,3720.228 2910.028,3720.069 2910.997,3722.527 2912.399,3723.77 
		2915.016,3724.059 2916.664,3725.172 2913.946,3727.573 2919.744,3727.153 2922.534,3727.5 2925.267,3727.283 2927.97,3726.734 	
		"/>
	<polygon points="2948.399,3731.158 2948.53,3729.886 2946.317,3729.972 2945.58,3728.454 2944.51,3728.57 2942.11,3727.471 
		2938.944,3727.442 2938.438,3728.18 2934.925,3727.5 2932.452,3727.312 2931.542,3728.498 2934.101,3729.163 2934.072,3730.797 
		2935.922,3732.633 2934.462,3733.587 2931.397,3733.24 2927.667,3732.647 2927.305,3734.021 2929.489,3735.351 2931.383,3734.556 
		2933.855,3734.859 2935.763,3734.57 2938.452,3735.293 2938.669,3736.507 2939.71,3737.172 2941.33,3734.281 2942.674,3733.659 
		2943.281,3734.7 2944.843,3734.44 2945.58,3733.659 2946.91,3733.862 2948.761,3733.688 2950.698,3734.614 2952.202,3732.878 
		2950.207,3731.317 	"/>
	<polygon points="3132.954,3405.394 3122.284,3404.888 3126.983,3398.512 3125.594,3390.025 3130.612,3397.225 3133.734,3401.939 
		3140.963,3399.597 3139.431,3389.548 3134.11,3381.625 3128.645,3378.315 3130.727,3374.715 3138.751,3380.252 3138.693,3374.281 
		3133.619,3364.912 3139.272,3364.869 3144.983,3362.686 3146.313,3357.611 3141.614,3351.625 3150.607,3350.541 3145.358,3337.312 
		3149.696,3335.837 3148.741,3321.929 3141.267,3312.821 3147.932,3307.211 3154.264,3306.474 3149.392,3294.416 3149.262,3272.353 
		3152.53,3258.488 3157.272,3241.847 3147.888,3240.705 3160.843,3236.57 3163.127,3230.931 3179.652,3212.628 3177.383,3200.888 
		3165.224,3195.38 3145.546,3206.295 3135.224,3216.315 3139.677,3200.454 3136.308,3190.117 3128.428,3198.965 3116.226,3188.975 
		3101.869,3192.213 3099.831,3186.951 3121.648,3184.016 3137.161,3182.671 3144.65,3170.671 3119.291,3143.794 3086.906,3139.24 
		3072.578,3142.739 3067.416,3155.678 3053.19,3154.131 3039.571,3173.809 3039.021,3186.951 3048.665,3202.522 3040.236,3193.254 
		3034.554,3190.956 3024.881,3179.707 3014.125,3196.074 3009.701,3186.965 2997.238,3187.225 2984.775,3191.866 2975.175,3199.442 
		2976.867,3211.833 2970.968,3214.695 2956.929,3232.522 2953.402,3242.122 2964.332,3250.449 2962.771,3258.604 2947.922,3268.956 
		2932.583,3278.888 2932.019,3286.609 2941.156,3294.474 2958.505,3299.332 2950.337,3300.314 2939.696,3306.054 2946.737,3317.129 
		2951.45,3322.551 2961.339,3321.307 2972.168,3320.628 2980.771,3321.857 2991.657,3331.529 2991.614,3338.223 2996.775,3344.252 
		3001.648,3360.025 3004.872,3369.77 3007.33,3374.874 3002.804,3387.163 3006.188,3390.329 3010.221,3388.536 3013.85,3392.888 
		3020.819,3400.739 3012.549,3397.486 3008.79,3397.659 3007.199,3404.136 3007.474,3412.16 3012.448,3415.934 3016.091,3414.286 
		3018.289,3412.565 3022.929,3408.43 3022.076,3417.481 3020.472,3422.194 3014.37,3426.315 3010.366,3438.821 3013.069,3442.479 
		3011.609,3449.953 3017.233,3459.018 3017.782,3467.534 3019.836,3473.534 3026.862,3484.637 3029.566,3493.023 3033.498,3497.621 
		3041.609,3497.664 3047.594,3504.358 3053.305,3503.866 3055.373,3495.828 3057.195,3488.816 3055.561,3482.006 3062.183,3474.85 
		3064.221,3468.835 3064.279,3462.242 3067.763,3456.286 3073.575,3453.987 3078.982,3451.573 3081.787,3451.153 3090.505,3444.083 
		3096.144,3433.052 3100.337,3428.903 3104.804,3428.845 3116.66,3425.071 3127.677,3416.208 3138.549,3406.045 	"/>
	<polygon points="3170.327,3446.368 3163.604,3445.645 3156.997,3451.009 3151.893,3448.175 3145.734,3453.596 3139.416,3446.83 
		3133.272,3448.319 3130.539,3454.782 3139.04,3457.052 3139.214,3459.9 3132.043,3461.751 3140.862,3466.377 3136.872,3470.483 
		3148.178,3473.389 3153.513,3474.734 3157.011,3473.071 3168.708,3466.739 3173.97,3459.495 3169.402,3452.845 	"/>
	<polygon points="2917.431,3733.775 2914.698,3733.399 2913.773,3733.254 2912.067,3733.543 2911.59,3734.512 2913.903,3736.059 
		2916.173,3736.739 2917.402,3736.03 2920.25,3735.958 2919.585,3734.801 	"/>
	<polygon points="2960.457,3733.298 2957.132,3733.269 2956.568,3733.891 2956.799,3735.698 2959.17,3735.553 2962.221,3735.582 
		2963.262,3734.512 2962.525,3733.674 	"/>
	<polygon points="2588.544,3719.548 2587.459,3720.141 2587.619,3720.315 2588.139,3721.298 2589.556,3721.457 2589.845,3721.515 
		2590.062,3721.269 2588.891,3719.837 	"/>
	<polygon points="2582.183,3717.293 2581.561,3717.727 2581.344,3718.045 2582.703,3718.84 2583.18,3718.406 2583.093,3717.394 	"/>
	<polygon points="2607.99,3520.623 2605.821,3521.78 2602.134,3524.469 2602.756,3527.968 2604.823,3529.876 2608.872,3527.057 
		2612.385,3523.486 2610.665,3521.129 	"/>
	<polygon points="2554.322,3501.539 2550.317,3502.941 2552.775,3505.139 2555.436,3506.642 2557.922,3505.385 2557.532,3502.276 	
		"/>
	<polygon points="2542.033,3479.317 2544.982,3477.495 2545.315,3476.512 2542.033,3475.543 	"/>
	<polygon points="2591.392,3722.223 2593.561,3722.353 2593.691,3721.891 2591.696,3721.703 	"/>
	<polygon points="2599.908,3726.98 2599.185,3726.604 2597.638,3725.881 2597.334,3725.794 2597.103,3726.199 2597.378,3727.037 
		2596.669,3727.731 2596.467,3728.208 2597.132,3729.77 2597.016,3730.97 2598.028,3731.577 2598.621,3730.869 2599.922,3730.204 
		2601.513,3729.293 2601.614,3729.062 2600.587,3727.558 	"/>
	<polygon points="2595.715,3723.004 2594.269,3722.599 2593.879,3722.975 2593.908,3723.25 2594.37,3723.596 2595.064,3724.507 
		2596.423,3724.204 2596.756,3723.683 	"/>
	<polygon points="2695.069,3548.527 2691.18,3549.076 2689.272,3548.18 2689.026,3550.377 2689.778,3553.37 2691.831,3555.481 
		2693.334,3558.56 2695.778,3561.596 2697.397,3561.611 2693.869,3556.262 	"/>
</g>
</svg>
