<?xml version="1.0" encoding="iso-8859-1"?>
<!-- Generator: Adobe Illustrator 18.0.0, SVG Export Plug-In . SVG Version: 6.00 Build 0)  -->
<!DOCTYPE svg PUBLIC "-//W3C//DTD SVG 1.1//EN" "http://www.w3.org/Graphics/SVG/1.1/DTD/svg11.dtd">
<svg version="1.1" id="Layer_1" xmlns:amcharts="http://amcharts.com/ammap"
	 xmlns="http://www.w3.org/2000/svg" xmlns:xlink="http://www.w3.org/1999/xlink" x="0px" y="0px" width="974.143px"
	 height="699.92px" viewBox="0 0 974.143 699.92" style="enable-background:new 0 0 974.143 699.92;" xml:space="preserve">
<defs>
	
	
		<amcharts:ammap  rightLongitude="190.122401" topLatitude="83.646363" projection="mercator" leftLongitude="-169.522279" bottomLatitude="-55.621433">
		</amcharts:ammap>
</defs>
<g>
	<polygon points="537.11,587.071 535.202,587.433 535.491,589.095 539.915,588.373 539.785,587.201 	"/>
	<polygon points="538.412,594.503 537.53,597.322 539.048,598.609 540.074,601.153 541.072,600.937 541.043,598.363 
		539.626,594.676 	"/>
	<polygon points="542.546,591.524 543.24,588.329 540.031,586.291 540.045,586.811 541.867,588.589 541.795,590.946 	"/>
	<polygon points="473.684,236.382 475.896,230.396 474.421,225.394 470.879,219.727 465.052,224.093 462.898,231.206 
		467.814,235.24 	"/>
	<polygon points="498.031,239.418 506.358,239.158 517.983,236.83 523.173,238.681 529.216,235.414 531.746,231.307 
		530.835,224.772 526.498,218.657 519.906,217.5 511.65,218.903 505.202,222.43 499.289,221.071 493.823,220.348 491.25,216.445 
		486.595,212.671 487.52,206.267 484.021,200.512 476.04,200.556 471.544,194.787 463.187,193.63 461.655,201.004 466.354,206.411 
		474.739,208.508 478.802,215.866 479.293,223.963 480.696,232.623 491.467,237.568 	"/>
	<polygon points="473.236,272.671 477.587,262.652 482.416,259.977 488.474,247.341 480.725,243.77 472.281,243.25 468.262,247.254 
		466.137,253.37 466.079,260.339 468.609,272.18 	"/>
	<polygon points="432.927,164.209 429.009,170.267 438.031,171.018 444.696,177.438 451.318,179.606 449.742,171.394 
		446.648,161.664 435.689,153.929 427.737,150.98 428.026,159.206 	"/>
	<polygon points="410.821,165.77 405.544,161.577 403.375,160.623 399.211,166.811 399.139,169.703 405.877,169.717 	"/>
	<polygon points="408.71,183.625 410.055,177.857 404.344,174.792 398.431,176.802 395.149,182.96 401.163,189.047 	"/>
	<polygon points="457.607,176.18 460.903,180.691 466.903,176.686 468.002,169.5 463.158,162.387 460.802,160.999 455.554,160.16 
		455.872,168.691 	"/>
	<polygon points="474.97,186.98 475.448,184.826 472.599,181.283 464.431,181.009 465.515,186.329 473.105,187.529 	"/>
	<polygon points="470.373,149.404 477.79,149.23 474.58,155.013 474.522,162.676 478.874,171.004 487.274,173.563 494.445,172.132 
		501.935,156.618 507.501,150.185 502.614,142.999 499.419,127.602 492.768,122.99 485.944,117.669 480.768,103.847 
		471.342,105.206 473.12,111.206 468.97,113.013 466.166,120.705 463.361,131.491 465.934,141.987 	"/>
	<polygon points="527.525,254.859 531.978,262.233 533.149,263.057 537.587,261.221 541.954,261.51 546.262,261.915 
		545.901,258.098 538.903,250.32 529.621,248.758 527.669,249.727 	"/>
	<polygon points="532.469,381.423 534.06,376.912 533.033,375.134 531.371,374.946 529.809,377.548 529.621,378.141 530.691,380.7 	
		"/>
	<polygon points="550.469,326.469 550.932,325.009 550.889,320.426 547.722,317.418 544.007,318.937 542.286,324.965 
		543.298,330.112 547.838,329.592 	"/>
	<polygon points="530.648,362.96 527.756,359.91 524.778,360.633 524.416,356.209 519.775,353.259 515.337,349.977 512.98,347.447 
		510.913,348.937 510.161,344.657 507.226,343.862 505.838,352.724 505.318,360.112 501.79,364.652 507.284,363.785 
		508.672,369.062 514.44,364.392 518.46,359.505 520.729,363.64 527.033,365.823 	"/>
	<polygon points="514.889,374.353 515.771,376.71 518.633,376.912 523.375,372.083 523.462,370.363 517.896,370.276 	"/>
	<polygon points="580.079,296.455 576.551,291.611 566.763,286.768 562.542,278.744 555.009,281.621 554.489,276.04 
		548.908,269.794 539.915,262.985 536.084,268.348 528.06,272.194 528.667,263.433 521.713,248.903 511.433,254.772 
		507.689,265.905 504.493,257.346 507.472,248.136 497.004,251.968 492.84,257.736 489.732,269.91 491.019,282.994 496.773,283.052 
		492.537,288.719 495.906,292.999 502.484,294.806 511.057,298.305 525.804,300.937 533.149,299.433 535.318,295.934 
		538.513,299.968 542.084,300.633 546.378,307.804 543.775,310.667 551.988,314.469 558.19,319.789 559.751,323.476 
		560.864,328.161 555.616,338.18 554.199,343.153 555.559,346.652 547.216,347.896 539.597,348.069 536.922,355.11 540.349,358.334 
		552.074,356.845 552.016,354.112 557.915,358.667 563.958,363.409 562.541,365.968 567.457,370.334 576.161,375.438 
		587.149,378.893 586.484,375.871 582.262,370.565 576.537,362.802 586.701,370.03 591.819,372.43 593.221,366.011 590.59,356.903 
		588.913,354.401 583.404,350.021 579.139,344.368 579.645,338.671 584.908,337.37 591.284,346.912 596.272,351.033 
		603.385,339.655 604.643,332.527 598.267,331.847 592.44,322.16 586.007,319.789 576.465,312.604 583.91,307.356 	"/>
	<polygon points="489.732,103.79 493.115,114.329 500.286,122.83 514.469,121.254 523.592,124.103 517.26,132.85 514.064,130.276 
		502.99,129.25 504.71,141.264 510.436,149.997 509.279,157.515 502.094,162.517 498.812,170.426 505.39,174.257 510.913,186.618 
		500.069,178.377 497.597,179.736 499.592,193.298 492.103,197.389 492.609,205.847 500.272,206.758 506.301,208.84 518.214,206.18 
		528.812,210.907 539.641,200.512 539.554,196.146 532.628,196.84 532.065,192.734 537.732,187.197 539.655,179.751 
		545.915,174.213 549.761,167.332 546.407,157.066 549.212,153.235 543.631,150.503 555.906,148.146 558.493,143.592 
		566.85,139.833 573.79,120.358 580.397,113.216 589.968,97.139 581.149,97.283 584.821,91.067 594.624,85.298 604.513,72.43 
		604.686,64.146 597.269,55.414 588.566,51.177 577.737,48.546 568.961,46.392 560.185,44.223 548.474,49.977 546.32,46.32 
		533.93,47.736 526.657,51.452 521.308,56.729 518.228,73.703 513.804,65.013 508.773,63.365 502.816,74.888 494.864,79.732 
		490.137,80.686 484.108,86.238 484.99,95.852 	"/>
	<polygon points="378.204,226.58 383.872,229.399 402.19,227.52 393.775,234.416 394.296,239.375 400.455,239.028 410.677,232.406 
		424.411,229.992 426.884,222.445 426.175,214.392 421.925,213.669 418.31,216.459 416.72,210.488 415.346,202.247 411.154,200.194 
		407.438,206.57 413.236,222.546 406.151,221.317 398.951,211.5 387.544,205.717 383.727,210.517 	"/>
	<polygon points="446.026,297.625 438.71,291.944 431.901,285.857 430.643,276.922 428.098,264.026 423.559,258.474 
		419.525,256.233 415.954,258.286 418.831,272.151 416.792,277.544 413.481,264.561 409.78,260.064 405.197,267.018 
		399.559,260.136 390.537,264.286 392.561,257.838 388.412,255.134 377.554,263.577 374.734,268.941 371.337,278.729 
		378.421,282.083 384.681,281.91 375.284,286.912 377.424,291.438 383.178,291.683 391.838,290.715 399.674,293.549 394.383,295.63 
		388.672,295.095 382.411,297.134 379.708,298.392 384.696,307.573 388.296,306.3 393.833,309.409 396.031,314.686 403.245,313.63 
		413.51,311.953 421.115,308.122 425.828,307.428 432.797,310.493 440.127,312.257 441.486,308.122 438.898,303.712 
		445.549,302.787 	"/>
	<polygon points="457.216,296.209 454.383,301.327 450.812,304.927 456.349,310.045 459.645,308.816 465.11,312.228 
		467.626,308.281 465.154,303.9 463.939,301.688 461.51,299.577 	"/>
	<polygon points="431.756,253.63 428.677,250.493 423.24,251.071 421.867,253.066 428.185,262.825 	"/>
	<polygon points="461.669,252.922 460.614,248.758 453.385,250.58 448.556,247.529 443.756,254.469 448.224,263.548 
		439.954,261.857 439.867,266.209 449.944,276.401 452.749,281.288 456.653,282.344 463.303,277.414 464.026,265.544 
		457.896,259.659 	"/>
	<polygon points="450.768,231.683 457.448,230.079 459.298,218.151 459.168,209.548 456.074,201.51 455.756,203.823 450.06,202.811 
		443.958,208.724 439.592,208.189 439.853,221.086 446.503,219.828 446.416,229.182 	"/>
	<polygon points="604.715,470.411 600.566,467.809 595.231,466.233 593.828,466.768 597.602,469.717 602.85,471.655 
		604.816,471.539 	"/>
	<path d="M610.05,484.218l-4.062,6.593l-6.694,0.839l-5.263-2.906l-1.33-4.439l-1.287-6.448l3.831-4.092l-3.585-3.022l-6.058,0.622
		l-8.501,5.104l-6.506,7.879l-3.441,0.969l4.67-5.494l5.841-8.053l5.161-2.747l3.397-4.496l4.193-0.434l6.087,0.043l8.675,1.33
		l6.853-1.026l5.104-5.234l6.68-2.299l2.906-2.284l2.949-2.472l-0.289-7.504l-1.634-2.559l-3.152-0.911l-1.605-5.855l-2.602-2.241
		l-6.463-1.822l-3.644-4.077l-5.393-4.092l1.634-4.626l-4.482-9.051l-5.277-9.961l-3.152-7.2l-2.689,3.773l-3.875,8.747l-5.87,4.294
		l-2.935-4.569l-3.701-1.229l-1.345-10.106l0.116-6.94l-7.229-0.636l-1.229-3.282l-4.988-4.973l-3.773-2.949l-3.354,2.284
		l-4.164-0.839l-6.954-2.385l-2.819,2.024l1.359,13.272l1.764,7.402l-4.786,8.313l4.93,5.812l2.747,6.419l0.333,4.945l-2.241,5.06
		l-4.598,5.002l-6.491,3.296l2.863,3.658l2.111,10.699l-2.198,6.766l-3.123,2.111l-6.029-6.188l-2.935-7.475l-1.258-6.882
		l0.665-6.058l-4.41-0.68l-6.694-0.405l-4.294-3.007l-5.075-1.981l-2.906-3.441l-4.048-2.805l-7.532-3.224l-5.667,1.475
		l-1.894-5.711l-1.822-7.214l-5.957-1.301l0.217-9.268l1.576-6.477l4.395-9.542l4.959-7.084l4.713-1.113l0.275-5.855l3.195-3.875
		l5.798-0.607l4.699-6.347l1.186-4.193l3.904-8.284l1.214-5.06l4.193,3.051l5.638-1.562l7.938-7.171l0.521-5.118l-2.863-5.754
		l3.022-5.87l-0.246-5.595l-5.436-5.711l-5.986-1.72l-5.754-0.896l-0.217,12.593l-2.949,9.484l-4.236,7.663l-3.918-7.157
		l1.215-8.111l-4.844-7.258l-5.422,8.805l0.014-11.552l-7.532-2.357l3.6-5.797l-5.509-13.865l-4.106-5.653l-5.349-2.082l-4.8,9.296
		l-0.318,13.504l4.728,4.757l4.337,7.099l-1.836,11.147l-3.268-0.289l-2.573,8.501l0.029-10.12l-6.275-3.73l-3.6,1.923l0.463,6.752
		l-5.913-0.26l-6.289,1.691l-7.157-4.843l-4.525,0.867l-4.077-5.942l-3.268-2.66l-3.239,1.113l-4.93,0.506l-2.617,3.773l4.135,4.612
		l-4.41,5.378l-4.323-6.39l-3.456,1.88l-10.945,1.258l-7.33-2.299l5.696-5.407l-5.465-5.639l-3.976,0.723l-5.581-1.908l-9.484-4.178
		l-6.202-4.872l-4.916-0.679l-1.532,3.412l-4.973,1.894l-0.55-8.892l-5.393,7.952l-6.853-10.583l-2.805-1.287l-0.911,5.653
		l-3.022,2.747l-2.79-4.901l-6.636,2.964l-6.072,5.133l-6.029-1.417l-4.916,3.614l-3.557,4.742l-4.222-1.041l-6.376-5.494
		l-7.605-2.704l-4.41-1.634l-6.145-3.557l-5.393,1.938l-3.123-1.547l-7.793-1.128l-8.545-3.817l-4.135,1.214l-6.203-2.067
		l0.246-2.819l-6.853-0.738l-1.807,2.385l-2.935-5.595l-6.13-2.646l-6.231,6.665l-3.73-0.824l-7.677,5.436l-3.947,1.373
		l-4.135,5.653l-0.969,5.667l-5.118,5.176l-7.186,0.361l-2.27,5.826l5.566,3.441l3.889,4.583l2.877,5.263l4.988,3.933l3.296,6.275
		l-8.559,0.39l0.55-5.031h-3.34l-9.036,4.93l-5.696,4.149l5.132,5.653l1.706,3.831l5.942,2.255l5.74-1.055l3.195,2.067l1.229-2.067
		l4.308-2.067l2.487-0.101l-3.007,3.643l2.27,1.677l0.752,4.222l-3.094,2.834l-2.949-0.781l-3.267,4.352l-2.776-1.431l-3.282,0.65
		l-1.446,4.554l-3.311,4.872l-1.562,4.93l3.123,3.585l0.015,4.699l2.776,1.966l3.427,3.802l5.277-1.547l2.617,2.863l-0.737,2.92
		l0.347,4.67h2.487l4.048-3.137l1.518,3.904l1.099-2.805l2.646,3.947l2.198-2.819l1.301,1.345l4.67-2.371l-2.067,4.583l-0.694,5.783
		l-2.993,2.646l-0.911,1.489l-5.624,4.409l-1.995,2.979l-5.031,0.81l-4.323,3.918l-3.961,2.183l-4.439,3.282l0.636,1.171
		l6.954-1.995l3.369-2.357l4.12-2.415l3.788-1.995l2.776,0.549l4.742-3.08l1.287-3.412l6.333-3.802l0.998-3.311l4.063-2.299
		l4.352-3.195l3.831-5.566l-2.964-3.831l5.841-5.711l2.761-5.45l5.161-4.656l1.113,2.111l-4.309,2.559l-1.822,7.995l0.578,4.684
		l4.496-1.677l3.571-2.689l4.684-1.677l2.241-0.521l-0.839-5.682l4.496-1.75l4.814,3.513l7.966,3.745l5.61-0.694l7.084,2.877
		l3.875,1.518l8.385,8.154l4.757,2.227l6.448,0.188l3.889,0.491l2.183,7.142l5.219,5.971l1.142,6.303l3.571,2.27l2.328,2.588
		l0.087,3.585l4.901,4.988l0.708,5.436l5.19,2.834l-0.578,4.034l2.255,5.725l7.345,2.631l2.892,2.733l7.851,6.116l1.793,5.161
		l0.651,4.93l-0.998,1.576l-2.154-5.653l-5.855-2.053l-0.491,1.186l1.186,2.805l1.287,5.104l0.737,7.836l-0.491,5.19l-0.491,5.118
		l-1.59,5.219l1.301,4.193l0.145,4.626l-0.882,4.41l2.154,2.877l0.564,4.265l3.137,4.323l1.793,1.692l-0.145,1.186l3.383,7.012
		l3.933,4.988l0.491,2.704l1.027,0.795l3.759,0.477l1.446,1.316l2.27,0.246l0.448,1.388l1.894,0.578l2.631,2.776l0.679,2.458
		l0.024-0.002l1.61,4.18l1.88,3.773l1.504,3.065l1.503,2.906l2.371,1.287l3.123,3.282l-0.159,2.067l-1.503,1.706l-1.663-0.26
		l-0.289,0.347l2.385,2.646l2.501,1.084l1.012,1.186l0.535-0.578l2.79,2.01l1.937,1.388l0.607,2.429l-0.13,3.253l2.082,1.128
		l2.92,2.14l2.646,2.501l1.07,2.675l0.723,0.014l1.706-1.605l0.101-0.781l-1.475-1.966l-1.634-2.01l-1.952-0.145l-0.217-2.342
		l-1.128-2.082l-1.2-1.952l-1.345-4.178l-2.559-2.313l-0.853-1.605l-1.229-1.156l-0.824-2.949l-0.723,0.072l-0.521-1.59
		l-0.622-0.318l-0.665-1.084l-3.007-3.195l-1.403-1.923l-0.39-3.513l-0.665-2.255l0.651-1.923l2.313,1.301l1.345-0.202l2.935,1.865
		l-0.058,1.807l1.431,3.585l2.183,3.499l0.174,1.446l1.908,2.241l2.342,2.4l2.183,0.376l1.012,3.166l2.4,2.198l2.067,1.055
		l-0.622,2.776l0.737,1.099l3.484,1.822l1.966,2.761l4.077,3.455l3.571,4.366l1.359,2.198l0.376,1.735l1.359,1.937l-0.014,1.504
		l-0.94,1.113l0.419,1.229l-1.345,0.419l0.969,2.096l2.024,2.704l4.352,2.415l1.691,1.937l4.149,1.344l2.27,0.246l1.026,1.128
		l3.383,2.024l4.598,1.952l3.036,0.593l3.788,1.923l3.036,0.81l2.863,1.099l2.039-0.419l3.268-1.576l2.255-0.303l3.311,1.099
		l2.096,1.359l4.583,4.496l2.183,1.706l1.851,0.824l2.53,0.072l2.082,0.723l1.142,0.896l2.255,0.26l1.677,0.824l1.46,0.39
		l2.342,0.058l0.448-0.969l1.243,0.361l0.694,1.287l-0.303,0.304l-0.68-0.622l-0.448,0.636l2.039,1.865l1.706,1.287l0.896,1.388
		l1.894,1.663l1.402,1.301l-0.925,0.781l1.142,0.578l-0.535,1.301l-0.029,1.244l0.549,0.824l1.301,0.405l0.925,1.128l0.81-0.969
		l-0.26-1.2l1.07,0.737l0.26,1.2l1.402,0.52l1.59,0.795l1.128,0.983l0.145,0.896l-0.463,0.708l0.824,0.853l2.198,0.911l0.463,0.607
		l0.13-0.882h1.735l1.055,0.477l1.663,0.26l0.81,1.648l1.344,0.231l0.521-0.694l0.708,2.429l1.879-0.202l0.593-0.607l1.099-0.521
		l-1.923-2.198l0.39-0.853l0.882-0.145l1.648-1.012l0.81-1.417l1.779-0.26l2.024,1.128l0.752,1.345l1.026,0.275l-0.998,1.084
		l0.867,2.198l1.344,1.171l0.521-1.966l1.316,0.289l0.766-1.215l-0.94-2.385l0.491-0.607l-1.532-1.128l-1.316-1.215l-1.807-0.708
		l-2.27-0.145l0.159-0.405l-2.241-0.231l-1.388,1.214l-2.458,0.824l-1.72,1.026l-1.995,0.304l-1.113-1.012l-0.39,0.333l-1.619-0.174
		l0.087-0.867l-1.446-1.46l-1.908-1.75l-1.562-1.648l-1.041-2.227l-0.607-0.679l-0.202-1.099l0.839-1.056l-0.275-1.084l0.376-1.764
		l0.622-0.405l-0.101-1.865l-0.231-1.055l0.145-1.836l0.434-1.663l0.925-1.417l-0.405-1.518l0.202-0.925l0.347-0.405l-1.07-1.157
		l-1.475-0.636l-1.171-0.94l-1.229-0.781l-0.651-0.087l-1.851-0.578l-0.81,0.361l-1.056,0.101l-0.969-0.289l-1.287-0.217
		l-0.477,0.463l-1.301,0.463l-1.879,0.116l-1.88-0.376l-0.636,0.202l-0.376-0.333l-1.157,0.058l-0.896,0.737l-0.419-0.173
		l-1.186-0.535l-0.347,0.636l-1.33-0.766l0.81-1.446l0.738-0.13l0.795-1.127l0.463-2.125l-0.246-0.39l0.419-1.518l-0.361-0.651
		l0.665-1.836l0.058-1.157l-0.766-0.014l-0.014-0.622l0.853-0.072l1.027,1.084l1.012-3.311l0.607-1.85l-0.737-0.738l0.954-2.617
		l2.183-2.559l0.13-2.082l-0.969-0.911l-2.458,0.362l-3.586-0.145l-4.294,0.998l-2.733,1.142l-0.708,1.258l-0.333,3.6l-0.969,2.501
		l-2.573,1.735l-2.559,0.737l-3.036,0.766l-3.08,0.419l-3.557,1.186l-1.677-1.764l-4.309-1.142l-1.59-2.096l-0.94-2.444
		l-2.689-3.195l-0.81-3.34l-1.258-2.125l-0.708-2.371l0.39-2.125l0.304-5.899l0.708-3.195l1.526-3.795l0.093-0.008l-0.05-0.1
		l0.007-0.016l-0.014,0.001l-0.709-1.418l-0.202-2.169l0.043-3.123l0.94-2.053l2.212-2.183l4.034-1.981l3.687-3.427l3.412-1.084
		l2.516-0.333l2.949,1.07l3.542-0.578l3.022,2.443l2.935,0.145l1.518-0.882l1.504,0.679l0.766-0.607l-0.867-0.911l0.072-1.879
		l-0.723-1.243l1.677-0.723l3.094-0.318l3.6,0.521l4.583-0.593l2.545,1.156l1.966,2.169l0.723,0.231l4.092-2.111l1.576,0.708
		l3.166,3.875l1.142,2.53l-0.838,3.036l0.607,1.779l1.879,3.47l2.154,3.875l1.547,1.026l0.636,1.952l1.995,0.535l1.215-0.564
		l1.012-2.732l0.174-1.75l0.13-3.036l-1.923-5.277l-0.029-1.981l-1.807-3.253l-1.359-3.976l-0.723-3.253l0.622-3.34l1.908-2.805
		l2.284-2.27l4.453-3.123l0.578-1.619l2.053-1.778l2.024-0.318l2.66-2.863l4.193-1.46l2.573-3.658l-0.564-5.002l-0.419-1.75
		l-1.156-0.347l-0.174-4.843l-2.79-1.648l2.675,0.81l-0.867-3.268l0.781-2.241l0.477,4.294l2.067,1.966l-1.258,3.47l0.376,0.202
		l2.284-4.063l1.301-1.995l-0.058-1.952l-1.012-0.925l-0.838-2.805l1.33,1.301l0.896,0.275l0.304,1.33l2.949-4.019l0.882-3.788
		l-1.2-0.246l1.229-1.475l-0.116,0.651l2.588-0.014l5.682-1.605l-1.2-1.012l-5.957,1.012l3.383-1.547l2.357-0.26l1.764-0.275
		l2.993-0.94l1.952,0.101l2.732-0.882l0.318-1.547l-1.214-1.215l0.419,1.981l-1.677-0.13l-1.345-2.877l0.043-2.906l0.694-1.243
		l2.14-3.296l4.28-1.663l4.164-1.937l4.323-2.747l-0.694-1.865l4.597-0.795l6.492-0.188l-7.041,4.713l0.159,4.757l3.08,0.405
		l4.525-4.034l4.019-2.284l8.978-3.398l5.017-3.788l-2.617-2.111L610.05,484.218z M389.997,560.807l-0.053-0.02l0.332-0.818
		l0.058-0.006L389.997,560.807z M452.836,587.201l-0.868-3.067l0.015,0.017l0.875,3.092L452.836,587.201z M495.284,483.409
		l-3.253,1.923l-3.123,1.504l-2.487-2.024l-4.062,1.229l0.014-0.867l2.747-2.501l2.877-2.385l4.265-2.111l1.648-2.4l2.299-0.954
		l0.896-1.489l0.911-0.795l3.773,1.243l2.79,0.145l0.969,0.824l1.359,3.441l4.554,0.911l-0.708,1.706l1.605,1.749l-0.694,2.255
		l1.706,0.738l-0.983,2.067l-1.243-0.231l-0.853-1.648l-3.976,0.521l-3.6,1.301l-2.848-2.241l-2.299-0.752l1.301-3.137
		L495.284,483.409z M515.453,503.621l-0.202-1.402l2.226-2.256l0.376-2.588l-0.333-2.588l-3.007-2.241l-3.441-1.157l-0.564,2.198
		l-0.896,0.578l-0.723,2.819l-0.376-1.923l-1.619,1.374l-1.012,1.908l-1.056,2.776l-0.202,2.371l1.344,3.441l-0.116,3.629
		l-1.648,2.66l-0.824,0.752l-1.099,0.593l-1.374,0.029l-0.376-0.362l-1.099-2.863l-0.029-1.417l0.116-1.359l-0.506-2.704
		l0.766-3.152l0.911-3.918l2.111-4.381l-0.607,0.014l-2.978,3.672l-0.55-0.665l1.59-2.053l2.415-3.716l2.761-0.521l3.166-1.156
		l3.195,0.607l0.13,0.029l3.571-0.521l-2.024-2.328l0.896-0.954l0.795,1.301l3.036,0.723l3.08,0.058l3.282,0.593l3.629,1.128
		l1.315,1.822l2.631,4.395l-1.301,1.88l-3.296-0.781l-2.053-3.528l0.52,3.6l-1.937,3.137l0.217,2.66l-0.333,1.547l-2.747,1.894
		l-0.202-2.27l-0.723-3.239l-1.504-0.564l-2.516,2.458L515.453,503.621z M532.007,511.168l-3.051,1.576l-2.082,0.737l-2.4,1.489
		l-2.935,0.723l-2.024-0.275l-2.501-1.113l1.388-2.096l2.357,0.289l3.007-1.735l1.778-1.532l1.2-0.246l2.226,0.549l1.084-0.853
		l1.981-0.694l3.394-0.654l0.004,0.017l0.073,0.535L532.007,511.168z M543.501,505.717l-3.325-0.463l-3.181-0.202l-1.793,0.593l0,0
		l-0.188,0.058l-1.243,0.289l-1.619-0.52l1.214-1.908l1.229-0.665l2.863-0.81l3.427-0.766l1.793,1.055l1.128-1.229l1.287-0.781
		l0.867,0.419l0.016,0.032l-0.103,0.098l0.419,0.781l0.246,2.183L543.501,505.717z"/>
	<polygon points="597.298,486.922 595.881,484.059 594.349,485.881 595.361,487.847 600.508,490.32 602.011,489.944 
		604.007,487.544 600.248,487.703 	"/>
	<polygon points="640.166,474.098 637.332,475.139 638.59,470.643 634.542,468.734 632.677,470.252 629.077,468.546 
		630.494,466.363 627.775,465.018 625.13,467.144 627.819,461.621 629.988,457.573 630.768,455.809 628.889,455.52 625.375,457.761 
		622.86,461.418 618.667,471.423 615.27,475.124 617.033,476.772 614.503,478.898 615.125,480.676 622.99,480.864 627.342,480.503 
		631.231,481.963 628.368,484.753 630.783,484.956 635.481,479.78 636.609,480.546 635.727,485.418 638.387,486.531 
		640.224,486.315 641.93,481.095 640.686,477.336 	"/>
	<polygon points="356.387,286.985 367.057,280.941 367.057,275.346 372.089,266.079 382.036,256.406 387.125,252.835 
		382.773,246.763 378.84,242.498 368.489,241.674 362.706,238.551 349,240.907 352.961,249.915 349.448,259.211 346.643,269.144 
		344.908,274.724 354.262,281.505 	"/>
	<polygon points="354.696,475.197 353.019,471.813 348.97,469.254 346.961,466.291 345.587,464.122 341.771,463.457 
		339.284,462.488 335.033,461.1 334.686,462.575 336.248,466.016 340.426,467.144 341.149,468.922 344.778,471.091 345.992,473.274 
		352.643,476.05 	"/>
	<polygon points="369.327,213.004 376.86,205.703 380.648,204.85 383.771,198.734 384.32,184.609 378.754,187.37 372.537,187.11 
		364.209,198.951 357.327,211.934 362.821,215.563 	"/>
	<polygon points="554.677,616.059 551.612,614.295 548.619,614.122 548.922,612.907 546.493,612.026 545.163,612.083 
		542.648,610.132 539.207,607.428 537.775,606.416 533.988,606.907 532.368,605.303 528.566,603.813 525.385,603.77 
		521.872,603.452 520.903,603.929 517.823,604.348 515.756,605.201 513.92,606.17 513.052,607.746 510.913,609.091 512.648,609.51 
		514.643,609.033 515.221,607.963 516.913,607.905 519.819,605.65 523.795,605.866 522.277,606.951 523.693,607.804 528.97,608.483 
		530.185,609.394 533.973,610.551 536.257,610.392 537.226,612.85 538.628,614.093 541.245,614.382 542.893,615.495 
		540.175,617.896 545.973,617.476 548.763,617.823 551.496,617.606 554.199,617.057 	"/>
	<polygon points="574.628,621.481 574.759,620.209 572.546,620.295 571.809,618.777 570.739,618.893 568.339,617.794 
		565.173,617.765 564.667,618.503 561.154,617.823 558.681,617.635 557.771,618.821 560.33,619.486 560.301,621.12 562.151,622.956 
		560.691,623.91 557.626,623.563 553.896,622.97 553.534,624.344 555.718,625.674 557.612,624.879 560.084,625.182 561.992,624.893 
		564.681,625.616 564.898,626.83 565.939,627.495 567.559,624.604 568.903,623.982 569.51,625.023 571.072,624.763 571.809,623.982 
		573.139,624.185 574.99,624.011 576.927,624.937 578.431,623.201 576.436,621.64 	"/>
	<polygon points="759.183,295.717 748.513,295.211 753.212,288.835 751.823,280.348 756.841,287.548 759.963,292.262 
		767.192,289.92 765.66,279.871 760.339,271.948 754.874,268.638 756.956,265.038 764.98,270.575 764.922,264.604 759.848,255.235 
		765.501,255.192 771.212,253.009 772.542,247.934 767.843,241.948 776.836,240.864 771.587,227.635 775.925,226.16 774.97,212.252 
		767.496,203.144 774.161,197.534 780.493,196.797 775.621,184.739 775.491,162.676 778.759,148.811 783.501,132.17 
		774.117,131.028 787.072,126.893 789.356,121.254 805.881,102.951 803.612,91.211 791.453,85.703 771.775,96.618 761.453,106.638 
		765.906,90.777 762.537,80.44 754.657,89.288 742.455,79.298 728.098,82.536 726.06,77.274 747.877,74.339 763.39,72.994 
		770.879,60.994 745.52,34.117 713.135,29.563 698.807,33.062 693.645,46.001 679.419,44.454 665.8,64.132 665.25,77.274 
		674.894,92.845 666.465,83.577 660.783,81.279 651.11,70.03 640.354,86.397 635.93,77.288 623.467,77.548 611.004,82.189 
		601.404,89.765 603.096,102.156 597.197,105.018 583.158,122.845 579.631,132.445 590.561,140.772 589,148.927 574.151,159.279 
		558.812,169.211 558.248,176.932 567.385,184.797 584.734,189.655 576.566,190.637 565.925,196.377 572.966,207.452 
		577.679,212.874 587.568,211.63 598.397,210.951 607,212.18 617.886,221.852 617.843,228.546 623.004,234.575 627.877,250.348 
		631.101,260.093 633.559,265.197 629.033,277.486 632.417,280.652 636.45,278.859 640.079,283.211 647.048,291.062 
		638.778,287.809 635.019,287.982 633.428,294.459 633.703,302.483 638.677,306.257 642.32,304.609 644.518,302.888 
		649.158,298.753 648.305,307.804 646.701,312.517 640.599,316.638 636.595,329.144 639.298,332.802 637.838,340.276 
		643.462,349.341 644.011,357.857 646.065,363.857 653.091,374.96 655.795,383.346 659.727,387.944 667.838,387.987 
		673.823,394.681 679.534,394.189 681.602,386.151 683.424,379.139 681.79,372.329 688.412,365.173 690.45,359.158 690.508,352.565 
		693.992,346.609 699.804,344.31 705.211,341.896 708.016,341.476 716.734,334.406 722.373,323.375 726.566,319.226 
		731.033,319.168 742.889,315.394 753.906,306.531 764.778,296.368 	"/>
	<polygon points="796.556,336.691 789.833,335.968 783.226,341.332 778.122,338.498 771.963,343.919 765.645,337.153 
		759.501,338.642 756.768,345.105 765.269,347.375 765.443,350.223 758.272,352.074 767.091,356.7 763.101,360.806 774.407,363.712 
		779.742,365.057 783.24,363.394 794.937,357.062 800.199,349.818 795.631,343.168 	"/>
	<polygon points="543.66,624.098 540.927,623.722 540.002,623.577 538.296,623.866 537.819,624.835 540.132,626.382 
		542.402,627.062 543.631,626.353 546.479,626.281 545.814,625.124 	"/>
	<polygon points="586.686,623.621 583.361,623.592 582.797,624.214 583.028,626.021 585.399,625.876 588.45,625.905 
		589.491,624.835 588.754,623.997 	"/>
	<polygon points="214.773,609.871 213.688,610.464 213.848,610.638 214.368,611.621 215.785,611.78 216.074,611.838 
		216.291,611.592 215.12,610.16 	"/>
	<polygon points="208.412,607.616 207.79,608.05 207.573,608.368 208.932,609.163 209.409,608.729 209.322,607.717 	"/>
	<polygon points="234.219,410.946 232.05,412.103 228.363,414.792 228.985,418.291 231.052,420.199 235.101,417.38 238.614,413.809 
		236.894,411.452 	"/>
	<polygon points="180.551,391.862 176.546,393.264 179.004,395.462 181.665,396.965 184.151,395.708 183.761,392.599 	"/>
	<polygon points="168.262,369.64 171.211,367.818 171.544,366.835 168.262,365.866 	"/>
	<polygon points="217.621,612.546 219.79,612.676 219.92,612.214 217.925,612.026 	"/>
	<polygon points="226.137,617.303 225.414,616.927 223.867,616.204 223.563,616.117 223.332,616.522 223.607,617.36 
		222.898,618.054 222.696,618.531 223.361,620.093 223.245,621.293 224.257,621.9 224.85,621.192 226.151,620.527 227.742,619.616 
		227.843,619.385 226.816,617.881 	"/>
	<polygon points="221.944,613.327 220.498,612.922 220.108,613.298 220.137,613.573 220.599,613.919 221.293,614.83 
		222.652,614.527 222.985,614.006 	"/>
	<polygon points="321.298,438.85 317.409,439.399 315.501,438.503 315.255,440.7 316.007,443.693 318.06,445.804 319.563,448.883 
		322.007,451.919 323.626,451.934 320.098,446.585 	"/>
</g>
</svg>
