<?xml version="1.0" encoding="iso-8859-1"?>
<!-- Generator: Adobe Illustrator 18.0.0, SVG Export Plug-In . SVG Version: 6.00 Build 0)  -->
<!DOCTYPE svg PUBLIC "-//W3C//DTD SVG 1.1//EN" "http://www.w3.org/Graphics/SVG/1.1/DTD/svg11.dtd">
<svg version="1.1" id="Layer_1" xmlns:amcharts="http://amcharts.com/ammap"
	 xmlns="http://www.w3.org/2000/svg" xmlns:xlink="http://www.w3.org/1999/xlink" x="0px" y="0px" width="974.143px"
	 height="699.92px" viewBox="0 0 974.143 699.92" style="enable-background:new 0 0 974.143 699.92;" xml:space="preserve">
<defs>
	
	
		<amcharts:ammap  rightLongitude="190.122401" topLatitude="83.646363" projection="mercator" leftLongitude="-169.522279" bottomLatitude="-55.621433">
		</amcharts:ammap>
</defs>
<g>
	<path id="FJ_1_" d="M933.001,428.737l-2.839,11.358l-1.866,1.298l-14.441,5.841l-14.522,4.949l-2.921-8.843l11.358-4.868
		l7.221-1.298l13.305-7.383L933.001,428.737z M885.621,463.704l-10.304-2.921l-8.762,8.113l2.191,10.466l12.575,2.921l14.116-3.245
		l3.732-12.413l-7.789-6.815L885.621,463.704z"/>
	<path id="NC_1_" d="M604.831,549.377l18.66,15.09l11.764,11.195l-8.6,5.923l-12.576-6.653l-16.226-10.952l-14.685-12.9
		l-15.009-17.037l-3.164-8.194l9.736,0.406l12.819,8.194l9.979,8.194L604.831,549.377z"/>
	<path id="PG_1_" d="M379.615,216.258l-6.409,2.272l-9.817-8.762l-9.979-14.441l-4.868-17.281l3.164-2.19l2.434,6.734l6.896,5.111
		l11.034,14.36l10.709,7.707L379.615,216.258z M290.94,185.835l-11.926,1.866l-3.57,6.409l-12.413,5.517l-11.683,5.355H239.26
		l-18.66-6.571l-12.981-6.328l1.866-7.058l20.364,3.326l12.413-1.785l3.407-10.871l3.245-0.568l2.191,12.088l12.981-1.704
		l6.409-7.788l12.737-8.113l-2.515-13.386l13.63-0.406l4.624,3.732l-0.487,12.575L290.94,185.835z M181.983,229.239l20.282,14.928
		l14.766,24.258l13.062-0.73l-0.892,10.141l17.605,3.894l-6.815,4.3l24.177,9.654l-2.515,6.653l-15.09,1.623l-5.598-5.923
		l-19.552-2.596l-22.96-3.489l-17.686-14.603l-12.9-12.575l-11.845-19.958l-29.693-9.979l-19.309,6.49l-13.873,7.545l2.921,16.875
		l-17.849,7.87l-12.737-3.813l-23.528-0.974l-0.406-74.315l-0.406-73.828l39.51,15.577l42.025,12.981l15.658,11.602l12.656,11.439
		l3.488,13.386l37.887,14.036l5.517,12.088l-20.932,2.434L181.983,229.239z M317.226,163.605l-7.14,6.004l-4.3-13.386l-5.274-8.762
		l-10.304-7.383l-12.981-9.654l-16.388-6.653l6.328-5.436l12.251,6.328l7.707,4.949l9.573,5.436l9.087,9.492l8.681,7.221
		L317.226,163.605z"/>
	<path id="SB_1_" d="M521.511,300.065l6.328,7.87l-15.902-0.162l-8.681-14.117l13.548,5.598L521.511,300.065z M492.71,286.03
		l-8.843,0.487l-13.954-2.353l-4.787-3.57l1.46-9.086l15.009,3.57l7.383,4.787L492.71,286.03z M511.532,279.783l-3.407,4.219
		l-16.875-19.877l-4.706-13.63h7.707l8.194,18.254L511.532,279.783z M470.481,250.901l0.974,4.624l-17.849-9.654l-12.494-8.194
		l-8.518-7.626l3.407-2.353l10.466,5.436l18.66,10.466L470.481,250.901z M417.34,228.347l-4.543,1.298l-9.979-5.192l-9.33-9.33
		l1.136-3.813l13.548,9.573L417.34,228.347z"/>
	<path id="VU_1_" d="M651.805,439.203l-7.464,3.083l-7.626-10.303l0.811-6.328L651.805,439.203z M635.011,403.181l3.732,18.903
		l-6.085-2.921l-4.706,1.298l-3.245-6.49l-0.487-17.93L635.011,403.181z"/>
</g>
</svg>
