<?xml version="1.0" encoding="iso-8859-1"?>
<!-- Generator: Adobe Illustrator 18.0.0, SVG Export Plug-In . SVG Version: 6.00 Build 0)  -->
<!DOCTYPE svg PUBLIC "-//W3C//DTD SVG 1.1//EN" "http://www.w3.org/Graphics/SVG/1.1/DTD/svg11.dtd">
<svg version="1.1" id="Layer_1" xmlns:amcharts="http://amcharts.com/ammap"
	 xmlns="http://www.w3.org/2000/svg" xmlns:xlink="http://www.w3.org/1999/xlink" x="0px" y="0px" width="974.143px"
	 height="699.92px" viewBox="0 0 974.143 699.92" style="enable-background:new 0 0 974.143 699.92;" xml:space="preserve">
<defs>
	
	
		<amcharts:ammap  rightLongitude="190.122401" topLatitude="83.646363" projection="mercator" leftLongitude="-169.522279" bottomLatitude="-55.621433">
		</amcharts:ammap>
</defs>
<g>
	<polygon points="394.091,559.88 394.021,558.11 393.231,555.62 391.041,553.13 389.741,551.96 387.751,550.09 387.271,546.88 
		386.581,547.34 385.441,546.03 384.321,546.69 383.231,543.44 381.631,541.57 382.001,540.85 380.121,539.56 378.141,538.15 
		375.101,536.61 374.191,534.62 374.461,533.1 373.701,530.6 372.991,530.25 372.561,528.8 371.961,526.32 372.251,525.04 
		370.901,523.91 369.971,522.69 368.171,523.77 367.161,521.52 367.241,520.51 367.031,518.89 366.011,517.44 365.891,516.24 
		365.191,515.9 365.001,514.12 364.211,512.73 363.171,513.79 363.101,514.6 362.571,516.16 361.891,517.67 362.331,518.62 
		361.791,519.2 361.421,521.36 361.741,523 361.541,523.84 361.931,525.23 361.081,527.53 360.731,529.12 360.161,530.41 
		359.611,531.98 357.761,532.98 355.081,531.99 354.651,531.09 353.181,530.34 352.391,530.34 350.361,528.62 348.921,527.62 
		346.761,526.69 344.531,525.09 344.331,524.28 345.331,522.87 346.151,521.44 345.821,520.29 346.781,520.19 347.841,519.03 
		348.591,517.5 347.301,516.09 346.641,516.64 345.591,516.39 343.951,517.21 342.211,516.33 341.411,516.62 339.051,515.89 
		337.561,514.72 335.701,514.02 334.211,514.43 336.261,515.37 336.311,516.82 333.951,517.36 332.521,517.02 330.821,518.03 
		329.601,519.66 330.041,520.37 328.781,521.12 327.441,523.42 328.031,525 326.251,524.73 324.501,524.71 322.941,523 
		320.871,521.68 319.511,522.07 318.281,522.48 318.231,523.2 317.001,522.86 316.961,523.66 315.551,524.15 314.871,525.29 
		313.341,526.71 313.001,528.92 311.761,528.29 310.881,529.7 311.881,531.08 310.691,531.66 309.511,529.15 307.551,531.62 
		307.481,533.21 307.351,534.38 305.711,535.87 304.991,537.45 303.471,538.76 300.521,539.63 298.971,539.56 298.231,539.83 
		297.811,540.48 296.111,540.81 293.901,541.92 293.131,541.55 291.861,541.78 289.721,542.88 288.351,544.16 286.071,545.16 
		284.891,547.23 284.681,544.94 283.521,547.11 283.821,548.88 283.441,550.4 282.871,551.15 282.571,552.92 283.221,553.84 
		283.491,554.81 284.881,557.24 284.931,558.83 284.101,557.63 282.711,556.73 283.661,559.61 282.431,558.26 282.821,559.59 
		284.421,562.07 284.771,564.54 286.011,565.8 286.081,566.73 287.201,568.81 287.081,570.64 287.541,572.49 289.021,575.78 
		289.331,577.73 288.991,580.03 289.091,581.23 288.611,581.99 287.221,582.45 287.161,584.38 288.671,585.02 291.641,587.19 
		293.521,587.19 295.571,587.32 296.921,586.24 298.331,585.28 299.151,585.43 300.821,583.63 302.741,583.48 304.761,583.11 
		307.241,583.72 309.001,583.42 311.381,583.34 312.421,581.98 312.961,580.23 315.391,579.46 318.361,577.76 321.041,577.98 
		324.231,576.88 327.861,575.7 332.881,575.39 335.581,576.99 337.551,577.08 341.151,579.08 340.621,579.85 342.101,581.1 
		343.851,583.53 343.761,585.32 345.951,586.72 347.021,584.03 348.771,582.88 351.051,580.03 351.271,582.5 350.191,584.15 
		349.771,586.1 348.301,587.98 350.801,587.35 352.171,585 352.851,587.52 351.931,589.18 354.631,589.59 356.011,590.99 
		356.661,592.74 357.181,595.4 358.991,597.58 361.701,598.61 363.301,598.86 364.891,599.42 367.311,600.39 369.771,597.81 
		371.301,597.14 370.861,598.99 372.581,599.62 374.901,601.2 376.591,599.66 377.881,598.28 380.471,596.83 383.611,596.7 
		385.221,595.48 385.081,594.37 385.441,591.97 386.151,589.39 387.231,587.68 388.061,584.75 389.001,583.08 390.021,580.49 
		392.101,578.86 393.341,575.86 393.891,573.52 393.831,571.66 394.591,568.79 395.081,567.31 395.241,564.5 393.901,561.82 	"/>
	<polygon points="378.741,607.64 376.551,608.35 375.021,608.86 372.311,607.58 370.481,607.24 370.411,608.94 372.031,612.19 
		372.411,614.69 374.141,617.97 375.861,618.09 376.441,618.3 378.391,615.63 379.371,616.68 379.661,613.62 380.621,612.32 
		380.421,607.89 	"/>
	<polygon points="856.031,250.02 854.031,247.91 851.971,248.41 851.721,245.35 848.511,243.31 845.441,241.04 843.811,239.29 
		842.381,240.32 841.861,237.36 839.831,236.81 838.871,242.94 838.511,248.05 836.071,251.19 839.871,250.59 840.831,254.24 
		844.821,251.01 847.601,247.63 849.171,250.49 853.531,252 	"/>
	<polygon points="869.741,224.78 870.061,223.77 870.031,220.6 867.841,218.52 865.271,219.57 864.081,223.74 864.781,227.3 
		867.921,226.94 	"/>
	<polygon points="827.731,70.76 830.071,78.05 835.031,83.93 844.841,82.84 851.151,84.81 846.771,90.86 844.561,89.08 
		836.901,88.37 838.091,96.68 842.051,102.72 841.251,107.92 836.281,111.38 834.011,116.85 838.561,119.5 842.381,128.05 
		834.881,122.35 833.171,123.29 834.551,132.67 829.371,135.5 829.721,141.35 835.021,141.98 839.191,143.42 847.431,141.58 
		854.761,144.85 862.251,137.66 862.191,134.64 857.401,135.12 857.011,132.28 860.931,128.45 862.261,123.3 866.591,119.47 
		869.251,114.71 866.931,107.61 868.871,104.96 865.011,103.07 873.501,101.44 875.291,98.29 881.071,95.69 885.871,82.22 
		890.441,77.28 897.061,66.16 890.961,66.26 893.501,61.96 900.281,57.97 907.121,49.07 907.241,43.34 902.111,37.3 896.091,34.37 
		888.601,32.55 882.531,31.06 876.461,29.56 868.361,33.54 866.871,31.01 858.301,31.99 853.271,34.56 849.571,38.21 847.441,49.95 
		844.381,43.94 840.901,42.8 836.781,50.77 831.281,54.12 828.011,54.78 823.841,58.62 824.451,65.27 	"/>
	<polygon points="750.591,155.69 754.511,157.64 767.181,156.34 761.361,161.11 761.721,164.54 765.981,164.3 773.051,159.72 
		782.551,158.05 784.261,152.83 783.771,147.26 780.831,146.76 778.331,148.69 777.231,144.56 776.281,138.86 773.381,137.44 
		770.811,141.85 774.821,152.9 769.921,152.05 764.941,145.26 757.051,141.26 754.411,144.58 	"/>
	<polygon points="744.451,146.3 749.661,141.25 752.281,140.66 754.441,136.43 754.821,126.66 750.971,128.57 746.671,128.39 
		740.911,136.58 736.151,145.56 739.951,148.07 	"/>
	<polygon points="735.501,197.47 742.881,193.29 742.881,189.42 746.361,183.01 753.241,176.32 756.761,173.85 753.751,169.65 
		751.031,166.7 743.871,166.13 739.871,163.97 730.391,165.6 733.131,171.83 730.701,178.26 728.761,185.13 727.561,188.99 
		734.031,193.68 	"/>
	<polygon points="771.691,125.98 772.621,121.99 768.671,119.87 764.581,121.26 762.311,125.52 766.471,129.73 	"/>
	<polygon points="788.441,112.55 785.731,116.74 791.971,117.26 796.581,121.7 801.161,123.2 800.071,117.52 797.931,110.79 
		790.351,105.44 784.851,103.4 785.051,109.09 	"/>
	<polygon points="805.511,120.83 807.791,123.95 811.941,121.18 812.701,116.21 809.351,111.29 807.721,110.33 804.091,109.75 
		804.311,115.65 	"/>
	<polygon points="773.151,113.63 769.501,110.73 768.001,110.07 765.121,114.35 765.071,116.35 769.731,116.36 	"/>
	<polygon points="816.321,187.57 819.331,180.64 822.671,178.79 826.861,170.05 821.501,167.58 815.661,167.22 812.881,169.99 
		811.411,174.22 811.371,179.04 813.121,187.23 	"/>
	<polygon points="797.501,204.83 792.441,200.9 787.731,196.69 786.861,190.51 785.101,181.59 781.961,177.75 779.171,176.2 
		776.701,177.62 778.691,187.21 777.281,190.94 774.991,181.96 772.431,178.85 769.261,183.66 765.361,178.9 759.121,181.77 
		760.521,177.31 757.651,175.44 750.141,181.28 748.191,184.99 745.841,191.76 750.741,194.08 755.071,193.96 748.571,197.42 
		750.051,200.55 754.031,200.72 760.021,200.05 765.441,202.01 761.781,203.45 757.831,203.08 753.501,204.49 751.631,205.36 
		755.081,211.71 757.571,210.83 761.401,212.98 762.921,216.63 767.911,215.9 775.011,214.74 780.271,212.09 783.531,211.61 
		788.351,213.73 793.421,214.95 794.361,212.09 792.571,209.04 797.171,208.4 	"/>
	<polygon points="787.631,174.4 785.501,172.23 781.741,172.63 780.791,174.01 785.161,180.76 	"/>
	<polygon points="805.241,203.85 803.281,207.39 800.811,209.88 804.641,213.42 806.921,212.57 810.701,214.93 812.441,212.2 
		810.731,209.17 809.891,207.64 808.211,206.18 	"/>
	<polygon points="808.321,173.91 807.591,171.03 802.591,172.29 799.251,170.18 795.931,174.98 799.021,181.26 793.301,180.09 
		793.241,183.1 800.211,190.15 802.151,193.53 804.851,194.26 809.451,190.85 809.951,182.64 805.711,178.57 	"/>
	<polygon points="857.291,262.79 858.391,259.67 857.681,258.44 856.531,258.31 855.451,260.11 855.321,260.52 856.061,262.29 	"/>
	<polygon points="800.781,159.22 805.401,158.11 806.681,149.86 806.591,143.91 804.451,138.35 804.231,139.95 800.291,139.25 
		796.071,143.34 793.051,142.97 793.231,151.89 797.831,151.02 797.771,157.49 	"/>
	<polygon points="817.521,128.3 817.851,126.81 815.881,124.36 810.231,124.17 810.981,127.85 816.231,128.68 	"/>
	<polygon points="814.341,102.31 819.471,102.19 817.251,106.19 817.211,111.49 820.221,117.25 826.031,119.02 830.991,118.03 
		836.171,107.3 840.021,102.85 836.641,97.88 834.431,87.23 829.831,84.04 825.111,80.36 821.531,70.8 815.011,71.74 816.241,75.89 
		813.371,77.14 811.431,82.46 809.491,89.92 811.271,97.18 	"/>
	<polygon points="853.871,175.25 856.951,180.35 857.761,180.92 860.831,179.65 863.851,179.85 866.831,180.13 866.581,177.49 
		861.741,172.11 855.321,171.03 853.971,171.7 	"/>
	<polygon points="833.471,164.57 839.231,164.39 847.271,162.78 850.861,164.06 855.041,161.8 856.791,158.96 856.161,154.44 
		853.161,150.21 848.601,149.41 842.891,150.38 838.431,152.82 834.341,151.88 830.561,151.38 828.781,148.68 825.561,146.07 
		826.201,141.64 823.781,137.66 818.261,137.69 815.151,133.7 809.371,132.9 808.311,138 811.561,141.74 817.361,143.19 
		820.171,148.28 820.511,153.88 821.481,159.87 828.931,163.29 	"/>
	<polygon points="816.631,162.47 818.161,158.33 817.141,154.87 814.691,150.95 810.661,153.97 809.171,158.89 812.571,161.68 	"/>
	<polygon points="845.131,257.9 845.741,259.53 847.721,259.67 851.001,256.33 851.061,255.14 847.211,255.08 	"/>
	<polygon points="893.561,232.32 897.971,238.92 901.421,241.77 906.341,233.9 907.211,228.97 902.801,228.5 898.771,221.8 
		894.321,220.16 887.721,215.19 892.871,211.56 890.221,204.02 887.781,200.67 881.011,197.32 878.091,191.77 872.881,193.76 
		872.521,189.9 868.661,185.58 862.441,180.87 859.791,184.58 854.241,187.24 854.661,181.18 849.851,171.13 842.741,175.19 
		840.151,182.89 837.941,176.97 840.001,170.6 832.761,173.25 829.881,177.24 827.731,185.66 828.621,194.71 832.601,194.75 
		829.671,198.67 832.001,201.63 836.551,202.88 842.481,205.3 852.681,207.12 857.761,206.08 859.261,203.66 861.471,206.45 
		863.941,206.91 866.911,211.87 865.111,213.85 870.791,216.48 875.081,220.16 876.161,222.71 876.931,225.95 873.301,232.88 
		872.321,236.32 873.261,238.74 867.491,239.6 862.221,239.72 860.371,244.59 862.741,246.82 870.851,245.79 870.811,243.9 
		874.891,247.05 879.071,250.33 878.091,252.1 881.491,255.12 887.511,258.65 895.111,261.04 894.651,258.95 891.731,255.28 
		887.771,249.91 894.801,254.91 898.341,256.57 899.311,252.13 897.491,245.83 896.331,244.1 892.521,241.07 889.571,237.16 
		889.921,233.22 	"/>
	<polygon points="902.131,335.76 901.151,333.78 900.091,335.04 900.791,336.4 904.351,338.11 905.391,337.85 906.771,336.19 
		904.171,336.3 	"/>
	<polygon points="907.261,324.34 904.391,322.54 900.701,321.45 899.731,321.82 902.341,323.86 905.971,325.2 907.331,325.12 	"/>
	<polygon points="734.331,327.65 733.171,325.31 730.371,323.54 728.981,321.49 728.031,319.99 725.391,319.53 723.671,318.86 
		720.731,317.9 720.491,318.92 721.571,321.3 724.461,322.08 724.961,323.31 727.471,324.81 728.311,326.32 732.911,328.24 	"/>
	<polygon points="932.141,329.13 931.781,326.89 929.821,327.61 930.691,324.5 927.891,323.18 926.601,324.23 924.111,323.05 
		925.091,321.54 923.211,320.61 921.381,322.08 923.241,318.26 924.741,315.46 925.281,314.24 923.981,314.04 921.551,315.59 
		919.811,318.12 916.911,325.04 914.561,327.6 915.781,328.74 914.031,330.21 914.461,331.44 919.901,331.57 922.911,331.32 
		925.601,332.33 923.621,334.26 925.291,334.4 928.541,330.82 929.321,331.35 928.711,334.72 930.551,335.49 931.821,335.34 
		933.001,331.73 	"/>
	<path d="M924.321,306.52l-1.13-1.77l-2.18-0.63l-1.11-4.05l-1.8-1.55l-4.47-1.26l-2.52-2.82l-3.73-2.83l1.13-3.2l-3.1-6.26
		l-3.65-6.89l-2.18-4.98l-1.86,2.61l-2.68,6.05l-4.06,2.97l-2.03-3.16l-2.56-0.85l-0.93-6.99l0.08-4.8l-5-0.44l-0.85-2.27
		l-3.45-3.44l-2.61-2.04l-2.32,1.58l-2.88-0.58l-4.81-1.65l-1.95,1.4l0.94,9.18l1.22,5.12l-3.31,5.75l3.41,4.02l1.9,4.44l0.23,3.42
		l-1.55,3.5l-3.18,3.46l-4.49,2.28l1.98,2.53l1.46,7.4l-1.52,4.68l-2.16,1.46l-4.17-4.28l-2.03-5.17l-0.87-4.76l0.46-4.19
		l-3.05-0.47l-4.63-0.28l-2.97-2.08l-3.51-1.37l-2.01-2.38l-2.8-1.94l-5.21-2.23l-3.92,1.02l-1.31-3.95l-1.26-4.99l-4.12-0.9
		l0.15-6.41l1.09-4.48l3.04-6.6l3.43-4.9l3.26-0.77l0.19-4.05l2.21-2.68l4.01-0.42l3.25-4.39l0.82-2.9l2.7-5.73l0.84-3.5l2.9,2.11
		l3.9-1.08l5.49-4.96l0.36-3.54l-1.98-3.98l2.09-4.06l-0.17-3.87l-3.76-3.95l-4.14-1.19l-3.98-0.62l-0.15,8.71l-2.04,6.56l-2.93,5.3
		l-2.71-4.95l0.84-5.61l-3.35-5.02l-3.75,6.09l0.01-7.99l-5.21-1.63l2.49-4.01l-3.81-9.59l-2.84-3.91l-3.7-1.44l-3.32,6.43
		l-0.22,9.34l3.27,3.29l3,4.91l-1.27,7.71l-2.26-0.2l-1.78,5.88l0.02-7l-4.34-2.58l-2.49,1.33l0.32,4.67l-4.09-0.18l-4.35,1.17
		l-4.95-3.35l-3.13,0.6l-2.82-4.11l-2.26-1.84l-2.24,0.77l-3.41,0.35l-1.81,2.61l2.86,3.19l-3.05,3.72l-2.99-4.42l-2.39,1.3
		l-7.57,0.87l-5.07-1.59l3.94-3.74l-3.78-3.9l-2.75,0.5l-3.86-1.32l-6.56-2.89l-4.29-3.37l-3.4-0.47l-1.06,2.36l-3.44,1.31
		l-0.38-6.15l-3.73,5.5l-4.74-7.32l-1.94-0.89l-0.63,3.91l-2.09,1.9l-1.93-3.39l-4.59,2.05l-4.2,3.55l-4.17-0.98l-3.4,2.5
		l-2.46,3.28l-2.92-0.72l-4.41-3.8l-5.23-1.94l-0.03,0.07l-3.05-1.13l-4.25-2.46l-3.73,1.34l-2.16-1.07l-5.39-0.78l-5.91-2.64
		l-2.86,0.84l-4.29-1.43l0.17-1.95l-4.74-0.51l-1.25,1.65l-2.03-3.87l-4.24-1.83l-4.31,4.61l-2.58-0.57l-5.31,3.76l-2.73,0.95
		l-2.86,3.91l-0.67,3.92l-3.54,3.58l-4.97,0.25l-1.57,4.03l3.85,2.38l2.69,3.17l1.99,3.64l3.45,2.72l2.28,4.34l-5.92,0.27l0.38-3.48
		h-2.31l-6.25,3.41l-3.94,2.87l3.55,3.91l1.18,2.65l4.11,1.56l3.97-0.73l2.21,1.43l0.85-1.43l2.98-1.43l1.72-0.07l-2.08,2.52
		l1.57,1.16l0.52,2.92l-2.14,1.96l-2.04-0.54l-2.26,3.01l-1.92-0.99l-2.27,0.45l-1,3.15l-2.29,3.37l-1.08,3.41l2.16,2.48l0.01,3.25
		l1.92,1.36l2.37,2.63l3.65-1.07l1.81,1.98l-0.51,2.02l0.24,3.23h1.72l2.8-2.17l1.05,2.7l0.76-1.94l1.83,2.73l1.52-1.95l0.9,0.93
		l3.23-1.64l-1.43,3.17l-0.48,4l-2.07,1.83l-0.63,1.03l-3.89,3.05l-1.38,2.06l-3.48,0.56l-2.99,2.71l-2.74,1.51l-3.07,2.27
		l0.44,0.81l4.81-1.38l2.33-1.63l2.85-1.67l2.62-1.38l1.92,0.38l3.28-2.13l0.89-2.36l4.38-2.63l0.69-2.29l2.81-1.59l3.01-2.21
		l2.65-3.85l-2.05-2.65l4.04-3.95l1.91-3.77l3.57-3.22l0.77,1.46l-2.98,1.77l-1.26,5.53l0.4,3.24l3.11-1.16l2.47-1.86l3.24-1.16
		l1.55-0.36l-0.58-3.93l3.11-1.21l3.33,2.43l5.51,2.59l3.88-0.48l4.9,1.99l2.68,1.05l5.8,5.64l3.29,1.54l4.46,0.13l2.69,0.34
		l1.51,4.94l3.61,4.13l0.79,4.36l2.47,1.57l1.54,1.83l0.07-0.04l0.06,2.48l3.39,3.45l0.49,3.76l3.59,1.96l-0.4,2.79l1.56,3.96
		l5.08,1.82l2,1.89l5.43,4.23l0.38,0.01l-0.09,0.09l0.95,3.47l0.45,3.41l-0.69,1.09l-1.49-3.91l-4.05-1.42l-0.34,0.82l0.82,1.94
		l0.89,3.53l0.51,5.42l-0.34,3.59l-0.34,3.54l-1.1,3.61l0.9,2.9l0.1,3.2l-0.61,3.05l1.49,1.99l0.39,2.95l2.17,2.99l1.24,1.17
		l-0.1,0.82l2.34,4.85l2.72,3.45l0.34,1.87l0.71,0.55l2.6,0.33l1,0.91l1.57,0.17l0.31,0.96l1.31,0.4l1.82,1.92l0.47,1.7l0.016-0.001
		l1.114,2.891l1.3,2.61l1.04,2.12l1.04,2.01l1.64,0.89l2.16,2.27l-0.11,1.43l-1.04,1.18l-1.15-0.18l-0.2,0.24l1.65,1.83l1.73,0.75
		l0.7,0.82l0.37-0.4l1.93,1.39l1.34,0.96l0.42,1.68l-0.09,2.25l1.44,0.78l2.02,1.48l1.83,1.73l0.74,1.85l0.5,0.01l1.18-1.11
		l0.07-0.54l-1.02-1.36l-1.13-1.39l-1.35-0.1l-0.15-1.62l-0.78-1.44l-0.83-1.35l-0.93-2.89l-1.77-1.6l-0.59-1.11l-0.85-0.8
		l-0.57-2.04l-0.5,0.05l-0.36-1.1l-0.43-0.22l-0.46-0.75l-2.08-2.21l-0.97-1.33l-0.27-2.43l-0.46-1.56l0.45-1.33l1.6,0.9l0.93-0.14
		l2.03,1.29l-0.04,1.25l0.99,2.48l1.51,2.42l0.12,1l1.32,1.55l1.62,1.66l1.51,0.26l0.7,2.19l1.66,1.52l1.43,0.73l-0.43,1.92
		l0.51,0.76l2.41,1.26l1.36,1.91l2.82,2.39l2.47,3.02l0.94,1.52l0.26,1.2l0.94,1.34l-0.01,1.04l-0.65,0.77l0.29,0.85l-0.93,0.29
		l0.67,1.45l1.4,1.87l3.01,1.67l1.17,1.34l2.87,0.93l1.57,0.17l0.71,0.78l2.34,1.4l3.18,1.35l2.1,0.41l2.62,1.33l2.1,0.56l1.98,0.76
		l1.41-0.29l2.26-1.09l1.56-0.21l2.29,0.76l1.45,0.94l3.17,3.11l1.51,1.18l1.28,0.57l1.75,0.05l1.44,0.5l0.79,0.62l1.56,0.18
		l1.16,0.57l1.01,0.27l1.62,0.04l0.31-0.67l0.86,0.25l0.48,0.89l-0.21,0.21l-0.47-0.43l-0.31,0.44l1.41,1.29l1.18,0.89l0.62,0.96
		l1.31,1.15l0.97,0.9l-0.64,0.54l0.79,0.4l-0.37,0.9l-0.02,0.86l0.38,0.57l0.9,0.28l0.64,0.78l0.56-0.67l-0.18-0.83l0.74,0.51
		l0.18,0.83l0.97,0.36l1.1,0.55l0.78,0.68l0.1,0.62l-0.32,0.49l0.57,0.59l1.52,0.63l0.32,0.42l0.09-0.61h1.2l0.73,0.33l1.15,0.18
		l0.56,1.14l0.93,0.16l0.36-0.48l0.49,1.68l1.3-0.14l0.41-0.42l0.76-0.36l-1.33-1.52l0.27-0.59l0.61-0.1l1.14-0.7l0.56-0.98
		l1.23-0.18l1.4,0.78l0.52,0.93l0.71,0.19l-0.69,0.75l0.6,1.52l0.93,0.81l1.14,1.5l0.44,2.37l-0.6,0.73l0.63,2.56l-0.53,1.62
		l1.04,0.67l-1.07,1.46l-1.19,1.75l-1.39,0.19l-0.65,1.01l0.12,1.39l-1.05,0.21l0.38,0.87l-1.92,1.11l-1.54,0.6l0.2,1.13l-1.06,1.8
		l-0.52,1.73l-0.98,0.42l0.47,2.53l-0.57,0.78l1.68,1.23l1.07-1.3l0.61,1.22l-1.49,2.08l-2.24,1.77l-0.87,1.95l1.36,2.67l-0.91,1.25
		l2,1.13l2.18,1.84l0.88,2.06l1.15,1.29l2.64,5.62l2.77,5.24l2.37,3.75l-0.46,0.83l1.16,2.37l2.17,1.78l5.03,3.17l5.55,2.92
		l0.25,1.2l2.81,1.68l0.007,0.006l-0.007,0.004l0.58,4.15l0.21,4.87l-0.88,6.75l-0.9,6.37l-0.51,6.04l-1.64,3.87l0.34,3.96
		l-0.84,2.67l0.65,4.91l-1.19,4.97l-1.94,5.43l-1.72,5.6l-1.18,0.11l0.23,3.98l0.81,3.5l-1.29,2.48l-0.96,6.84l-0.88,5.42l1.77,0.54
		l0.88-4.75l1.88,1l-1.46,7.97l-3.12-1.37l-0.95,6.56l-2.67,3.57l4.26,1.19l-2.96,3.19l-1.19,4.03l0.36,7.34l1.41,2.94l-0.79,2.62
		l0.88,2.87l3.49,2.63l3.21,3.25l3.16,1.54l1.19-0.11l0.45-4.38l2.53-1.67l1.35-1.13l2.49,0.03l-2.6-0.71l-6.78-0.61l-1.16-2.63
		l0.05-3.33l-1.87,0.28l-0.99-1.6l-0.25-4.6l2.15-1.88l0.89-2.68l-0.33-2.11l1.49-3.52l1.02-5.35l-0.3-2.33l1.22-0.75l-0.3-1.48
		l-1.3-0.78l0.92-1.63l-1.27-1.46l-0.65-4.4l1.13-0.77l-0.47-4.54l0.66-3.75l0.75-3.22l1.68-1.3l-0.85-3.46l-0.01-3.22l2.12-2.26
		l-0.06-2.87l1.6-3.31l0.01-3.09l-0.73-0.61l-1.29-5.69l1.73-3.34l-0.27-3.11l1-2.9l1.84-2.96l1.98-1.95l-0.84-1.23l0.59-1
		l-0.09-5.14l3.05-1.51l0.96-3.16l-0.34-0.76l-2.02,0.41l-1.1-4.15l-1.51-3.34l0.88-2.87l-1.47-1.25l-0.37-2.12l-1.367-1.986
		l-0.003-0.014l1.77-3.14l-1.21-2.44l0.65-0.97l-0.51-1.07l1.1-1.44l0.06-2.44l0.13-2.02l0.61-0.96l-2.43-4.58l-1.58,0.49
		l-1.28-0.33l0.19-4.3l-2.3,1.66l-2.47-0.07l-1.06-1.51l-1.86-0.16l0.59-1.21l-1.56-1.72l-1.17-2.53l0.74-0.51v-1.19l1.7-0.81
		l-0.28-1.51l0.71-0.98l0.21-1.3l3.2-1.91l2.3-0.53l0.37-0.42l2.53,0.13l1.26-7.65l0.07-1.21l-0.44-1.59l-1.24-1.02l0.01-2.02
		l1.58-0.46l0.56,0.29l0.09-1.07l-1.64-0.29l-0.03-1.74l5.46,0.06l0.93-0.96l0.78,0.88l0.54,1.65l0.53-0.35l-0.85-2.77l-0.75-0.98
		l-1.02-0.61l1.42-1.39l-0.09-0.63l-0.8-0.83l-0.56-1.85l0.22-2.01l0.62-0.94l0.51-1.5l-0.99-0.49l-1.6,0.32l-2.02-0.15l-1.13,0.3
		l-1.98-2.41l-1.63-0.36l-3.6,0.27l-0.67-0.98l-0.69-0.23l-0.1-0.59l0.33-1.04l-0.22-1.13l-0.62-0.62l-0.36-1.3l-1.44-0.18
		l0.77-1.66l0.35-2.01l0.81-1.06l1.09-0.81l0.71-1.42l1.8-0.48l0.54-0.96l-0.73-0.75l-1-0.17l-1.35,1.37L877,449.9l-2.21,1.43
		l-2.2-0.23l-0.22,0.59l-1.76,0.05l-1.61,1.32l-0.52,2.39l-0.03,0.93l-1.15,0.3l-2.11,1.97l-1.44-0.09l-1.06-0.78l-0.91-0.84
		l-1.25-0.49l-1.57-0.1l0.11-0.28l-1.55-0.16l-0.96,0.84l-1.7,0.57l-1.19,0.71l-1.38,0.21l-0.77-0.7l-0.27,0.23l-1.12-0.12l0.06-0.6
		l-1-1.01l-1.32-1.21l-1.08-1.14l-0.72-1.54l-0.42-0.47l-0.14-0.76l0.58-0.73l-0.19-0.75l0.26-1.22l0.43-0.28l-0.07-1.29l-0.16-0.73
		l0.1-1.27l0.3-1.15l0.64-0.98l-0.28-1.05l0.14-0.64l0.24-0.28l-0.74-0.8l-1.02-0.44l-0.81-0.65l-0.85-0.54l-0.45-0.06l-1.28-0.4
		l-0.56,0.25l-0.73,0.07l-0.67-0.2l-0.89-0.15l-0.33,0.32l-0.9,0.32l-1.3,0.08l-1.3-0.26l-0.44,0.14l-0.26-0.23l-0.8,0.04
		l-0.62,0.51l-0.29-0.12l-0.82-0.37l-0.24,0.44l-0.92-0.53l0.56-1l0.51-0.09l0.55-0.78l0.32-1.47l-0.17-0.27l0.29-1.05l-0.25-0.45
		l0.46-1.27l0.04-0.8l-0.53-0.01l-0.01-0.43l0.59-0.05l0.71,0.75l0.7-2.29l0.42-1.28l-0.51-0.51l0.66-1.81l1.51-1.77l0.09-1.44
		l-0.67-0.63l-1.7,0.25l-2.48-0.1l-2.97,0.69l-1.89,0.79l-0.49,0.87l-0.23,2.49l-0.67,1.73l-1.78,1.2l-1.77,0.51l-2.1,0.53
		l-2.13,0.29l-2.46,0.82l-1.16-1.22l-2.98-0.79l-1.1-1.45l-0.65-1.69l-1.86-2.21l-0.56-2.31l-0.87-1.47l-0.49-1.64l0.27-1.47
		l0.21-4.08l0.49-2.21l1.056-2.625l0.064-0.005l-0.035-0.069l0.005-0.011l-0.01,0.001l-0.49-0.981l-0.14-1.5l0.03-2.16l0.65-1.42
		l1.53-1.51l2.79-1.37l2.55-2.37l2.36-0.75l1.74-0.23l2.04,0.74l2.45-0.4l2.09,1.69l2.03,0.1l1.05-0.61l1.04,0.47l0.53-0.42
		l-0.6-0.63l0.05-1.3l-0.5-0.86l1.16-0.5l2.14-0.22l2.49,0.36l3.17-0.41l1.76,0.8l1.36,1.5l0.5,0.16l2.83-1.46l1.09,0.49l2.19,2.68
		l0.79,1.75l-0.58,2.1l0.42,1.23l1.3,2.4l1.49,2.68l1.07,0.71l0.44,1.35l1.38,0.37l0.84-0.39l0.7-1.89l0.12-1.21l0.09-2.1
		l-1.33-3.65l-0.02-1.37l-1.25-2.25l-0.94-2.75l-0.5-2.25l0.43-2.31l1.32-1.94l1.58-1.57l3.08-2.16l0.4-1.12l1.42-1.23l1.4-0.22
		l1.84-1.98l2.9-1.01l1.78-2.53l-0.39-3.46l-0.29-1.21l-0.8-0.24l-0.12-3.35l-1.93-1.14l1.85,0.56l-0.6-2.26l0.54-1.55l0.33,2.97
		l1.43,1.36l-0.87,2.4l0.26,0.14l1.58-2.81l0.9-1.38l-0.04-1.35l-0.7-0.64l-0.58-1.94l0.92,0.9l0.62,0.19l0.21,0.92l2.04-2.78
		l0.61-2.62l-0.83-0.17l0.85-1.02l-0.08,0.45l1.79-0.01l3.93-1.11l-0.83-0.7l-4.12,0.7l2.34-1.07l1.63-0.18l1.22-0.19l2.07-0.65
		l1.35,0.07l1.89-0.61l0.22-1.07l-0.84-0.84l0.29,1.37l-1.16-0.09l-0.93-1.99l0.03-2.01l0.48-0.86l1.48-2.28l2.96-1.15l2.88-1.34
		l2.99-1.9l-0.48-1.29l0.06-0.07l3.12-0.48l4.49-0.13l-4.87,3.26l0.11,3.29l2.13,0.28l3.13-2.79l2.78-1.58l6.21-2.35l3.47-2.62
		l-1.81-1.46l-0.29-2.92l-2.81,4.56l-4.63,0.58l-3.64-2.01l-0.92-3.07l-0.89-4.46l2.65-2.83l-2.48-2.09l-4.19,0.43l-5.88,3.53
		l-4.5,5.45l-2.38,0.67l3.23-3.8l4.04-5.57l3.57-1.9l2.35-3.11l2.9-0.3l4.21,0.03l6,0.92l4.74-0.71l3.53-3.62l4.62-1.59l2.01-1.58
		l2.04-1.71L924.321,306.52z M758.748,386.864l-0.037-0.014l0.23-0.566l0.04-0.004L758.748,386.864z M856.971,352.53l-2.11,1.09
		l-1.44,0.51l-1.66,1.03l-2.03,0.5l-1.4-0.19l-1.73-0.77l0.96-1.45l0.62-1.32l1.32-2.09l-0.14-1.57l-0.5-2.24l-1.04-0.39l-1.74,1.7
		l-0.56-0.03l-0.14-0.97l1.54-1.56l0.26-1.79l-0.23-1.79l-2.08-1.55l-2.38-0.8l-0.39,1.52l-0.62,0.4l-0.5,1.95l-0.26-1.33
		l-1.12,0.95l-0.7,1.32l-0.73,1.92l-0.14,1.64l0.93,2.38l-0.08,2.51l-1.14,1.84l-0.57,0.52l-0.76,0.41l-0.95,0.02l-0.26-0.25
		l-0.76-1.98l-0.02-0.98l0.08-0.94l-0.35-1.87l0.53-2.18l0.63-2.71l1.46-3.03l-0.42,0.01l-2.06,2.54l-0.38-0.46l1.1-1.42l1.67-2.57
		l1.91-0.36l2.19-0.8l2.21,0.42l0.09,0.02l2.47-0.36l-1.4-1.61l-0.75-0.13l-0.86-0.16l-0.59-1.14l-2.75,0.36l-2.49,0.9l-1.97-1.55
		l-1.59-0.52l0.9-2.17l-2.48,1.37l-2.25,1.33l-2.16,1.04l-1.72-1.4l-2.81,0.85l0.01-0.6l1.9-1.73l1.99-1.65l2.86-1.37l0.09-0.09
		l1.14-1.66l1.59-0.66l0.62-1.03l0.63-0.55l2.61,0.86l1.93,0.1l0.67,0.57l0.94,2.38l3.15,0.63l-0.49,1.18l1.11,1.21l-0.48,1.56
		l1.18,0.51l-0.59,1.37l0.75,0.13l0.53-0.6l0.55,0.9l2.1,0.5l2.13,0.04l2.27,0.41l2.51,0.78l0.91,1.26l1.82,3.04l-0.9,1.3
		l-2.28-0.54l-1.42-2.44l0.36,2.49l-1.34,2.17l0.15,1.84l-0.23,1.07l-1.81,1.27l-1.32,2.09l-0.62,1.32l1.54,0.24l2.08-1.2l1.23-1.06
		l0.83-0.17l1.54,0.38l0.75-0.59l1.37-0.48l2.347-0.452l0.002,0.012l0.05,0.37L856.971,352.53z M864.921,348.76l-2.3-0.32l-2.2-0.14
		l-1.24,0.41l0,0l-0.13,0.04l-0.86,0.2l-1.12-0.36l0.84-1.32l0.85-0.46l1.98-0.56l2.37-0.53l1.24,0.73l0.78-0.85l0.89-0.54l0.6,0.29
		l0.011,0.022l-0.071,0.068l0.29,0.54l0.17,1.51L864.921,348.76z"/>
	<polygon points="888.191,666.72 888.191,656.15 886.191,655.6 883.611,657.51 882.701,660.71 881.251,662.88 877.531,661.18 
		873.591,658.05 871.281,657.08 875.141,662.33 878.001,664.9 881.531,667.61 884.471,668.32 886.511,669.8 888.171,670.2 
		889.551,670.36 891.951,668.83 892.881,666.85 891.191,666.72 	"/>
	<polygon points="274.661,428.13 275.891,426.83 275.261,425.7 273.651,425.63 270.591,426.46 269.211,427.8 269.291,430.33 
		271.591,431.24 274.011,429.83 	"/>
	<polygon points="467.691,529.07 466.801,529.23 465.401,529.83 465.761,530.92 467.551,530.31 469.331,529.59 469.561,529.43 
		469.911,528.03 469.331,528.16 	"/>
	<polygon points="464.071,532.34 462.801,531.98 461.721,532.98 461.991,534.27 463.541,534.63 465.281,534.23 465.741,532.7 
		464.781,531.86 	"/>
	<polygon points="299.201,486.59 298.801,488.8 297.641,490.63 298.511,492.54 299.691,492.56 300.121,495.25 299.321,497.82 
		300.521,498.64 302.301,498.23 302.191,494.23 301.951,490.98 303.821,490.13 303.611,492.85 305.631,494.49 305.271,495.57 
		305.971,496.34 308.721,495.26 307.361,497.55 308.461,498.53 309.961,497.71 309.981,495.87 307.461,492.65 307.971,491.69 
		305.321,488.12 307.791,487.04 309.011,485.41 310.231,485.81 310.461,484.53 305.231,485.48 303.721,486.74 301.211,484.26 
		301.611,482.15 304.061,481.75 308.731,481.61 311.431,482.15 313.541,481.61 315.791,478.85 315.301,478.24 312.531,480.26 
		309.311,480.38 305.771,479.99 303.581,479.17 301.201,481.24 300.611,482.39 	"/>
	<polygon points="303.101,511.48 303.261,510.71 302.281,509.85 300.811,508.99 298.201,509.55 301.921,511.53 	"/>
	<path d="M270.121,481.65l0.39,2.44l1.35,2.38l1.4,0.77l0.43,3.74l2.31,0.32l1.84-0.15l1.02,1.35l3.33-1l1.4,0.89l2,0.16l1.11,1.71
		l3.19-1.26l0.41,0.99l1.08-4.27l0.06-2.77l2.7-1.91l-0.12-2.52l0.94-1.9l3.32-0.33l-3.14-2.58l0.49-1.28l-2.06-2.64l1.59-2.52l0,0
		l2.06-0.95l-0.49-1.35l1.88-0.14l0.2-1.1l-2.34-0.84l-1.85-0.78l-0.13-1.22l-1.44-1.42l-1.13,0.01l-1.41,2.19l-2.16,1.95
		l-0.01-0.01l-2.39,1.53l-1.11,1.05l0.005,0.006l-1.375,1.764l-2.01,2.21l-3.36,0.6l-1.2,0.53l-0.56,2.36l-2.17,0.52l-2.05-0.96l0,0
		l-1.67,1.85L270.121,481.65z M292.731,470.8l1.41,0.273L292.731,470.8L292.731,470.8z"/>
	<polygon points="308.831,506.98 309.241,505.42 306.741,506.44 304.871,506.65 303.111,505.81 300.881,506.4 300.891,507.43 
		304.621,507.78 	"/>
	<polygon points="296.221,506.18 295.211,505.43 294.461,506.44 292.921,506.46 291.961,508.08 293.471,508.1 295.411,507.72 
		298.651,507.15 297.951,505.95 	"/>
	<polygon points="340.671,499.95 340.941,502.06 342.381,500.15 342.401,498.81 341.761,497.99 341.171,498.94 	"/>
	<polygon points="261.491,494.81 262.191,491.34 260.831,489.58 258.771,489.33 257.791,487.77 257.311,485.83 256.301,485.76 
		254.691,484.79 255.811,482.52 253.681,481.25 252.061,478.92 249.701,477.01 246.851,476.97 244.191,473.97 242.641,472.81 
		240.471,470.92 237.991,468.19 233.651,467.65 231.841,467.54 232.091,468.96 235.011,472.04 237.121,473.6 238.591,475.99 
		241.121,477.74 242.151,479.91 242.971,482.3 245.431,484.62 247.561,488.52 248.951,490.61 251.071,492.88 252.271,494.57 
		255.871,496.85 258.231,499.19 261.331,499.13 	"/>
	<polygon points="323.921,490.73 323.251,492.26 325.191,492.36 326.771,492.18 329.111,492.41 331.481,493.56 330.461,491.43 
		327.381,490.61 	"/>
	<polygon points="323.531,478.26 323.331,476.74 322.401,477.75 321.841,479.98 322.671,483.54 323.801,485.3 324.591,484.97 
		323.431,483.5 323.861,481.81 325.311,482.08 325.461,479.65 325.191,478.5 	"/>
	<polygon points="285.861,507.27 289.061,506.2 285.621,504.53 281.411,504.02 280.391,502.2 275.191,500.85 274.571,502.01 
		269.201,501.73 268.801,500.71 267.641,500.5 265.381,499.41 261.981,499.24 260.061,501.92 262.631,502.13 263.121,503.34 
		268.231,504.5 269.401,504.15 271.461,504.43 274.711,505.5 277.331,506.01 280.241,506.22 282.781,506.14 	"/>
	<polygon points="317.881,491.66 318.431,492.86 320.371,493.37 321.421,492.44 320.721,491.53 	"/>
	<polygon points="315.021,507.68 312.251,508.8 311.041,510.52 310.791,511.48 311.131,511.82 313.531,511.2 315.351,509.1 
		315.301,508.24 	"/>
	<polygon points="358.031,348.48 356.641,351.42 357.031,355.16 360.151,355.1 361.681,350.98 366.091,353.56 368.551,349.8 
		372.711,348.75 372.091,344.4 370.111,346.05 368.141,345.22 365.971,343.92 362.681,339.8 361.851,342.89 361.031,348.27 	"/>
	<polygon points="353.971,368.74 349.861,372.25 347.991,370.58 345.061,376.75 342.061,376.05 336.481,377.07 334.421,379.4 
		331.601,381.15 330.131,383.26 327.481,384.29 328.621,386.57 330.391,387.53 329.701,390.49 331.061,391.76 332.871,390.39 
		334.741,384.78 331.901,382.32 335.181,382.26 338.501,380.67 343.381,379.92 343.491,382.44 345.371,383.73 349.371,379.89 
		354.301,379.68 357.881,378.08 359.341,375.66 358.851,373.93 359.911,371.15 359.861,367.52 362.451,363.92 362.531,360.98 
		361.001,355.87 358.021,356.55 356.841,358.88 357.321,362.98 355.561,367.36 	"/>
	<polygon points="338.331,384.32 339.771,383.54 340.921,384.61 342.501,382.58 342.141,381.43 340.071,380.71 338.921,382.13 
		337.331,381.74 335.781,383.74 335.761,385.32 337.591,386.27 	"/>
	<polygon points="433.211,546.14 431.761,544.76 429.461,542.9 428.561,542.07 427.331,541.06 425.751,540.05 424.551,540 
		424.941,541.01 426.791,543.11 428.601,544.7 430.601,546.05 432.151,546.87 	"/>
	<polygon points="450.401,609.58 449.761,608.05 449.151,606.49 447.181,608.19 446.761,610.26 445.701,611.21 444.451,614.02 
		442.771,616 440.371,618.01 438.361,619.48 436.551,620.21 433.021,624.08 431.511,627.04 431.981,628.52 435.031,628.8 
		436.851,630.14 439.431,630.23 440.831,629.07 443.031,627.27 444.621,623.24 445.371,620.67 447.771,619.21 449.931,619.16 
		448.901,617.3 450.331,615.76 452.161,612.96 453.201,611.22 453.201,609.65 452.391,608.08 	"/>
	<polygon points="462.151,597.35 460.261,597.07 458.001,595.92 457.581,593.27 456.311,592.32 456.251,594.7 454.221,591.03 
		453.431,587.99 451.251,587.1 449.721,585.21 448.681,585.48 449.851,587.89 452.061,590.93 453.401,592.36 453.321,592.97 
		454.461,595.31 454.591,597.59 454.121,600.33 452.091,601.58 452.011,602.89 455.031,604.34 455.951,606.35 454.331,609.39 
		455.501,609.93 455.981,610.91 458.151,609.42 459.541,606.89 460.601,604.92 461.011,604.24 460.751,602.68 461.501,601.58 
		463.641,601.65 464.491,599.56 465.171,596.41 463.751,596 	"/>
	<polygon points="390.681,492.45 391.951,493.36 392.601,494.44 393.131,496.09 394.011,495.35 393.671,493.89 392.601,493 
		391.481,491.83 390.301,491.16 389.351,490.55 387.841,489.77 387.061,490.44 389.081,491.26 	"/>
	<polygon points="399.411,498.32 398.561,497.69 398.261,496.86 397.871,497.13 398.471,499.26 399.701,501.04 400.911,502.12 
		401.701,501.84 402.091,501.04 400.771,500.09 	"/>
	<polygon points="385.591,496.77 385.191,496.84 384.771,498.18 383.241,498.4 380.731,497.99 380.501,498.86 382.101,499.64 
		384.401,500.45 385.891,500.45 387.331,499.79 388.861,499.11 389.301,498.32 390.771,498.09 391.701,496.4 391.761,494.85 
		391.191,494.39 389.511,494.44 389.821,496.09 388.251,497.09 387.461,498.05 385.861,498.26 	"/>
	<polygon points="384.491,510.44 385.331,509.91 383.161,509.43 383.271,508.18 381.661,508.27 379.841,505.28 377.341,503.44 
		376.721,501.59 379.301,501.29 378.621,499.8 373.951,498.07 373.521,496.42 371.961,495.01 370.031,493.58 364.851,491.98 
		359.981,490.06 359.971,490.082 359.971,490.05 356.961,489.52 354.881,488.52 352.481,487.55 349.991,487.55 346.771,489.23 
		344.431,492.19 341.531,490.52 340.751,486.01 340.301,484.99 335.801,483.85 334.361,484.76 330.581,485.43 331.771,486.81 
		334.271,487.32 335.381,488.98 339.481,488.99 339.721,489.73 337.721,489.68 334.701,490.68 336.841,492.05 336.851,493.26 
		337.491,494.28 338.571,494.03 339.401,492.67 343.611,495.25 345.921,495.48 351.361,497.85 352.711,500.2 353.441,503.25 
		351.671,504.03 350.481,506.32 354.031,506.23 354.721,505.43 357.571,506 360.071,508.31 360.071,508.298 360.081,508.32 
		362.981,508.44 364.551,508.91 366.751,507.94 366.391,505.86 368.101,504.93 370.481,504.13 374.141,505.36 375.601,507.82 
		377.191,509.37 379.371,511.17 382.201,511.6 384.611,511.92 385.301,512.65 387.161,512.45 387.471,511.63 	"/>
	<polygon points="303.441,447.13 304.641,448.55 305.381,446.08 304.411,445.05 302.011,444.95 	"/>
	<polygon points="306.381,449.44 306.811,450.79 306.611,452.24 306.711,453.56 308.491,452.71 309.791,451.51 309.841,450.32 
		308.061,450.32 	"/>
	<polygon points="298.261,453.74 296.581,455.7 294.551,457.44 293.171,459.41 296.901,456.74 298.381,454.79 300.231,453.23 
		299.731,450.92 	"/>
	<polygon points="309.351,452.32 309.041,454.08 308.341,454.87 307.761,455.63 309.491,457.58 310.371,456.74 311.251,454.95 
		312.261,454.02 312.531,451.32 310.451,454.06 310.901,452.15 	"/>
	<polygon points="316.521,448.67 315.761,447.6 313.071,447.54 314.781,449.72 314.821,450.8 313.171,450.57 313.611,452.29 
		314.451,452.44 314.571,454.43 315.901,453.8 315.211,452.05 315.151,451.1 317.311,451.85 	"/>
	<polygon points="310.891,458.5 309.361,459.56 307.591,460.35 306.491,462.72 306.951,463.54 309.031,461.97 310.351,462.08 
		311.231,460.91 313.011,462.24 312.151,463.57 312.941,465.6 316.241,467.23 317.041,465.92 316.141,463.86 317.451,462.44 
		318.471,465.3 319.431,462.73 319.261,461.15 318.971,459.28 318.791,458.24 318.551,456.82 316.281,455.48 316.451,457.66 
		314.471,457.74 314.011,459 311.881,459.77 	"/>
	<polygon points="300.871,439.38 301.291,440.64 302.671,442.29 303.031,441.25 303.871,441.92 302.991,442.65 302.851,443.84 
		304.251,444.47 306.801,444.05 308.591,445.77 309.311,444.72 310.351,446.22 312.531,447.62 312.821,446.3 311.901,445.61 
		312.171,444.05 308.671,442.46 307.431,442.8 305.941,442.48 305.311,440.19 305.751,437.86 307.401,436.9 308.141,434.48 
		307.181,432.39 307.641,431.17 307.391,430.42 306.531,431.18 304.801,430.34 303.101,430.36 302.191,433.02 301.901,437.57 
		300.771,436.61 	"/>
	<polygon points="469.331,198.07 472.991,197.55 475.881,195.49 476.121,194.3 472.061,191.79 469.681,191.77 469.321,192.14 
		465.751,195.78 466.251,198.51 	"/>
	<path d="M484.491,227.57l0.65,5.15l-1.89-1.74l0.24-4.44l-7.35-7.34l-6.87-5.86l-3.92-3.44l-8.06-3.84l-5.83,0.49l-8.95-2.29
		l-1.25,3.62l2.27,5.07l-3.47,2.48l-4.88-6.99l-5.31,0.89l-5.29-1.57l-4.97,0.21l-3.75,1.64l-3.45-2.29l0.34-6.02l-2.33-3.5
		l-5.58-1.41l-11.32,1.62l-7.34-6.65l-2.39-5.35l-25.32-6.06l-3.7,4.07l2.02,8.4l-4.59-1.24l-2.07,2.47l-5.43-2.72l-4.78,2.38
		l-4.5-4l-2.71,9.18l-4.41-3.49l-3.52-6.98l1.66-3.84l-1.29-6.04l-4.53-5.14l-4.48,0.05l-5.95-1.74l-0.16,7.47l-11.72-1.43
		l-0.68-4.58l-9-1.65l-4.48,1.57l-1.23,2.56l-1.43-6.39l-2.52,1.91l-4.15-2.55l-3.48-1.43l2.11-3.08l7.37-5.92l3.1-3.24l0.7-5.85
		l-2.25-4.35l-6.32-5.84l-8.2-0.16l-2.56,2.94l-0.76-6.03l-6.35-1.92l3.82-3.13l-4.81-4.21l-6.62,5.31l-2.68,5.33l-0.77,5.24
		l-5.15-0.2l-6.29,6.24l-2.29-2.61l-7.36,1.08l-0.94,3.15l-7.4,1.51l-5.45,5.51l-3.22,0.3l-3.25,7.02l2.28,5.38l-6.08,1.32
		l-6.74-0.44l-4.88,2.02l0.28,10.28l2.49,7.62l-5.18-5.18l-5.82,0.49l-4.69,3.58l1.28,6.37l-3-1.59l1.11-8.67l-1.47-5.19l-1.4,0.22
		l0.65,6.62l-5.02,6.04l3.64,7.03l-2.24,8.28l0.67,4.42l3.07,0.64l-1.31,5.08l1.63,4.26l-2.43,3.49l-0.74,3.55l-3.08,1.82
		l-1.12,2.51l-3.21-1.02l5.49-10.2l1.2-5.01l-3.09-4.73l0.64-11.07l-0.9-5.94l-1.74-2.78l2.66-7.28l-0.58-5.18l-7.42-2.51
		l-2.08,1.88l-1.84,8.42l-5.17,7.99l0.08,2.74l1.5,6.49l-0.92,3.83l3.38,0.78l0.08,1.68l2.85,4.11l-1.88,3.97l-10.16-8.8l-3.88-2.49
		l-8.28-2.44l-1.46,2.66l2.94,4.58l-3.19,5.09l-3.2-4.62l-4.16,3.19l-5.25,0.21l-2.01,2.58l-3.48-0.78l2.76-4.64l-2.11-0.38
		l-9.79,6.54l-5.86,3.52l-0.69,4.61l-4.33,1.54l-2.21-2.44l-0.02-4.04l3.55-0.91l-1.6-4.18l-7.84-2.44l2.06,4.69l-1.37,4.41
		l2.34,4.28l-1.63,4.81l-2.62-2.43l-2.59-0.4l-6.53,6.74l1.89,4.88l-2.36,1.59l-6.78-4.1l-1.78,2.51l1.69,2.8l-0.36,3.11l-2.19-1.66
		l-3.61-1.97l-0.18-6.75l-0.18-3.15l-4.57-5.1l2.06-0.9l12.52,5.31l4.58-1.85l3.11-3.69l-0.19-4.8l-2.15-3.51l-10.59-8.65
		l-7.68-1.88l-4.61-4.86l-2.89,2.81l-4.77,3.19l-2.26,0.72l-0.41,5.4l4.29,4.99l-2.59,5.48l3.26,7.96l-1.89,5.76l2.52,4.85
		l-1.15,4.15l4.15,4.26l-1.05,3.1l-2.6,3.45l-6,7.41l2.94,2.68l-3.19,3.07l0.42,0.96l-2,3.13l0.83,4.96l-1.2,1.66l1.35,1.19
		l0.24,2.49l0.9,2.99l2.95,1.26l0.4,1.24l1.47-0.59l2.74,1.18l0.27,2.31l-0.6,1.31l1.76,3.15l1.14,0.87l-0.17,0.86l1.89,0.83
		l0.81,1.25l-1.09,1.02l-2.26-0.16l-0.54,0.44l0.66,1.54l0.69,2.94l1.05,0.18l0.71-1.04l0.85,0.23l2.91-0.44l1.79,2.58l-0.7,0.91
		l0.23,1.39l2.24,0.22l1,1.93l-0.06,0.87l3.56,1.54l2.15-0.69l1.73,2.04l1.64-0.05l4.13,1.41l0.03,1.26l-1.14,2.23l0.62,2.33
		l-0.44,1.4l-2.71,0.31l-1.45,1.16l-0.09,1.83l2.52-0.66l0.07,0.9l-4.13,1.67l1.57,1.6l-2.33,3.35l-2.04,0.64l2.42,2.32l3.2,1.48
		l3.57,3.27l0.34-0.45l2.37,0.66l4.13,0.62l3.82,1.83l0.49,0.71l1.7-0.6l2.62,0.79l0.86,1.55l1.76,0.87l0.79,0.13l1.93,2.27
		l1.24,0.25l0.48-0.95l1.67-1.51l-3.06-4.46l0.28-2.59l-2.55-3.7l2.79-4.09l2.72-0.66l1.28-2.39l-1.42-0.66l0.28-2.1l-1.79-2.76
		l-2.08,0.12l-2.38-2.84l1.62-3.21l-0.82-0.87l2.24-4.77l2.88,2.53l0.35-3.19l5.79-4.85l4.38-0.12l6.18,3.1l3.32,1.79l2.98-1.87
		l4.45-0.09l3.59,2.29l0.81-1.31l3.94,0.19l0.7-2.11l-4.54-3.1l2.69-2.22l-0.53-1.25l2.69-1.2l-2.02-3.21l1.29-1.62l10.49-1.66
		l1.37-1.19l7.02-1.79l2.52-2.03l5.04,1.06l0.88,5.01l2.93-1.17l3.6,1.63l-0.23,2.58l2.69-0.27l7.03-4.49l-1.03,1.5l3.58,3.66
		l6.27,11.58l1.49-2.33l3.86,2.57l4.03-1.14l1.55,0.8l1.35,2.55l1.96,0.85l1.19,1.84l3.61-0.58l1.49,2.63l1.1-0.35l2.96-0.74
		l5.35-3.74l4.26-2.07l2.44,1.35l2.92,0.06l1.87,2.04l2.8,0.16l4.05,1.09l2.73-3.03l-1.14-2.6l2.9-4.66l3.14,1.87l2.54,0.53
		l3.3,1.15l0.53,3.32l3.98,1.84l2.65-0.81l3.55-0.57l2.81,0.58l2.75,2.09l1.7,2.2l2.6-0.04l3.53,0.7l2.58-1.06l3.69-0.71l4.11-3.06
		l1.68,0.47l1.47,1.46l3.329-0.358l-1.369,3.248l-1.98,4.23l0.72,1.71l1.59-0.53l2.77,0.65l2.16-1.54l2.25,1.33l2.54,2.89
		l-0.31,1.45l-2.21-0.46l-4.07,0.54l-1.97,1.16l-2.05,2.66l-4.28,1.55l-2.79,2.1l-2.88-0.8l-1.58-0.36l-1.47,2.54l0.9,1.5l0.45,1.28
		l-1.96,1.3l-2.01,2.05l-3.28,1.34l-4.2,0.14l-4.53,1.31l-3.26,2.01l-1.24-1.16h-3.39l-4.15-2.29l-2.77-0.57l-3.73,0.53l-5.79-0.85
		l-3.09,0.09l-1.65-2.27l-1.28-3.57l-1.73-0.43l-3.39-2.45l-3.78-0.55l-3.33-0.68l-1.01-1.73l1.08-4.73l-1.93-3.32l-4-1.57
		l-2.36-2.23l-0.74-2.97l-1.1,0.35l-2.13,2.83l-2.33,0.39l-0.13,4.19l-1.56,1.86l-5.56-1.35l-2.02,7.26l-1.44,0.89l-5.55,1.58
		l2.52,6.75l-1.92,1l0.22,2.17l-0.39,0.85l-4.42,2.03l-1,1.48l-3.6,0.44l-1.06,2.35l-2.97-0.49l-1.94,0.72l-2.68,1.73l0.39,0.85
		l-0.8,0.83l0.71,3.32l0.92-0.36l1.7,0.81l-0.1,1.38l0.42,2.01l0.5,1.01l2.07,1.63l0.83,2.66l4.61,1.39l3.01,3.99l-0.28,2.74
		l1.12,1.71l-0.09,1.69l-2.01-0.44l0.79,3.63l2.75,2.07l3.9,2.26l1.16-0.77l2.25,0.99l2.83,2.09l1.58,0.46l0.94,1.53l2.18,0.63
		l2.28,1.39l3.17,0.73l3.27,0.31l1.71-0.66l0.24,2.48l1.85-2.34l1.51-0.8l2,0.73l1.48,0.08l1.23,0.85l2.26-0.39l2.55-2.36l3.23-2.03
		l2.36,0.78l2-1.35l1.31,1.99l-0.95,1.33l3.02,0.47l1.64-0.24l0.94,1.86l1.22,0.75l0.08,2.4l-0.11,2.57l-2.66,2.58l-0.34,3.63
		l2.96-0.51l0.67,2.8l1.78,0.59l-0.82,2.51l2.08,1.13l1.21,0.55l2.06-0.87l0.08,1.24l0.25,0.7l1.5,0.08l-0.42-3.43l1.45-0.44
		l0.01,0.01l1.64,2.37l1.26,2.72l3.45,0.03l1.09,2.59l-1.79,0.77l-0.81,1.07l3.36,1.76l2.33,3.46l1.77,2.57l2.12,2.02l0.71,2.04
		l-0.51,2.88l-2.49-1.06l-1.27,1.99l-2.31-1.13l0.91-1.3l0.13-2.44l-2.27-2.53l-0.18-2.87l-2.13-2.38l-2.12-0.2l-0.56,1.02
		l-1.65,0.08l-0.84-0.51l-2.95,1.74l-0.07-2.62l0.69-3.11l-1.89-0.13l-0.16-1.78l-1.22-0.92l-1.6,0.69l-1.64,1.28l-1.98,0.14
		l-1.28,3.19l-1.18,0.53l1.36,2.57l1.78,2.13l1.14,1.92l-1.02,2.52l-0.97,0.53l0.67,1.45l1.87,2.28l0.32,1.6l-0.05,1.33l1.1,2.6
		l-1.54,2.65l-1.36,2.91l-0.82,2.71l-0.31,1.76l0.53,1.56l0.46-1.65l1.36,1.33l1.49,1.59l0.48,1.39l1.11,1.07l0.49-0.5l2.28,1.23
		l-2.28-1.22l-0.49,0.5l0.62,1.19l-0.31,2.04l1.01,1.52l0.39,2.31l1.62,1.87l0.33,1.42l3.32,2.21l2.65,2.06l1.99-0.19l0.05-0.94
		l-1.1-2.46l-0.99-0.77l-0.21-1.65l-0.27-0.96l0.3-1.27l-0.16-1.88l-1.18-1.87l-1.66-1.69l-0.64-0.26l-0.727,0.909l0.727-0.919
		l-1.45-1.45l-1.7-0.33l-1.56-1.61l-0.51-2.43l-1.14-2.57l-1.82-0.09l-0.19-2.05l0.91-2.5l1.51-4.15l0.22-3.14l2.47-0.02l-0.41,2.25
		l2.4-0.06l2.52,1.31l1.41,2.94l1.14,1.48l2.35,0.41l2.08,1.61l-0.79,1.91l1.02,1.81l3.5-2.62l2.28-2.36l3.22-1.83l2.33-1.87
		l0.38-5.02l-1.28-5.32l-1.71-2.33l-2.54-1.79l-2.62-3.82l-2.15-3.09l0.62-2.05l2.34-2.81l3.74-2.56l-0.02-0.01l1.33-0.49l3.76,0.96
		l-0.66,1.16l0.74,2.16l1.55-0.17l0.96-3.15l2.97-0.46l3.92-1.5l1.59-1.5l0.97,0.98l1.71-1.34l3.16-0.35l3.9-2.55l3.86-2.82
		l2.6-3.68l2.27-4.09l2.05-3.41l1.57-0.28l0.71-2.52l0.43-2.61l-1.65-1l-0.67-1.73l1.76-0.89l0.05-2.43l-1.9-2.53l-1.71-3.05
		l-1.1-3.31l-3.02-1.86l1.44-2.39l2.73-1.73l1.31-1.87l3.97-0.97l-0.46-1.84l-1.81-0.09l-2.49-1.37l-3.14,2.51l-2.22-1.02
		l-0.09-1.58l-2.29-0.58l-1.48-2.41l1.43-1.68l2.75-0.17l1.73-2.34l3.17-2.54l2.44-1.3l1.48,1.93l-2.22,2.45l0.59,1.41l-1.49,1.67
		l3.02-0.98l2.06-1.69l3.92-1.06l-0.01,0.02l1.32,0.97l1.63,0.4l0.19,0.59l-0.71,1.94l0.25,0.65l-0.66,0.42l-0.77,1.57l0.75,0.57
		l0.73,0.32l0.1,0.66l0.82-0.29l0.34-0.66l1.36,0.67l1.92,3l-2.08,0.59l1.24,3.6l-0.52,2.57l0.31,1.85l2.53-0.29l2.24-1.41
		l2.54-0.66l1.05-1.88l-0.02-3.98l-0.69-2.27l-2.42-4.18l-1.59-1.58l-1.12-0.58l0.33-0.4l0.09-1.57l1.21-0.98l1.87-0.6l1.06-1.08
		l0.5-0.65l1.45-0.81l-0.11-2.67l0.84-1.28l1.22-1.27l1.06,0.23l-0.39-0.67l0,0l0.01-0.02l0.39,0.66l0.44-1.26l3.76-2.79l1.76,1.86
		l1.77-0.05l3.74-2.25l1.81-2.28l3.78-4.53l3.81-4.66l0.94-2.82l4.23-6.01l1.26-6.85l0.24-5.27l2.19-4.51l-0.09-3.92l-4.05-5.19
		l-3.08-0.31l-1.79,2.38l-2.72-1.05l-1.38-3l-4.42-0.61l10.75-11.78l9.08-10.33l9.22-1.62l8.57,0.94l3.47-2.7l4.36,0.84l-0.2,3.95
		l4.33-0.56l6.26-1.42l-2.32-3.38l7.02-9.56l7.24-2l2.3,7.14l7.11-6.36l1.68-4.92l3.41-0.51l-2.25,8.37l-5.04,4.57l-4.83,5.73
		l-5.01,6.78l-4.36,1.18l-0.15,2.44l-2.37,3.07l-1.35,6.95l1.56,10.65l1.2,6.69l1.04,3.08l4.04-4.18l0.84-4.66l4.18-1.14l0.97-5.4
		l4.9-2.47l-1.17-2.1l1.2-4.15l2.6-0.19l0.38-7.46l-3.19-1.17l-0.1-2.14l3.36-5.22l0.9-3.63l3.75,0.76l2.7-2.39l1.28,2.08l7.31-4.42
		l4.01,3.9l1.03-2.55l4.07-3.5l4.29-4.1l2.49-0.69l7.84-4.51l5.23,1.32l0.72-1.6l-0.33-2.53l-1.29-1.67l-1.67-5.2l-2.53-3.44
		l3.63,0.48l3.6-2.89l0.02-0.04l1.59-2.83l-1.26-3.19l3.36-1.64l-0.61,2.55l1.52,2.37l3.19-0.87l2.85,1.1l0.63,2.89l3.73,1.92
		l2.14,2.26l2.63,0.19l1.12-1.35l0.07-6.46l4.6-0.7l2.78-2.97l-5.55-6.53L484.491,227.57z M250.109,466.59l-0.008,0.01l-1.85,0.33
		L250.109,466.59z M263.431,419.29L263.431,419.29l0.13,0.118L263.431,419.29z M291.785,321.742l0.016-0.002l3.358,1.624
		l-0.008,0.006L291.785,321.742z"/>
	<polygon points="361.631,312.68 363.271,317.09 363.151,322.94 362.501,326.18 362.821,330.72 362.511,334.73 363.031,338.13 
		364.871,335 367.001,337.44 367.081,334.6 364.351,330.37 366.071,324.26 370.221,325.67 367.401,317.99 366.241,313.48 
		366.311,308.98 365.341,304.48 364.611,301.33 363.361,302 364.471,304.21 361.881,306.38 	"/>
	<polygon points="259.251,117.76 260.081,112.04 252.971,103.7 250.861,102.72 248.561,104.42 243.441,123.02 	"/>
	<polygon points="111.771,185.7 108.901,187.66 109.311,192.49 114.391,194.84 115.131,198.66 124.291,199.76 125.951,199.02 
		120.591,191.91 120.021,184.39 124.411,175.25 128.591,165.43 137.301,155.26 145.861,149.92 155.791,144.18 157.671,140.47 
		155.721,135.64 150.261,137.24 145.461,141.73 136.131,143.95 126.871,151.36 120.601,157.21 121.361,162.08 114.651,171.11 
		117.231,172.33 111.671,180.6 	"/>
	<polygon points="226.271,101.49 230.921,107.22 238.731,111.42 244.851,109.62 245.541,96 239.081,79.96 233.631,70.94 
		227.561,75.05 220.281,86.88 224.111,90.15 	"/>
	<polygon points="95.021,88.45 98.061,92.33 101.341,89.64 101.731,86.92 104.251,85.65 108.011,83.42 109.091,80.8 104.931,76.95 
		102.291,79.85 100.681,83.97 100.111,79.32 95.851,79.53 90.381,82.67 96.621,83.19 	"/>
	<polygon points="358.891,159.76 369.221,160.06 371.431,151.92 361.301,145.85 353.901,145.34 350.201,147.52 348.691,155.27 
		354.241,162.28 	"/>
	<polygon points="384.021,161.45 387.261,157.2 380.221,154.32 374.991,152.64 374.321,156.23 379.531,160.5 	"/>
	<polygon points="359.451,170.98 356.791,174.9 357.281,175.42 363.031,176.5 367.281,176.43 366.941,173.86 362.961,170.05 	"/>
	<polygon points="412.901,506.11 412.241,505.21 409.941,503.92 408.651,503.25 408.231,503.54 409.281,504.48 410.821,505.49 
		413.021,506.68 	"/>
	<polygon points="414.271,509.09 412.421,508.65 412.241,509.77 412.831,510.21 414.551,510.5 415.641,510.44 415.181,509.68 	"/>
	<polygon points="417.541,510.19 417.961,509.67 416.841,508.31 415.831,506.06 414.881,506.06 415.461,507.74 	"/>
	<polygon points="403.551,501.23 403.411,501.7 404.561,502.85 405.791,503.49 406.351,503.33 405.221,502.41 	"/>
	<polygon points="418.611,512.07 416.941,511.38 418.011,513.12 419.971,513.14 419.191,512.17 	"/>
	<polygon points="317.711,508.27 320.631,507.04 321.661,506.28 320.601,505.93 319.731,506.28 317.771,506.38 315.361,507.01 
		315.031,507.67 315.311,508.23 315.361,509.09 	"/>
	<polygon points="304.391,417.56 306.081,412.69 306.571,410.83 305.291,409.92 303.041,412.24 301.391,415.24 301.711,417.49 
		303.191,420.04 	"/>
	<polygon points="605.381,254.64 607.421,253.38 607.651,252.7 605.381,252.03 	"/>
	<polygon points="633.151,419.24 632.721,419.54 632.571,419.76 633.511,420.31 633.841,420.01 633.781,419.31 	"/>
	<polygon points="613.881,270.01 611.111,270.98 612.811,272.5 614.651,273.54 616.371,272.67 616.101,270.52 	"/>
	<polygon points="642.511,423.19 641.511,422.91 641.241,423.17 641.261,423.36 641.581,423.6 642.061,424.23 643.001,424.02 
		643.231,423.66 	"/>
	<polygon points="639.521,422.65 641.021,422.74 641.111,422.42 639.731,422.29 	"/>
	<polygon points="637.551,420.8 636.801,421.21 636.911,421.33 637.271,422.01 638.251,422.12 638.451,422.16 638.601,421.99 
		637.791,421 	"/>
	<polygon points="645.411,425.94 644.911,425.68 643.841,425.18 643.631,425.12 643.471,425.4 643.661,425.98 643.171,426.46 
		643.031,426.79 643.491,427.87 643.411,428.7 644.111,429.12 644.521,428.63 645.421,428.17 646.521,427.54 646.591,427.38 
		645.881,426.34 	"/>
	<polygon points="651.001,283.21 649.501,284.01 646.951,285.87 647.381,288.29 648.811,289.61 651.611,287.66 654.041,285.19 
		652.851,283.56 	"/>
	<polygon points="711.231,302.51 708.541,302.89 707.221,302.27 707.051,303.79 707.571,305.86 708.991,307.32 710.031,309.45 
		711.721,311.55 712.841,311.56 710.401,307.86 	"/>
	<polygon points="434.331,529.7 435.251,529.32 433.491,527.65 433.391,528.43 	"/>
	<polygon points="431.851,524 431.911,526.21 432.311,527.01 432.891,526.85 433.641,527.21 433.181,524.88 	"/>
</g>
</svg>
