<?xml version="1.0" encoding="iso-8859-1"?>
<!-- Generator: Adobe Illustrator 18.0.0, SVG Export Plug-In . SVG Version: 6.00 Build 0)  -->
<!DOCTYPE svg PUBLIC "-//W3C//DTD SVG 1.1//EN" "http://www.w3.org/Graphics/SVG/1.1/DTD/svg11.dtd">
<svg version="1.1" id="Layer_1" xmlns:amcharts="http://amcharts.com/ammap"
	 xmlns="http://www.w3.org/2000/svg" xmlns:xlink="http://www.w3.org/1999/xlink" x="0px" y="0px" width="974.143px"
	 height="699.92px" viewBox="1299.629 -90 974.143 699.92" style="enable-background:new 1299.629 -90 974.143 699.92;"
	 xml:space="preserve">
<defs>
	
	
		<amcharts:ammap  rightLongitude="190.122401" topLatitude="83.646363" projection="mercator" leftLongitude="-169.522279" bottomLatitude="-55.621433">
		</amcharts:ammap>
</defs>
<g>
	<polygon points="1693.72,469.88 1693.65,468.11 1692.86,465.62 1690.67,463.13 1689.37,461.96 1687.38,460.09 1686.9,456.88 
		1686.21,457.34 1685.07,456.03 1683.95,456.69 1682.86,453.44 1681.26,451.57 1681.63,450.85 1679.75,449.56 1677.77,448.15 
		1674.73,446.61 1673.82,444.62 1674.09,443.1 1673.33,440.6 1672.62,440.25 1672.19,438.8 1671.59,436.32 1671.88,435.04 
		1670.53,433.91 1669.6,432.69 1667.8,433.77 1666.79,431.52 1666.87,430.51 1666.66,428.89 1665.64,427.44 1665.52,426.24 
		1664.82,425.9 1664.63,424.12 1663.84,422.73 1662.8,423.79 1662.73,424.6 1662.2,426.16 1661.52,427.67 1661.96,428.62 
		1661.42,429.2 1661.05,431.36 1661.37,433 1661.17,433.84 1661.56,435.23 1660.71,437.53 1660.36,439.12 1659.79,440.41 
		1659.24,441.98 1657.39,442.98 1654.71,441.99 1654.28,441.09 1652.81,440.34 1652.02,440.34 1649.99,438.62 1648.55,437.62 
		1646.39,436.69 1644.16,435.09 1643.96,434.28 1644.96,432.87 1645.78,431.44 1645.45,430.29 1646.41,430.19 1647.47,429.03 
		1648.22,427.5 1646.93,426.09 1646.27,426.64 1645.22,426.39 1643.58,427.21 1641.84,426.33 1641.04,426.62 1638.68,425.89 
		1637.19,424.72 1635.33,424.02 1633.84,424.43 1635.89,425.37 1635.94,426.82 1633.58,427.36 1632.15,427.02 1630.45,428.03 
		1629.23,429.66 1629.67,430.37 1628.41,431.12 1627.07,433.42 1627.66,435 1625.88,434.73 1624.13,434.71 1622.57,433 
		1620.5,431.68 1619.14,432.07 1617.91,432.48 1617.86,433.2 1616.63,432.86 1616.59,433.66 1615.18,434.15 1614.5,435.29 
		1612.97,436.71 1612.63,438.92 1611.39,438.29 1610.51,439.7 1611.51,441.08 1610.32,441.66 1609.14,439.15 1607.18,441.62 
		1607.11,443.21 1606.98,444.38 1605.34,445.87 1604.62,447.45 1603.1,448.76 1600.15,449.63 1598.6,449.56 1597.86,449.83 
		1597.44,450.48 1595.74,450.81 1593.53,451.92 1592.76,451.55 1591.49,451.78 1589.35,452.88 1587.98,454.16 1585.7,455.16 
		1584.52,457.23 1584.31,454.94 1583.15,457.11 1583.45,458.88 1583.07,460.4 1582.5,461.15 1582.2,462.92 1582.85,463.84 
		1583.12,464.81 1584.51,467.24 1584.56,468.83 1583.73,467.63 1582.34,466.73 1583.29,469.61 1582.06,468.26 1582.45,469.59 
		1584.05,472.07 1584.4,474.54 1585.64,475.8 1585.71,476.73 1586.83,478.81 1586.71,480.64 1587.17,482.49 1588.65,485.78 
		1588.96,487.73 1588.62,490.03 1588.72,491.23 1588.24,491.99 1586.85,492.45 1586.79,494.38 1588.3,495.02 1591.27,497.19 
		1593.15,497.19 1595.2,497.32 1596.55,496.24 1597.96,495.28 1598.78,495.43 1600.45,493.63 1602.37,493.48 1604.39,493.11 
		1606.87,493.72 1608.63,493.42 1611.01,493.34 1612.05,491.98 1612.59,490.23 1615.02,489.46 1617.99,487.76 1620.67,487.98 
		1623.86,486.88 1627.49,485.7 1632.51,485.39 1635.21,486.99 1637.18,487.08 1640.78,489.08 1640.25,489.85 1641.73,491.1 
		1643.48,493.53 1643.39,495.32 1645.58,496.72 1646.65,494.03 1648.4,492.88 1650.68,490.03 1650.9,492.5 1649.82,494.15 
		1649.4,496.1 1647.93,497.98 1650.43,497.35 1651.8,495 1652.48,497.52 1651.56,499.18 1654.26,499.59 1655.64,500.99 
		1656.29,502.74 1656.81,505.4 1658.62,507.58 1661.33,508.61 1662.93,508.86 1664.52,509.42 1666.94,510.39 1669.4,507.81 
		1670.93,507.14 1670.49,508.99 1672.21,509.62 1674.53,511.2 1676.22,509.66 1677.51,508.28 1680.1,506.83 1683.24,506.7 
		1684.85,505.48 1684.71,504.37 1685.07,501.97 1685.78,499.39 1686.86,497.68 1687.69,494.75 1688.63,493.08 1689.65,490.49 
		1691.73,488.86 1692.97,485.86 1693.52,483.52 1693.46,481.66 1694.22,478.79 1694.71,477.31 1694.87,474.5 1693.53,471.82 	"/>
	<polygon points="1678.37,517.64 1676.18,518.35 1674.65,518.86 1671.94,517.58 1670.11,517.24 1670.04,518.94 1671.66,522.19 
		1672.04,524.69 1673.77,527.97 1675.49,528.09 1676.07,528.3 1678.02,525.63 1679,526.68 1679.29,523.62 1680.25,522.32 
		1680.05,517.89 	"/>
	<polygon points="2155.66,160.02 2153.66,157.91 2151.6,158.41 2151.35,155.35 2148.14,153.31 2145.07,151.04 2143.44,149.29 
		2142.01,150.32 2141.49,147.36 2139.46,146.81 2138.5,152.94 2138.14,158.05 2135.7,161.19 2139.5,160.59 2140.46,164.24 
		2144.45,161.01 2147.23,157.63 2148.8,160.49 2153.16,162 	"/>
	<polygon points="2169.37,134.78 2169.69,133.77 2169.66,130.6 2167.47,128.52 2164.9,129.57 2163.71,133.74 2164.41,137.3 
		2167.55,136.94 	"/>
	<polygon points="2127.36,-19.24 2129.7,-11.95 2134.66,-6.07 2144.47,-7.16 2150.78,-5.19 2146.4,0.86 2144.19,-0.92 
		2136.53,-1.63 2137.72,6.68 2141.68,12.72 2140.88,17.92 2135.91,21.38 2133.64,26.85 2138.19,29.5 2142.01,38.05 2134.51,32.35 
		2132.8,33.29 2134.18,42.67 2129,45.5 2129.35,51.35 2134.65,51.98 2138.82,53.42 2147.06,51.58 2154.39,54.85 2161.88,47.66 
		2161.82,44.64 2157.03,45.12 2156.64,42.28 2160.56,38.45 2161.89,33.3 2166.22,29.47 2168.88,24.71 2166.56,17.61 2168.5,14.96 
		2164.64,13.07 2173.13,11.44 2174.92,8.29 2180.7,5.69 2185.5,-7.78 2190.07,-12.72 2196.69,-23.84 2190.59,-23.74 2193.13,-28.04 
		2199.91,-32.03 2206.75,-40.93 2206.87,-46.66 2201.74,-52.7 2195.72,-55.63 2188.23,-57.45 2182.16,-58.94 2176.09,-60.44 
		2167.99,-56.46 2166.5,-58.99 2157.93,-58.01 2152.9,-55.44 2149.2,-51.79 2147.07,-40.05 2144.01,-46.06 2140.53,-47.2 
		2136.41,-39.23 2130.91,-35.88 2127.64,-35.22 2123.47,-31.38 2124.08,-24.73 	"/>
	<polygon points="2050.22,65.69 2054.14,67.64 2066.81,66.34 2060.99,71.11 2061.35,74.54 2065.61,74.3 2072.68,69.72 
		2082.18,68.05 2083.89,62.83 2083.4,57.26 2080.46,56.76 2077.96,58.69 2076.86,54.56 2075.91,48.86 2073.01,47.44 2070.44,51.85 
		2074.45,62.9 2069.55,62.05 2064.57,55.26 2056.68,51.26 2054.04,54.58 	"/>
	<polygon points="2044.08,56.3 2049.29,51.25 2051.91,50.66 2054.07,46.43 2054.45,36.66 2050.6,38.57 2046.3,38.39 2040.54,46.58 
		2035.78,55.56 2039.58,58.07 	"/>
	<polygon points="2035.13,107.47 2042.51,103.29 2042.51,99.42 2045.99,93.01 2052.87,86.32 2056.39,83.85 2053.38,79.65 
		2050.66,76.7 2043.5,76.13 2039.5,73.97 2030.02,75.6 2032.76,81.83 2030.33,88.26 2028.39,95.13 2027.19,98.99 2033.66,103.68 	
		"/>
	<polygon points="2071.32,35.98 2072.25,31.99 2068.3,29.87 2064.21,31.26 2061.94,35.52 2066.1,39.73 	"/>
	<polygon points="2088.07,22.55 2085.36,26.74 2091.6,27.26 2096.21,31.7 2100.79,33.2 2099.7,27.52 2097.56,20.79 2089.98,15.44 
		2084.48,13.4 2084.68,19.09 	"/>
	<polygon points="2105.14,30.83 2107.42,33.95 2111.57,31.18 2112.33,26.21 2108.98,21.29 2107.35,20.33 2103.72,19.75 
		2103.94,25.65 	"/>
	<polygon points="2072.78,23.63 2069.13,20.73 2067.63,20.07 2064.75,24.35 2064.7,26.35 2069.36,26.36 	"/>
	<polygon points="2115.95,97.57 2118.96,90.64 2122.3,88.79 2126.49,80.05 2121.13,77.58 2115.29,77.22 2112.51,79.99 
		2111.04,84.22 2111,89.04 2112.75,97.23 	"/>
	<polygon points="2097.13,114.83 2092.07,110.9 2087.36,106.69 2086.49,100.51 2084.73,91.59 2081.59,87.75 2078.8,86.2 
		2076.33,87.62 2078.32,97.21 2076.91,100.94 2074.62,91.96 2072.06,88.85 2068.89,93.66 2064.99,88.9 2058.75,91.77 2060.15,87.31 
		2057.28,85.44 2049.77,91.28 2047.82,94.99 2045.47,101.76 2050.37,104.08 2054.7,103.96 2048.2,107.42 2049.68,110.55 
		2053.66,110.72 2059.65,110.05 2065.07,112.01 2061.41,113.45 2057.46,113.08 2053.13,114.49 2051.26,115.36 2054.71,121.71 
		2057.2,120.83 2061.03,122.98 2062.55,126.63 2067.54,125.9 2074.64,124.74 2079.9,122.09 2083.16,121.61 2087.98,123.73 
		2093.05,124.95 2093.99,122.09 2092.2,119.04 2096.8,118.4 	"/>
	<polygon points="2087.26,84.4 2085.13,82.23 2081.37,82.63 2080.42,84.01 2084.79,90.76 	"/>
	<polygon points="2104.87,113.85 2102.91,117.39 2100.44,119.88 2104.27,123.42 2106.55,122.57 2110.33,124.93 2112.07,122.2 
		2110.36,119.17 2109.52,117.64 2107.84,116.18 	"/>
	<polygon points="2107.95,83.91 2107.22,81.03 2102.22,82.29 2098.88,80.18 2095.56,84.98 2098.65,91.26 2092.93,90.09 
		2092.87,93.1 2099.84,100.15 2101.78,103.53 2104.48,104.26 2109.08,100.85 2109.58,92.64 2105.34,88.57 	"/>
	<polygon points="2156.92,172.79 2158.02,169.67 2157.31,168.44 2156.16,168.31 2155.08,170.11 2154.95,170.52 2155.69,172.29 	"/>
	<polygon points="2100.41,69.22 2105.03,68.11 2106.31,59.86 2106.22,53.91 2104.08,48.35 2103.86,49.95 2099.92,49.25 
		2095.7,53.34 2092.68,52.97 2092.86,61.89 2097.46,61.02 2097.4,67.49 	"/>
	<polygon points="2117.15,38.3 2117.48,36.81 2115.51,34.36 2109.86,34.17 2110.61,37.85 2115.86,38.68 	"/>
	<polygon points="2113.97,12.31 2119.1,12.19 2116.88,16.19 2116.84,21.49 2119.85,27.25 2125.66,29.02 2130.62,28.03 2135.8,17.3 
		2139.65,12.85 2136.27,7.88 2134.06,-2.77 2129.46,-5.96 2124.74,-9.64 2121.16,-19.2 2114.64,-18.26 2115.87,-14.11 2113,-12.86 
		2111.06,-7.54 2109.12,-0.08 2110.9,7.18 	"/>
	<polygon points="2153.5,85.25 2156.58,90.35 2157.39,90.92 2160.46,89.65 2163.48,89.85 2166.46,90.13 2166.21,87.49 
		2161.37,82.11 2154.95,81.03 2153.6,81.7 	"/>
	<polygon points="2133.1,74.57 2138.86,74.39 2146.9,72.78 2150.49,74.06 2154.67,71.8 2156.42,68.96 2155.79,64.44 2152.79,60.21 
		2148.23,59.41 2142.52,60.38 2138.06,62.82 2133.97,61.88 2130.19,61.38 2128.41,58.68 2125.19,56.07 2125.83,51.64 2123.41,47.66 
		2117.89,47.69 2114.78,43.7 2109,42.9 2107.94,48 2111.19,51.74 2116.99,53.19 2119.8,58.28 2120.14,63.88 2121.11,69.87 
		2128.56,73.29 	"/>
	<polygon points="2116.26,72.47 2117.79,68.33 2116.77,64.87 2114.32,60.95 2110.29,63.97 2108.8,68.89 2112.2,71.68 	"/>
	<polygon points="2144.76,167.9 2145.37,169.53 2147.35,169.67 2150.63,166.33 2150.69,165.14 2146.84,165.08 	"/>
	<polygon points="2193.19,142.32 2197.6,148.92 2201.05,151.77 2205.97,143.9 2206.84,138.97 2202.43,138.5 2198.4,131.8 
		2193.95,130.16 2187.35,125.19 2192.5,121.56 2189.85,114.02 2187.41,110.67 2180.64,107.32 2177.72,101.77 2172.51,103.76 
		2172.15,99.9 2168.29,95.58 2162.07,90.87 2159.42,94.58 2153.87,97.24 2154.29,91.18 2149.48,81.13 2142.37,85.19 2139.78,92.89 
		2137.57,86.97 2139.63,80.6 2132.39,83.25 2129.51,87.24 2127.36,95.66 2128.25,104.71 2132.23,104.75 2129.3,108.67 
		2131.63,111.63 2136.18,112.88 2142.11,115.3 2152.31,117.12 2157.39,116.08 2158.89,113.66 2161.1,116.45 2163.57,116.91 
		2166.54,121.87 2164.74,123.85 2170.42,126.48 2174.71,130.16 2175.79,132.71 2176.56,135.95 2172.93,142.88 2171.95,146.32 
		2172.89,148.74 2167.12,149.6 2161.85,149.72 2160,154.59 2162.37,156.82 2170.48,155.79 2170.44,153.9 2174.52,157.05 
		2178.7,160.33 2177.72,162.1 2181.12,165.12 2187.14,168.65 2194.74,171.04 2194.28,168.95 2191.36,165.28 2187.4,159.91 
		2194.43,164.91 2197.97,166.57 2198.94,162.13 2197.12,155.83 2195.96,154.1 2192.15,151.07 2189.2,147.16 2189.55,143.22 	"/>
	<polygon points="2201.76,245.76 2200.78,243.78 2199.72,245.04 2200.42,246.4 2203.98,248.11 2205.02,247.85 2206.4,246.19 
		2203.8,246.3 	"/>
	<polygon points="2206.89,234.34 2204.02,232.54 2200.33,231.45 2199.36,231.82 2201.97,233.86 2205.6,235.2 2206.96,235.12 	"/>
	<polygon points="2033.96,237.65 2032.8,235.31 2030,233.54 2028.61,231.49 2027.66,229.99 2025.02,229.53 2023.3,228.86 
		2020.36,227.9 2020.12,228.92 2021.2,231.3 2024.09,232.08 2024.59,233.31 2027.1,234.81 2027.94,236.32 2032.54,238.24 	"/>
	<polygon points="2231.77,239.13 2231.41,236.89 2229.45,237.61 2230.32,234.5 2227.52,233.18 2226.23,234.23 2223.74,233.05 
		2224.72,231.54 2222.84,230.61 2221.01,232.08 2222.87,228.26 2224.37,225.46 2224.91,224.24 2223.61,224.04 2221.18,225.59 
		2219.44,228.12 2216.54,235.04 2214.19,237.6 2215.41,238.74 2213.66,240.21 2214.09,241.44 2219.53,241.57 2222.54,241.32 
		2225.23,242.33 2223.25,244.26 2224.92,244.4 2228.17,240.82 2228.95,241.35 2228.34,244.72 2230.18,245.49 2231.45,245.34 
		2232.63,241.73 	"/>
	<path d="M2223.95,216.52l-1.13-1.77l-2.18-0.63l-1.11-4.05l-1.8-1.55l-4.47-1.26l-2.52-2.82l-3.73-2.83l1.13-3.2l-3.1-6.26
		l-3.65-6.89l-2.18-4.98l-1.86,2.61l-2.68,6.05l-4.06,2.97l-2.03-3.16l-2.56-0.85l-0.93-6.99l0.08-4.8l-5-0.44l-0.85-2.27
		l-3.45-3.44l-2.61-2.04l-2.32,1.58l-2.88-0.58l-4.81-1.65l-1.95,1.4l0.94,9.18l1.22,5.12l-3.31,5.75l3.41,4.02l1.9,4.44l0.23,3.42
		l-1.55,3.5l-3.18,3.46l-4.49,2.28l1.98,2.53l1.46,7.4l-1.52,4.68l-2.16,1.46l-4.17-4.28l-2.03-5.17l-0.87-4.76l0.46-4.19
		l-3.05-0.47l-4.63-0.28l-2.97-2.08l-3.51-1.37l-2.01-2.38l-2.8-1.94l-5.21-2.23l-3.92,1.02l-1.31-3.95l-1.26-4.99l-4.12-0.9
		l0.15-6.41l1.09-4.48l3.04-6.6l3.43-4.9l3.26-0.77l0.19-4.05l2.21-2.68l4.01-0.42l3.25-4.39l0.82-2.9l2.7-5.73l0.84-3.5l2.9,2.11
		l3.9-1.08l5.49-4.96l0.36-3.54l-1.98-3.98l2.09-4.06l-0.17-3.87l-3.76-3.95l-4.14-1.19l-3.98-0.62l-0.15,8.71l-2.04,6.56l-2.93,5.3
		l-2.71-4.95l0.84-5.61l-3.35-5.02l-3.75,6.09l0.01-7.99l-5.21-1.63l2.49-4.01l-3.81-9.59l-2.84-3.91l-3.7-1.44l-3.32,6.43
		l-0.22,9.34l3.27,3.29l3,4.91l-1.27,7.71l-2.26-0.2l-1.78,5.88l0.02-7l-4.34-2.58l-2.49,1.33l0.32,4.67l-4.09-0.18l-4.35,1.17
		l-4.95-3.35l-3.13,0.6l-2.82-4.11l-2.26-1.84l-2.24,0.77l-3.41,0.35l-1.81,2.61l2.86,3.19l-3.05,3.72l-2.99-4.42l-2.39,1.3
		l-7.57,0.87l-5.07-1.59l3.94-3.74l-3.78-3.9l-2.75,0.5l-3.86-1.32l-6.56-2.89l-4.29-3.37l-3.4-0.47l-1.06,2.36l-3.44,1.31
		l-0.38-6.15l-3.73,5.5l-4.74-7.32l-1.94-0.89l-0.63,3.91l-2.09,1.9l-1.93-3.39l-4.59,2.05l-4.2,3.55l-4.17-0.98l-3.4,2.5
		l-2.46,3.28l-2.92-0.72l-4.41-3.8l-5.23-1.94l-0.03,0.07l-3.05-1.13l-4.25-2.46l-3.73,1.34l-2.16-1.07l-5.39-0.78l-5.91-2.64
		l-2.86,0.84l-4.29-1.43l0.17-1.95l-4.74-0.51l-1.25,1.65l-2.03-3.87l-4.24-1.83l-4.31,4.61l-2.58-0.57l-5.31,3.76l-2.73,0.95
		l-2.86,3.91l-0.67,3.92l-3.54,3.58l-4.97,0.25l-1.57,4.03l3.85,2.38l2.69,3.17l1.99,3.64l3.45,2.72l2.28,4.34l-5.92,0.27l0.38-3.48
		h-2.31l-6.25,3.41l-3.94,2.87l3.55,3.91l1.18,2.65l4.11,1.56l3.97-0.73l2.21,1.43l0.85-1.43l2.98-1.43l1.72-0.07l-2.08,2.52
		l1.57,1.16l0.52,2.92l-2.14,1.96l-2.04-0.54l-2.26,3.01l-1.92-0.99l-2.27,0.45l-1,3.15l-2.29,3.37l-1.08,3.41l2.16,2.48l0.01,3.25
		l1.92,1.36l2.37,2.63l3.65-1.07l1.81,1.98l-0.51,2.02l0.24,3.23h1.72l2.8-2.17l1.05,2.7l0.76-1.94l1.83,2.73l1.52-1.95l0.9,0.93
		l3.23-1.64l-1.43,3.17l-0.48,4l-2.07,1.83l-0.63,1.03l-3.89,3.05l-1.38,2.06l-3.48,0.56l-2.99,2.71l-2.74,1.51l-3.07,2.27
		l0.44,0.81l4.81-1.38l2.33-1.63l2.85-1.67l2.62-1.38l1.92,0.38l3.28-2.13l0.89-2.36l4.38-2.63l0.69-2.29l2.81-1.59l3.01-2.21
		l2.65-3.85l-2.05-2.65l4.04-3.95l1.91-3.77l3.57-3.22l0.77,1.46l-2.98,1.77l-1.26,5.53l0.4,3.24l3.11-1.16l2.47-1.86l3.24-1.16
		l1.55-0.36l-0.58-3.93l3.11-1.21l3.33,2.43l5.51,2.59l3.88-0.48l4.9,1.99l2.68,1.05l5.8,5.64l3.29,1.54l4.46,0.13l2.69,0.34
		l1.51,4.94l3.61,4.13l0.79,4.36l2.47,1.57l1.54,1.83l0.07-0.04l0.06,2.48l3.39,3.45l0.49,3.76l3.59,1.96l-0.4,2.79l1.56,3.96
		l5.08,1.82l2,1.89l5.43,4.23l0.38,0.01l-0.09,0.09l0.95,3.47l0.45,3.41l-0.69,1.09l-1.49-3.91l-4.05-1.42l-0.34,0.82l0.82,1.94
		l0.89,3.53l0.51,5.42l-0.34,3.59l-0.34,3.54l-1.1,3.61l0.9,2.9l0.1,3.2l-0.61,3.05l1.49,1.99l0.39,2.95l2.17,2.99l1.24,1.17
		l-0.1,0.82l2.34,4.85l2.72,3.45l0.34,1.87l0.71,0.55l2.6,0.33l1,0.91l1.57,0.17l0.31,0.96l1.31,0.4l1.82,1.92l0.47,1.7l0.016-0.001
		l1.114,2.891l1.3,2.61l1.04,2.12l1.04,2.01l1.64,0.89l2.16,2.27l-0.11,1.43l-1.04,1.18l-1.15-0.18l-0.2,0.24l1.65,1.83l1.73,0.75
		l0.7,0.82l0.37-0.4l1.93,1.39l1.34,0.96l0.42,1.68l-0.09,2.25l1.44,0.78l2.02,1.48l1.83,1.73l0.74,1.85l0.5,0.01l1.18-1.11
		l0.07-0.54l-1.02-1.36l-1.13-1.39l-1.35-0.1l-0.15-1.62l-0.78-1.44l-0.83-1.35l-0.93-2.89l-1.77-1.6l-0.59-1.11l-0.85-0.8
		l-0.57-2.04l-0.5,0.05l-0.36-1.1l-0.43-0.22l-0.46-0.75l-2.08-2.21l-0.97-1.33l-0.27-2.43l-0.46-1.56l0.45-1.33l1.6,0.9l0.93-0.14
		l2.03,1.29l-0.04,1.25l0.99,2.48l1.51,2.42l0.12,1l1.32,1.55l1.62,1.66l1.51,0.26l0.7,2.19l1.66,1.52l1.43,0.73l-0.43,1.92
		l0.51,0.76l2.41,1.26l1.36,1.91l2.82,2.39l2.47,3.02l0.94,1.52l0.26,1.2l0.94,1.34l-0.01,1.04l-0.65,0.77l0.29,0.85l-0.93,0.29
		l0.67,1.45l1.4,1.87l3.01,1.67l1.17,1.34l2.87,0.93l1.57,0.17l0.71,0.78l2.34,1.4l3.18,1.35l2.1,0.41l2.62,1.33l2.1,0.56l1.98,0.76
		l1.41-0.29l2.26-1.09l1.56-0.21l2.29,0.76l1.45,0.94l3.17,3.11l1.51,1.18l1.28,0.57l1.75,0.05l1.44,0.5l0.79,0.62l1.56,0.18
		l1.16,0.57l1.01,0.27l1.62,0.04l0.31-0.67l0.86,0.25l0.48,0.89l-0.21,0.21l-0.47-0.43l-0.31,0.44l1.41,1.29l1.18,0.89l0.62,0.96
		l1.31,1.15l0.97,0.9l-0.64,0.54l0.79,0.4l-0.37,0.9l-0.02,0.86l0.38,0.57l0.9,0.28l0.64,0.78l0.56-0.67l-0.18-0.83l0.74,0.51
		l0.18,0.83l0.97,0.36l1.1,0.55l0.78,0.68l0.1,0.62l-0.32,0.49l0.57,0.59l1.52,0.63l0.32,0.42l0.09-0.61h1.2l0.73,0.33l1.15,0.18
		l0.56,1.14l0.93,0.16l0.36-0.48l0.49,1.68l1.3-0.14l0.41-0.42l0.76-0.36l-1.33-1.52l0.27-0.59l0.61-0.1l1.14-0.7l0.56-0.98
		l1.23-0.18l1.4,0.78l0.52,0.93l0.71,0.19l-0.69,0.75l0.6,1.52l0.93,0.81l1.14,1.5l0.44,2.37l-0.6,0.73l0.63,2.56l-0.53,1.62
		l1.04,0.67l-1.07,1.46l-1.19,1.75l-1.39,0.19l-0.65,1.01l0.12,1.39l-1.05,0.21l0.38,0.87l-1.92,1.11l-1.54,0.6l0.2,1.13l-1.06,1.8
		l-0.52,1.73l-0.98,0.42l0.47,2.53l-0.57,0.78l1.68,1.23l1.07-1.3l0.61,1.22l-1.49,2.08l-2.24,1.77l-0.87,1.95l1.36,2.67l-0.91,1.25
		l2,1.13l2.18,1.84l0.88,2.06l1.15,1.29l2.64,5.62l2.77,5.24l2.37,3.75l-0.46,0.83l1.16,2.37l2.17,1.78l5.03,3.17l5.55,2.92
		l0.25,1.2l2.81,1.68l0.007,0.006l-0.007,0.004l0.58,4.15l0.21,4.87l-0.88,6.75l-0.9,6.37l-0.51,6.04l-1.64,3.87l0.34,3.96
		l-0.84,2.67l0.65,4.91l-1.19,4.97l-1.94,5.43l-1.72,5.6l-1.18,0.11l0.23,3.98l0.81,3.5l-1.29,2.48l-0.96,6.84l-0.88,5.42l1.77,0.54
		l0.88-4.75l1.88,1l-1.46,7.97l-3.12-1.37l-0.95,6.56l-2.67,3.57l4.26,1.19l-2.96,3.19l-1.19,4.03l0.36,7.34l1.41,2.94l-0.79,2.62
		l0.88,2.87l3.49,2.63l3.21,3.25l3.16,1.54l1.19-0.11l0.45-4.38l2.53-1.67l1.35-1.13l2.49,0.03l-2.6-0.71l-6.78-0.61l-1.16-2.63
		l0.05-3.33l-1.87,0.28l-0.99-1.6l-0.25-4.6l2.15-1.88l0.89-2.68l-0.33-2.11l1.49-3.52l1.02-5.35l-0.3-2.33l1.22-0.75l-0.3-1.48
		l-1.3-0.78l0.92-1.63l-1.27-1.46l-0.65-4.4l1.13-0.77l-0.47-4.54l0.66-3.75l0.75-3.22l1.68-1.3l-0.85-3.46l-0.01-3.22l2.12-2.26
		l-0.06-2.87l1.6-3.31l0.01-3.09l-0.73-0.61l-1.29-5.69l1.73-3.34l-0.27-3.11l1-2.9l1.84-2.96l1.98-1.95l-0.84-1.23l0.59-1
		l-0.09-5.14l3.05-1.51l0.96-3.16l-0.34-0.76l-2.02,0.41l-1.1-4.15l-1.51-3.34l0.88-2.87l-1.47-1.25l-0.37-2.12l-1.367-1.986
		l-0.003-0.014l1.77-3.14l-1.21-2.44l0.65-0.97l-0.51-1.07l1.1-1.44l0.06-2.44l0.13-2.02l0.61-0.96l-2.43-4.58l-1.58,0.49
		l-1.28-0.33l0.19-4.3l-2.3,1.66l-2.47-0.07l-1.06-1.51l-1.86-0.16l0.59-1.21l-1.56-1.72l-1.17-2.53l0.74-0.51v-1.19l1.7-0.81
		l-0.28-1.51l0.71-0.98l0.21-1.3l3.2-1.91l2.3-0.53l0.37-0.42l2.53,0.13l1.26-7.65l0.07-1.21l-0.44-1.59l-1.24-1.02l0.01-2.02
		l1.58-0.46l0.56,0.29l0.09-1.07l-1.64-0.29l-0.03-1.74l5.46,0.06l0.93-0.96l0.78,0.88l0.54,1.65l0.53-0.35l-0.85-2.77l-0.75-0.98
		l-1.02-0.61l1.42-1.39l-0.09-0.63l-0.8-0.83l-0.56-1.85l0.22-2.01l0.62-0.94l0.51-1.5l-0.99-0.49l-1.6,0.32l-2.02-0.15l-1.13,0.3
		l-1.98-2.41l-1.63-0.36l-3.6,0.27l-0.67-0.98l-0.69-0.23l-0.1-0.59l0.33-1.04l-0.22-1.13l-0.62-0.62l-0.36-1.3l-1.44-0.18
		l0.77-1.66l0.35-2.01l0.81-1.06l1.09-0.81l0.71-1.42l1.8-0.48l0.54-0.96l-0.73-0.75l-1-0.17l-1.35,1.37l-1.09,0.64l-2.21,1.43
		l-2.2-0.23l-0.22,0.59l-1.76,0.05l-1.61,1.32l-0.52,2.39l-0.03,0.93l-1.15,0.3l-2.11,1.97l-1.44-0.09l-1.06-0.78l-0.91-0.84
		l-1.25-0.49l-1.57-0.1l0.11-0.28l-1.55-0.16l-0.96,0.84l-1.7,0.57l-1.19,0.71l-1.38,0.21l-0.77-0.7l-0.27,0.23l-1.12-0.12l0.06-0.6
		l-1-1.01l-1.32-1.21l-1.08-1.14l-0.72-1.54l-0.42-0.47l-0.14-0.76l0.58-0.73l-0.19-0.75l0.26-1.22l0.43-0.28l-0.07-1.29l-0.16-0.73
		l0.1-1.27l0.3-1.15l0.64-0.98l-0.28-1.05l0.14-0.64l0.24-0.28l-0.74-0.8l-1.02-0.44l-0.81-0.65l-0.85-0.54l-0.45-0.06l-1.28-0.4
		l-0.56,0.25l-0.73,0.07l-0.67-0.2l-0.89-0.15l-0.33,0.32l-0.9,0.32l-1.3,0.08l-1.3-0.26l-0.44,0.14l-0.26-0.23l-0.8,0.04
		l-0.62,0.51l-0.29-0.12l-0.82-0.37l-0.24,0.44l-0.92-0.53l0.56-1l0.51-0.09l0.55-0.78l0.32-1.47l-0.17-0.27l0.29-1.05l-0.25-0.45
		l0.46-1.27l0.04-0.8l-0.53-0.01l-0.01-0.43l0.59-0.05l0.71,0.75l0.7-2.29l0.42-1.28l-0.51-0.51l0.66-1.81l1.51-1.77l0.09-1.44
		l-0.67-0.63l-1.7,0.25l-2.48-0.1l-2.97,0.69l-1.89,0.79l-0.49,0.87l-0.23,2.49l-0.67,1.73l-1.78,1.2l-1.77,0.51l-2.1,0.53
		l-2.13,0.29l-2.46,0.82l-1.16-1.22l-2.98-0.79l-1.1-1.45l-0.65-1.69l-1.86-2.21l-0.56-2.31l-0.87-1.47l-0.49-1.64l0.27-1.47
		l0.21-4.08l0.49-2.21l1.056-2.625l0.064-0.005l-0.035-0.069l0.005-0.011l-0.01,0.001l-0.49-0.981l-0.14-1.5l0.03-2.16l0.65-1.42
		l1.53-1.51l2.79-1.37l2.55-2.37l2.36-0.75l1.74-0.23l2.04,0.74l2.45-0.4l2.09,1.69l2.03,0.1l1.05-0.61l1.04,0.47l0.53-0.42
		l-0.6-0.63l0.05-1.3l-0.5-0.86l1.16-0.5l2.14-0.22l2.49,0.36l3.17-0.41l1.76,0.8l1.36,1.5l0.5,0.16l2.83-1.46l1.09,0.49l2.19,2.68
		l0.79,1.75l-0.58,2.1l0.42,1.23l1.3,2.4l1.49,2.68l1.07,0.71l0.44,1.35l1.38,0.37l0.84-0.39l0.7-1.89l0.12-1.21l0.09-2.1
		l-1.33-3.65l-0.02-1.37l-1.25-2.25l-0.94-2.75l-0.5-2.25l0.43-2.31l1.32-1.94l1.58-1.57l3.08-2.16l0.4-1.12l1.42-1.23l1.4-0.22
		l1.84-1.98l2.9-1.01l1.78-2.53l-0.39-3.46l-0.29-1.21l-0.8-0.24l-0.12-3.35l-1.93-1.14l1.85,0.56l-0.6-2.26l0.54-1.55l0.33,2.97
		l1.43,1.36l-0.87,2.4l0.26,0.14l1.58-2.81l0.9-1.38l-0.04-1.35l-0.7-0.64l-0.58-1.94l0.92,0.9l0.62,0.19l0.21,0.92l2.04-2.78
		l0.61-2.62l-0.83-0.17l0.85-1.02l-0.08,0.45l1.79-0.01l3.93-1.11l-0.83-0.7l-4.12,0.7l2.34-1.07l1.63-0.18l1.22-0.19l2.07-0.65
		l1.35,0.07l1.89-0.61l0.22-1.07l-0.84-0.84l0.29,1.37l-1.16-0.09l-0.93-1.99l0.03-2.01l0.48-0.86l1.48-2.28l2.96-1.15l2.88-1.34
		l2.99-1.9l-0.48-1.29l0.06-0.07l3.12-0.48l4.49-0.13l-4.87,3.26l0.11,3.29l2.13,0.28l3.13-2.79l2.78-1.58l6.21-2.35l3.47-2.62
		l-1.81-1.46l-0.29-2.92l-2.81,4.56l-4.63,0.58l-3.64-2.01l-0.92-3.07l-0.89-4.46l2.65-2.83l-2.48-2.09l-4.19,0.43l-5.88,3.53
		l-4.5,5.45l-2.38,0.67l3.23-3.8l4.04-5.57l3.57-1.9l2.35-3.11l2.9-0.3l4.21,0.03l6,0.92l4.74-0.71l3.53-3.62l4.62-1.59l2.01-1.58
		l2.04-1.71L2223.95,216.52z M2058.377,296.864l-0.037-0.014l0.23-0.566l0.04-0.004L2058.377,296.864z M2156.6,262.53l-2.11,1.09
		l-1.44,0.51l-1.66,1.03l-2.03,0.5l-1.4-0.19l-1.73-0.77l0.96-1.45l0.62-1.32l1.32-2.09l-0.14-1.57l-0.5-2.24l-1.04-0.39l-1.74,1.7
		l-0.56-0.03l-0.14-0.97l1.54-1.56l0.26-1.79l-0.23-1.79l-2.08-1.55l-2.38-0.8l-0.39,1.52l-0.62,0.4l-0.5,1.95l-0.26-1.33
		l-1.12,0.95l-0.7,1.32l-0.73,1.92l-0.14,1.64l0.93,2.38l-0.08,2.51l-1.14,1.84l-0.57,0.52l-0.76,0.41l-0.95,0.02l-0.26-0.25
		l-0.76-1.98l-0.02-0.98l0.08-0.94l-0.35-1.87l0.53-2.18l0.63-2.71l1.46-3.03l-0.42,0.01l-2.06,2.54l-0.38-0.46l1.1-1.42l1.67-2.57
		l1.91-0.36l2.19-0.8l2.21,0.42l0.09,0.02l2.47-0.36l-1.4-1.61l-0.75-0.13l-0.86-0.16l-0.59-1.14l-2.75,0.36l-2.49,0.9l-1.97-1.55
		l-1.59-0.52l0.9-2.17l-2.48,1.37l-2.25,1.33l-2.16,1.04l-1.72-1.4l-2.81,0.85l0.01-0.6l1.9-1.73l1.99-1.65l2.86-1.37l0.09-0.09
		l1.14-1.66l1.59-0.66l0.62-1.03l0.63-0.55l2.61,0.86l1.93,0.1l0.67,0.57l0.94,2.38l3.15,0.63l-0.49,1.18l1.11,1.21l-0.48,1.56
		l1.18,0.51l-0.59,1.37l0.75,0.13l0.53-0.6l0.55,0.9l2.1,0.5l2.13,0.04l2.27,0.41l2.51,0.78l0.91,1.26l1.82,3.04l-0.9,1.3
		l-2.28-0.54l-1.42-2.44l0.36,2.49l-1.34,2.17l0.15,1.84l-0.23,1.07l-1.81,1.27l-1.32,2.09l-0.62,1.32l1.54,0.24l2.08-1.2l1.23-1.06
		l0.83-0.17l1.54,0.38l0.75-0.59l1.37-0.48l2.347-0.452l0.002,0.012l0.05,0.37L2156.6,262.53z M2164.55,258.76l-2.3-0.32l-2.2-0.14
		l-1.24,0.41v0l-0.13,0.04l-0.86,0.2l-1.12-0.36l0.84-1.32l0.85-0.46l1.98-0.56l2.37-0.53l1.24,0.73l0.78-0.85l0.89-0.54l0.6,0.29
		l0.011,0.022l-0.071,0.068l0.29,0.54l0.17,1.51L2164.55,258.76z"/>
	<polygon points="2187.82,576.72 2187.82,566.15 2185.82,565.6 2183.24,567.51 2182.33,570.71 2180.88,572.88 2177.16,571.18 
		2173.22,568.05 2170.91,567.08 2174.77,572.33 2177.63,574.9 2181.16,577.61 2184.1,578.32 2186.14,579.8 2187.8,580.2 
		2189.18,580.36 2191.58,578.83 2192.51,576.85 2190.82,576.72 	"/>
	<polygon points="1574.29,338.13 1575.52,336.83 1574.89,335.7 1573.28,335.63 1570.22,336.46 1568.84,337.8 1568.92,340.33 
		1571.22,341.24 1573.64,339.83 	"/>
	<polygon points="1767.32,439.07 1766.43,439.23 1765.03,439.83 1765.39,440.92 1767.18,440.31 1768.96,439.59 1769.19,439.43 
		1769.54,438.03 1768.96,438.16 	"/>
	<polygon points="1763.7,442.34 1762.43,441.98 1761.35,442.98 1761.62,444.27 1763.17,444.63 1764.91,444.23 1765.37,442.7 
		1764.41,441.86 	"/>
	<polygon points="1598.83,396.59 1598.43,398.8 1597.27,400.63 1598.14,402.54 1599.32,402.56 1599.75,405.25 1598.95,407.82 
		1600.15,408.64 1601.93,408.23 1601.82,404.23 1601.58,400.98 1603.45,400.13 1603.24,402.85 1605.26,404.49 1604.9,405.57 
		1605.6,406.34 1608.35,405.26 1606.99,407.55 1608.09,408.53 1609.59,407.71 1609.61,405.87 1607.09,402.65 1607.6,401.69 
		1604.95,398.12 1607.42,397.04 1608.64,395.41 1609.86,395.81 1610.09,394.53 1604.86,395.48 1603.35,396.74 1600.84,394.26 
		1601.24,392.15 1603.69,391.75 1608.36,391.61 1611.06,392.15 1613.17,391.61 1615.42,388.85 1614.93,388.24 1612.16,390.26 
		1608.94,390.38 1605.4,389.99 1603.21,389.17 1600.83,391.24 1600.24,392.39 	"/>
	<polygon points="1602.73,421.48 1602.89,420.71 1601.91,419.85 1600.44,418.99 1597.83,419.55 1601.55,421.53 	"/>
	<path d="M1569.75,391.65l0.39,2.44l1.35,2.38l1.4,0.77l0.43,3.74l2.31,0.32l1.84-0.15l1.02,1.35l3.33-1l1.4,0.89l2,0.16l1.11,1.71
		l3.19-1.26l0.41,0.99l1.08-4.27l0.06-2.77l2.7-1.91l-0.12-2.52l0.94-1.9l3.32-0.33l-3.14-2.58l0.49-1.28l-2.06-2.64l1.59-2.52h0
		l2.06-0.95l-0.49-1.35l1.88-0.14l0.2-1.1l-2.34-0.84l-1.85-0.78l-0.13-1.22l-1.44-1.42l-1.13,0.01l-1.41,2.19l-2.16,1.95
		l-0.01-0.01l-2.39,1.53l-1.11,1.05l0.005,0.006l-1.375,1.764l-2.01,2.21l-3.36,0.6l-1.2,0.53l-0.56,2.36l-2.17,0.52l-2.05-0.96h0
		l-1.67,1.85L1569.75,391.65z M1592.36,380.8l1.41,0.273L1592.36,380.8L1592.36,380.8z"/>
	<polygon points="1608.46,416.98 1608.87,415.42 1606.37,416.44 1604.5,416.65 1602.74,415.81 1600.51,416.4 1600.52,417.43 
		1604.25,417.78 	"/>
	<polygon points="1595.85,416.18 1594.84,415.43 1594.09,416.44 1592.55,416.46 1591.59,418.08 1593.1,418.1 1595.04,417.72 
		1598.28,417.15 1597.58,415.95 	"/>
	<polygon points="1640.3,409.95 1640.57,412.06 1642.01,410.15 1642.03,408.81 1641.39,407.99 1640.8,408.94 	"/>
	<polygon points="1561.12,404.81 1561.82,401.34 1560.46,399.58 1558.4,399.33 1557.42,397.77 1556.94,395.83 1555.93,395.76 
		1554.32,394.79 1555.44,392.52 1553.31,391.25 1551.69,388.92 1549.33,387.01 1546.48,386.97 1543.82,383.97 1542.27,382.81 
		1540.1,380.92 1537.62,378.19 1533.28,377.65 1531.47,377.54 1531.72,378.96 1534.64,382.04 1536.75,383.6 1538.22,385.99 
		1540.75,387.74 1541.78,389.91 1542.6,392.3 1545.06,394.62 1547.19,398.52 1548.58,400.61 1550.7,402.88 1551.9,404.57 
		1555.5,406.85 1557.86,409.19 1560.96,409.13 	"/>
	<polygon points="1623.55,400.73 1622.88,402.26 1624.82,402.36 1626.4,402.18 1628.74,402.41 1631.11,403.56 1630.09,401.43 
		1627.01,400.61 	"/>
	<polygon points="1623.16,388.26 1622.96,386.74 1622.03,387.75 1621.47,389.98 1622.3,393.54 1623.43,395.3 1624.22,394.97 
		1623.06,393.5 1623.49,391.81 1624.94,392.08 1625.09,389.65 1624.82,388.5 	"/>
	<polygon points="1585.49,417.27 1588.69,416.2 1585.25,414.53 1581.04,414.02 1580.02,412.2 1574.82,410.85 1574.2,412.01 
		1568.83,411.73 1568.43,410.71 1567.27,410.5 1565.01,409.41 1561.61,409.24 1559.69,411.92 1562.26,412.13 1562.75,413.34 
		1567.86,414.5 1569.03,414.15 1571.09,414.43 1574.34,415.5 1576.96,416.01 1579.87,416.22 1582.41,416.14 	"/>
	<polygon points="1617.51,401.66 1618.06,402.86 1620,403.37 1621.05,402.44 1620.35,401.53 	"/>
	<polygon points="1614.65,417.68 1611.88,418.8 1610.67,420.52 1610.42,421.48 1610.76,421.82 1613.16,421.2 1614.98,419.1 
		1614.93,418.24 	"/>
	<polygon points="1657.66,258.48 1656.27,261.42 1656.66,265.16 1659.78,265.1 1661.31,260.98 1665.72,263.56 1668.18,259.8 
		1672.34,258.75 1671.72,254.4 1669.74,256.05 1667.77,255.22 1665.6,253.92 1662.31,249.8 1661.48,252.89 1660.66,258.27 	"/>
	<polygon points="1653.6,278.74 1649.49,282.25 1647.62,280.58 1644.69,286.75 1641.69,286.05 1636.11,287.07 1634.05,289.4 
		1631.23,291.15 1629.76,293.26 1627.11,294.29 1628.25,296.57 1630.02,297.53 1629.33,300.49 1630.69,301.76 1632.5,300.39 
		1634.37,294.78 1631.53,292.32 1634.81,292.26 1638.13,290.67 1643.01,289.92 1643.12,292.44 1645,293.73 1649,289.89 
		1653.93,289.68 1657.51,288.08 1658.97,285.66 1658.48,283.93 1659.54,281.15 1659.49,277.52 1662.08,273.92 1662.16,270.98 
		1660.63,265.87 1657.65,266.55 1656.47,268.88 1656.95,272.98 1655.19,277.36 	"/>
	<polygon points="1637.96,294.32 1639.4,293.54 1640.55,294.61 1642.13,292.58 1641.77,291.43 1639.7,290.71 1638.55,292.13 
		1636.96,291.74 1635.41,293.74 1635.39,295.32 1637.22,296.27 	"/>
	<polygon points="1732.84,456.14 1731.39,454.76 1729.09,452.9 1728.19,452.07 1726.96,451.06 1725.38,450.05 1724.18,450 
		1724.57,451.01 1726.42,453.11 1728.23,454.7 1730.23,456.05 1731.78,456.87 	"/>
	<polygon points="1750.03,519.58 1749.39,518.05 1748.78,516.49 1746.81,518.19 1746.39,520.26 1745.33,521.21 1744.08,524.02 
		1742.4,526 1740,528.01 1737.99,529.48 1736.18,530.21 1732.65,534.08 1731.14,537.04 1731.61,538.52 1734.66,538.8 
		1736.48,540.14 1739.06,540.23 1740.46,539.07 1742.66,537.27 1744.25,533.24 1745,530.67 1747.4,529.21 1749.56,529.16 
		1748.53,527.3 1749.96,525.76 1751.79,522.96 1752.83,521.22 1752.83,519.65 1752.02,518.08 	"/>
	<polygon points="1761.78,507.35 1759.89,507.07 1757.63,505.92 1757.21,503.27 1755.94,502.32 1755.88,504.7 1753.85,501.03 
		1753.06,497.99 1750.88,497.1 1749.35,495.21 1748.31,495.48 1749.48,497.89 1751.69,500.93 1753.03,502.36 1752.95,502.97 
		1754.09,505.31 1754.22,507.59 1753.75,510.33 1751.72,511.58 1751.64,512.89 1754.66,514.34 1755.58,516.35 1753.96,519.39 
		1755.13,519.93 1755.61,520.91 1757.78,519.42 1759.17,516.89 1760.23,514.92 1760.64,514.24 1760.38,512.68 1761.13,511.58 
		1763.27,511.65 1764.12,509.56 1764.8,506.41 1763.38,506 	"/>
	<polygon points="1690.31,402.45 1691.58,403.36 1692.23,404.44 1692.76,406.09 1693.64,405.35 1693.3,403.89 1692.23,403 
		1691.11,401.83 1689.93,401.16 1688.98,400.55 1687.47,399.77 1686.69,400.44 1688.71,401.26 	"/>
	<polygon points="1699.04,408.32 1698.19,407.69 1697.89,406.86 1697.5,407.13 1698.1,409.26 1699.33,411.04 1700.54,412.12 
		1701.33,411.84 1701.72,411.04 1700.4,410.09 	"/>
	<polygon points="1685.22,406.77 1684.82,406.84 1684.4,408.18 1682.87,408.4 1680.36,407.99 1680.13,408.86 1681.73,409.64 
		1684.03,410.45 1685.52,410.45 1686.96,409.79 1688.49,409.11 1688.93,408.32 1690.4,408.09 1691.33,406.4 1691.39,404.85 
		1690.82,404.39 1689.14,404.44 1689.45,406.09 1687.88,407.09 1687.09,408.05 1685.49,408.26 	"/>
	<polygon points="1684.12,420.44 1684.96,419.91 1682.79,419.43 1682.9,418.18 1681.29,418.27 1679.47,415.28 1676.97,413.44 
		1676.35,411.59 1678.93,411.29 1678.25,409.8 1673.58,408.07 1673.15,406.42 1671.59,405.01 1669.66,403.58 1664.48,401.98 
		1659.61,400.06 1659.6,400.082 1659.6,400.05 1656.59,399.52 1654.51,398.52 1652.11,397.55 1649.62,397.55 1646.4,399.23 
		1644.06,402.19 1641.16,400.52 1640.38,396.01 1639.93,394.99 1635.43,393.85 1633.99,394.76 1630.21,395.43 1631.4,396.81 
		1633.9,397.32 1635.01,398.98 1639.11,398.99 1639.35,399.73 1637.35,399.68 1634.33,400.68 1636.47,402.05 1636.48,403.26 
		1637.12,404.28 1638.2,404.03 1639.03,402.67 1643.24,405.25 1645.55,405.48 1650.99,407.85 1652.34,410.2 1653.07,413.25 
		1651.3,414.03 1650.11,416.32 1653.66,416.23 1654.35,415.43 1657.2,416 1659.7,418.31 1659.7,418.298 1659.71,418.32 
		1662.61,418.44 1664.18,418.91 1666.38,417.94 1666.02,415.86 1667.73,414.93 1670.11,414.13 1673.77,415.36 1675.23,417.82 
		1676.82,419.37 1679,421.17 1681.83,421.6 1684.24,421.92 1684.93,422.65 1686.79,422.45 1687.1,421.63 	"/>
	<polygon points="1603.07,357.13 1604.27,358.55 1605.01,356.08 1604.04,355.05 1601.64,354.95 	"/>
	<polygon points="1606.01,359.44 1606.44,360.79 1606.24,362.24 1606.34,363.56 1608.12,362.71 1609.42,361.51 1609.47,360.32 
		1607.69,360.32 	"/>
	<polygon points="1597.89,363.74 1596.21,365.7 1594.18,367.44 1592.8,369.41 1596.53,366.74 1598.01,364.79 1599.86,363.23 
		1599.36,360.92 	"/>
	<polygon points="1608.98,362.32 1608.67,364.08 1607.97,364.87 1607.39,365.63 1609.12,367.58 1610,366.74 1610.88,364.95 
		1611.89,364.02 1612.16,361.32 1610.08,364.06 1610.53,362.15 	"/>
	<polygon points="1616.15,358.67 1615.39,357.6 1612.7,357.54 1614.41,359.72 1614.45,360.8 1612.8,360.57 1613.24,362.29 
		1614.08,362.44 1614.2,364.43 1615.53,363.8 1614.84,362.05 1614.78,361.1 1616.94,361.85 	"/>
	<polygon points="1610.52,368.5 1608.99,369.56 1607.22,370.35 1606.12,372.72 1606.58,373.54 1608.66,371.97 1609.98,372.08 
		1610.86,370.91 1612.64,372.24 1611.78,373.57 1612.57,375.6 1615.87,377.23 1616.67,375.92 1615.77,373.86 1617.08,372.44 
		1618.1,375.3 1619.06,372.73 1618.89,371.15 1618.6,369.28 1618.42,368.24 1618.18,366.82 1615.91,365.48 1616.08,367.66 
		1614.1,367.74 1613.64,369 1611.51,369.77 	"/>
	<polygon points="1600.5,349.38 1600.92,350.64 1602.3,352.29 1602.66,351.25 1603.5,351.92 1602.62,352.65 1602.48,353.84 
		1603.88,354.47 1606.43,354.05 1608.22,355.77 1608.94,354.72 1609.98,356.22 1612.16,357.62 1612.45,356.3 1611.53,355.61 
		1611.8,354.05 1608.3,352.46 1607.06,352.8 1605.57,352.48 1604.94,350.19 1605.38,347.86 1607.03,346.9 1607.77,344.48 
		1606.81,342.39 1607.27,341.17 1607.02,340.42 1606.16,341.18 1604.43,340.34 1602.73,340.36 1601.82,343.02 1601.53,347.57 
		1600.4,346.61 	"/>
	<polygon points="1768.96,108.07 1772.62,107.55 1775.51,105.49 1775.75,104.3 1771.69,101.79 1769.31,101.77 1768.95,102.14 
		1765.38,105.78 1765.88,108.51 	"/>
	<path d="M1784.12,137.57l0.65,5.15l-1.89-1.74l0.24-4.44l-7.35-7.34l-6.87-5.86l-3.92-3.44l-8.06-3.84l-5.83,0.49l-8.95-2.29
		l-1.25,3.62l2.27,5.07l-3.47,2.48l-4.88-6.99l-5.31,0.89l-5.29-1.57l-4.97,0.21l-3.75,1.64l-3.45-2.29l0.34-6.02l-2.33-3.5
		l-5.58-1.41l-11.32,1.62l-7.34-6.65l-2.39-5.35l-25.32-6.06l-3.7,4.07l2.02,8.4l-4.59-1.24l-2.07,2.47l-5.43-2.72l-4.78,2.38
		l-4.5-4l-2.71,9.18l-4.41-3.49l-3.52-6.98l1.66-3.84l-1.29-6.04l-4.53-5.14l-4.48,0.05l-5.95-1.74l-0.16,7.47l-11.72-1.43
		l-0.68-4.58l-9-1.65l-4.48,1.57l-1.23,2.56l-1.43-6.39l-2.52,1.91l-4.15-2.55l-3.48-1.43l2.11-3.08l7.37-5.92l3.1-3.24l0.7-5.85
		l-2.25-4.35l-6.32-5.84l-8.2-0.16l-2.56,2.94l-0.76-6.03l-6.35-1.92l3.82-3.13l-4.81-4.21l-6.62,5.31l-2.68,5.33l-0.77,5.24
		l-5.15-0.2l-6.29,6.24l-2.29-2.61l-7.36,1.08l-0.94,3.15l-7.4,1.51l-5.45,5.51l-3.22,0.3l-3.25,7.02l2.28,5.38l-6.08,1.32
		l-6.74-0.44l-4.88,2.02l0.28,10.28l2.49,7.62l-5.18-5.18l-5.82,0.49l-4.69,3.58l1.28,6.37l-3-1.59l1.11-8.67l-1.47-5.19l-1.4,0.22
		l0.65,6.62l-5.02,6.04l3.64,7.03l-2.24,8.28l0.67,4.42l3.07,0.64l-1.31,5.08l1.63,4.26l-2.43,3.49l-0.74,3.55l-3.08,1.82
		l-1.12,2.51l-3.21-1.02l5.49-10.2l1.2-5.01l-3.09-4.73l0.64-11.07l-0.9-5.94l-1.74-2.78l2.66-7.28l-0.58-5.18l-7.42-2.51
		l-2.08,1.88l-1.84,8.42l-5.17,7.99l0.08,2.74l1.5,6.49l-0.92,3.83l3.38,0.78l0.08,1.68l2.85,4.11l-1.88,3.97l-10.16-8.8l-3.88-2.49
		l-8.28-2.44l-1.46,2.66l2.94,4.58l-3.19,5.09l-3.2-4.62l-4.16,3.19l-5.25,0.21l-2.01,2.58l-3.48-0.78l2.76-4.64l-2.11-0.38
		l-9.79,6.54l-5.86,3.52l-0.69,4.61l-4.33,1.54l-2.21-2.44l-0.02-4.04l3.55-0.91l-1.6-4.18l-7.84-2.44l2.06,4.69l-1.37,4.41
		l2.34,4.28l-1.63,4.81l-2.62-2.43l-2.59-0.4l-6.53,6.74l1.89,4.88l-2.36,1.59l-6.78-4.1l-1.78,2.51l1.69,2.8l-0.36,3.11l-2.19-1.66
		l-3.61-1.97l-0.18-6.75l-0.18-3.15l-4.57-5.1l2.06-0.9l12.52,5.31l4.58-1.85l3.11-3.69l-0.19-4.8l-2.15-3.51l-10.59-8.65
		l-7.68-1.88l-4.61-4.86l-2.89,2.81l-4.77,3.19l-2.26,0.72l-0.41,5.4l4.29,4.99l-2.59,5.48l3.26,7.96l-1.89,5.76l2.52,4.85
		l-1.15,4.15l4.15,4.26l-1.05,3.1l-2.6,3.45l-6,7.41l2.94,2.68l-3.19,3.07l0.42,0.96l-2,3.13l0.83,4.96l-1.2,1.66l1.35,1.19
		l0.24,2.49l0.9,2.99l2.95,1.26l0.4,1.24l1.47-0.59l2.74,1.18l0.27,2.31l-0.6,1.31l1.76,3.15l1.14,0.87l-0.17,0.86l1.89,0.83
		l0.81,1.25l-1.09,1.02l-2.26-0.16l-0.54,0.44l0.66,1.54l0.69,2.94l1.05,0.18l0.71-1.04l0.85,0.23l2.91-0.44l1.79,2.58l-0.7,0.91
		l0.23,1.39l2.24,0.22l1,1.93l-0.06,0.87l3.56,1.54l2.15-0.69l1.73,2.04l1.64-0.05l4.13,1.41l0.03,1.26l-1.14,2.23l0.62,2.33
		l-0.44,1.4l-2.71,0.31l-1.45,1.16l-0.09,1.83l2.52-0.66l0.07,0.9l-4.13,1.67l1.57,1.6l-2.33,3.35l-2.04,0.64l2.42,2.32l3.2,1.48
		l3.57,3.27l0.34-0.45l2.37,0.66l4.13,0.62l3.82,1.83l0.49,0.71l1.7-0.6l2.62,0.79l0.86,1.55l1.76,0.87l0.79,0.13l1.93,2.27
		l1.24,0.25l0.48-0.95l1.67-1.51l-3.06-4.46l0.28-2.59l-2.55-3.7l2.79-4.09l2.72-0.66l1.28-2.39l-1.42-0.66l0.28-2.1l-1.79-2.76
		l-2.08,0.12l-2.38-2.84l1.62-3.21l-0.82-0.87l2.24-4.77l2.88,2.53l0.35-3.19l5.79-4.85l4.38-0.12l6.18,3.1l3.32,1.79l2.98-1.87
		l4.45-0.09l3.59,2.29l0.81-1.31l3.94,0.19l0.7-2.11l-4.54-3.1l2.69-2.22l-0.53-1.25l2.69-1.2l-2.02-3.21l1.29-1.62l10.49-1.66
		l1.37-1.19l7.02-1.79l2.52-2.03l5.04,1.06l0.88,5.01l2.93-1.17l3.6,1.63l-0.23,2.58l2.69-0.27l7.03-4.49l-1.03,1.5l3.58,3.66
		l6.27,11.58l1.49-2.33l3.86,2.57l4.03-1.14l1.55,0.8l1.35,2.55l1.96,0.85l1.19,1.84l3.61-0.58l1.49,2.63l1.1-0.35l2.96-0.74
		l5.35-3.74l4.26-2.07l2.44,1.35l2.92,0.06l1.87,2.04l2.8,0.16l4.05,1.09l2.73-3.03l-1.14-2.6l2.9-4.66l3.14,1.87l2.54,0.53
		l3.3,1.15l0.53,3.32l3.98,1.84l2.65-0.81l3.55-0.57l2.81,0.58l2.75,2.09l1.7,2.2l2.6-0.04l3.53,0.7l2.58-1.06l3.69-0.71l4.11-3.06
		l1.68,0.47l1.47,1.46l3.329-0.358l-1.369,3.248l-1.98,4.23l0.72,1.71l1.59-0.53l2.77,0.65l2.16-1.54l2.25,1.33l2.54,2.89
		l-0.31,1.45l-2.21-0.46l-4.07,0.54l-1.97,1.16l-2.05,2.66l-4.28,1.55l-2.79,2.1l-2.88-0.8l-1.58-0.36l-1.47,2.54l0.9,1.5l0.45,1.28
		l-1.96,1.3l-2.01,2.05l-3.28,1.34l-4.2,0.14l-4.53,1.31l-3.26,2.01l-1.24-1.16h-3.39l-4.15-2.29l-2.77-0.57l-3.73,0.53l-5.79-0.85
		l-3.09,0.09l-1.65-2.27l-1.28-3.57l-1.73-0.43l-3.39-2.45l-3.78-0.55l-3.33-0.68l-1.01-1.73l1.08-4.73l-1.93-3.32l-4-1.57
		l-2.36-2.23l-0.74-2.97l-1.1,0.35l-2.13,2.83l-2.33,0.39l-0.13,4.19l-1.56,1.86l-5.56-1.35l-2.02,7.26l-1.44,0.89l-5.55,1.58
		l2.52,6.75l-1.92,1l0.22,2.17l-0.39,0.85l-4.42,2.03l-1,1.48l-3.6,0.44l-1.06,2.35l-2.97-0.49l-1.94,0.72l-2.68,1.73l0.39,0.85
		l-0.8,0.83l0.71,3.32l0.92-0.36l1.7,0.81l-0.1,1.38l0.42,2.01l0.5,1.01l2.07,1.63l0.83,2.66l4.61,1.39l3.01,3.99l-0.28,2.74
		l1.12,1.71l-0.09,1.69l-2.01-0.44l0.79,3.63l2.75,2.07l3.9,2.26l1.16-0.77l2.25,0.99l2.83,2.09l1.58,0.46l0.94,1.53l2.18,0.63
		l2.28,1.39l3.17,0.73l3.27,0.31l1.71-0.66l0.24,2.48l1.85-2.34l1.51-0.8l2,0.73l1.48,0.08l1.23,0.85l2.26-0.39l2.55-2.36l3.23-2.03
		l2.36,0.78l2-1.35l1.31,1.99l-0.95,1.33l3.02,0.47l1.64-0.24l0.94,1.86l1.22,0.75l0.08,2.4l-0.11,2.57l-2.66,2.58l-0.34,3.63
		l2.96-0.51l0.67,2.8l1.78,0.59l-0.82,2.51l2.08,1.13l1.21,0.55l2.06-0.87l0.08,1.24l0.25,0.7l1.5,0.08l-0.42-3.43l1.45-0.44
		l0.01,0.01l1.64,2.37l1.26,2.72l3.45,0.03l1.09,2.59l-1.79,0.77l-0.81,1.07l3.36,1.76l2.33,3.46l1.77,2.57l2.12,2.02l0.71,2.04
		l-0.51,2.88l-2.49-1.06l-1.27,1.99l-2.31-1.13l0.91-1.3l0.13-2.44l-2.27-2.53l-0.18-2.87l-2.13-2.38l-2.12-0.2l-0.56,1.02
		l-1.65,0.08l-0.84-0.51l-2.95,1.74l-0.07-2.62l0.69-3.11l-1.89-0.13l-0.16-1.78l-1.22-0.92l-1.6,0.69l-1.64,1.28l-1.98,0.14
		l-1.28,3.19l-1.18,0.53l1.36,2.57l1.78,2.13l1.14,1.92l-1.02,2.52l-0.97,0.53l0.67,1.45l1.87,2.28l0.32,1.6l-0.05,1.33l1.1,2.6
		l-1.54,2.65l-1.36,2.91l-0.82,2.71l-0.31,1.76l0.53,1.56l0.46-1.65l1.36,1.33l1.49,1.59l0.48,1.39l1.11,1.07l0.49-0.5l2.28,1.23
		l-2.28-1.22l-0.49,0.5l0.62,1.19l-0.31,2.04l1.01,1.52l0.39,2.31l1.62,1.87l0.33,1.42l3.32,2.21l2.65,2.06l1.99-0.19l0.05-0.94
		l-1.1-2.46l-0.99-0.77l-0.21-1.65l-0.27-0.96l0.3-1.27l-0.16-1.88l-1.18-1.87l-1.66-1.69l-0.64-0.26l-0.727,0.909l0.727-0.919
		l-1.45-1.45l-1.7-0.33l-1.56-1.61l-0.51-2.43l-1.14-2.57l-1.82-0.09l-0.19-2.05l0.91-2.5l1.51-4.15l0.22-3.14l2.47-0.02l-0.41,2.25
		l2.4-0.06l2.52,1.31l1.41,2.94l1.14,1.48l2.35,0.41l2.08,1.61l-0.79,1.91l1.02,1.81l3.5-2.62l2.28-2.36l3.22-1.83l2.33-1.87
		l0.38-5.02l-1.28-5.32l-1.71-2.33l-2.54-1.79l-2.62-3.82l-2.15-3.09l0.62-2.05l2.34-2.81l3.74-2.56l-0.02-0.01l1.33-0.49l3.76,0.96
		l-0.66,1.16l0.74,2.16l1.55-0.17l0.96-3.15l2.97-0.46l3.92-1.5l1.59-1.5l0.97,0.98l1.71-1.34l3.16-0.35l3.9-2.55l3.86-2.82
		l2.6-3.68l2.27-4.09l2.05-3.41l1.57-0.28l0.71-2.52l0.43-2.61l-1.65-1l-0.67-1.73l1.76-0.89l0.05-2.43l-1.9-2.53l-1.71-3.05
		l-1.1-3.31l-3.02-1.86l1.44-2.39l2.73-1.73l1.31-1.87l3.97-0.97l-0.46-1.84l-1.81-0.09l-2.49-1.37l-3.14,2.51l-2.22-1.02
		l-0.09-1.58l-2.29-0.58l-1.48-2.41l1.43-1.68l2.75-0.17l1.73-2.34l3.17-2.54l2.44-1.3l1.48,1.93l-2.22,2.45l0.59,1.41l-1.49,1.67
		l3.02-0.98l2.06-1.69l3.92-1.06l-0.01,0.02l1.32,0.97l1.63,0.4l0.19,0.59l-0.71,1.94l0.25,0.65l-0.66,0.42l-0.77,1.57l0.75,0.57
		l0.73,0.32l0.1,0.66l0.82-0.29l0.34-0.66l1.36,0.67l1.92,3l-2.08,0.59l1.24,3.6l-0.52,2.57l0.31,1.85l2.53-0.29l2.24-1.41
		l2.54-0.66l1.05-1.88l-0.02-3.98l-0.69-2.27l-2.42-4.18l-1.59-1.58l-1.12-0.58l0.33-0.4l0.09-1.57l1.21-0.98l1.87-0.6l1.06-1.08
		l0.5-0.65l1.45-0.81l-0.11-2.67l0.84-1.28l1.22-1.27l1.06,0.23l-0.39-0.67l0,0l0.01-0.02l0.39,0.66l0.44-1.26l3.76-2.79l1.76,1.86
		l1.77-0.05l3.74-2.25l1.81-2.28l3.78-4.53l3.81-4.66l0.94-2.82l4.23-6.01l1.26-6.85l0.24-5.27l2.19-4.51l-0.09-3.92l-4.05-5.19
		l-3.08-0.31l-1.79,2.38l-2.72-1.05l-1.38-3l-4.42-0.61l10.75-11.78l9.08-10.33l9.22-1.62l8.57,0.94l3.47-2.7l4.36,0.84l-0.2,3.95
		l4.33-0.56l6.26-1.42l-2.32-3.38l7.02-9.56l7.24-2l2.3,7.14l7.11-6.36l1.68-4.92l3.41-0.51l-2.25,8.37l-5.04,4.57l-4.83,5.73
		l-5.01,6.78l-4.36,1.18l-0.15,2.44l-2.37,3.07l-1.35,6.95l1.56,10.65l1.2,6.69l1.04,3.08l4.04-4.18l0.84-4.66l4.18-1.14l0.97-5.4
		l4.9-2.47l-1.17-2.1l1.2-4.15l2.6-0.19l0.38-7.46l-3.19-1.17l-0.1-2.14l3.36-5.22l0.9-3.63l3.75,0.76l2.7-2.39l1.28,2.08l7.31-4.42
		l4.01,3.9l1.03-2.55l4.07-3.5l4.29-4.1l2.49-0.69l7.84-4.51l5.23,1.32l0.72-1.6l-0.33-2.53l-1.29-1.67l-1.67-5.2l-2.53-3.44
		l3.63,0.48l3.6-2.89l0.02-0.04l1.59-2.83l-1.26-3.19l3.36-1.64l-0.61,2.55l1.52,2.37l3.19-0.87l2.85,1.1l0.63,2.89l3.73,1.92
		l2.14,2.26l2.63,0.19l1.12-1.35l0.07-6.46l4.6-0.7l2.78-2.97l-5.55-6.53L1784.12,137.57z M1549.738,376.59l-0.008,0.01l-1.85,0.33
		L1549.738,376.59z M1563.06,329.29L1563.06,329.29l0.13,0.118L1563.06,329.29z M1591.414,231.742l0.016-0.002l3.358,1.624
		l-0.008,0.006L1591.414,231.742z"/>
	<polygon points="1661.26,222.68 1662.9,227.09 1662.78,232.94 1662.13,236.18 1662.45,240.72 1662.14,244.73 1662.66,248.13 
		1664.5,245 1666.63,247.44 1666.71,244.6 1663.98,240.37 1665.7,234.26 1669.85,235.67 1667.03,227.99 1665.87,223.48 
		1665.94,218.98 1664.97,214.48 1664.24,211.33 1662.99,212 1664.1,214.21 1661.51,216.38 	"/>
	<polygon points="1558.88,27.76 1559.71,22.04 1552.6,13.7 1550.49,12.72 1548.19,14.42 1543.07,33.02 	"/>
	<polygon points="1411.4,95.7 1408.53,97.66 1408.94,102.49 1414.02,104.84 1414.76,108.66 1423.92,109.76 1425.58,109.02 
		1420.22,101.91 1419.65,94.39 1424.04,85.25 1428.22,75.43 1436.93,65.26 1445.49,59.92 1455.42,54.18 1457.3,50.47 1455.35,45.64 
		1449.89,47.24 1445.09,51.73 1435.76,53.95 1426.5,61.36 1420.23,67.21 1420.99,72.08 1414.28,81.11 1416.86,82.33 1411.3,90.6 	
		"/>
	<polygon points="1525.9,11.49 1530.55,17.22 1538.36,21.42 1544.48,19.62 1545.17,6 1538.71,-10.04 1533.26,-19.06 1527.19,-14.95 
		1519.91,-3.12 1523.74,0.15 	"/>
	<polygon points="1394.65,-1.55 1397.69,2.33 1400.97,-0.36 1401.36,-3.08 1403.88,-4.35 1407.64,-6.58 1408.72,-9.2 
		1404.56,-13.05 1401.92,-10.15 1400.31,-6.03 1399.74,-10.68 1395.48,-10.47 1390.01,-7.33 1396.25,-6.81 	"/>
	<polygon points="1658.52,69.76 1668.85,70.06 1671.06,61.92 1660.93,55.85 1653.53,55.34 1649.83,57.52 1648.32,65.27 
		1653.87,72.28 	"/>
	<polygon points="1683.65,71.45 1686.89,67.2 1679.85,64.32 1674.62,62.64 1673.95,66.23 1679.16,70.5 	"/>
	<polygon points="1659.08,80.98 1656.42,84.9 1656.91,85.42 1662.66,86.5 1666.91,86.43 1666.57,83.86 1662.59,80.05 	"/>
	<polygon points="1712.53,416.11 1711.87,415.21 1709.57,413.92 1708.28,413.25 1707.86,413.54 1708.91,414.48 1710.45,415.49 
		1712.65,416.68 	"/>
	<polygon points="1713.9,419.09 1712.05,418.65 1711.87,419.77 1712.46,420.21 1714.18,420.5 1715.27,420.44 1714.81,419.68 	"/>
	<polygon points="1717.17,420.19 1717.59,419.67 1716.47,418.31 1715.46,416.06 1714.51,416.06 1715.09,417.74 	"/>
	<polygon points="1703.18,411.23 1703.04,411.7 1704.19,412.85 1705.42,413.49 1705.98,413.33 1704.85,412.41 	"/>
	<polygon points="1718.24,422.07 1716.57,421.38 1717.64,423.12 1719.6,423.14 1718.82,422.17 	"/>
	<polygon points="1617.34,418.27 1620.26,417.04 1621.29,416.28 1620.23,415.93 1619.36,416.28 1617.4,416.38 1614.99,417.01 
		1614.66,417.67 1614.94,418.23 1614.99,419.09 	"/>
	<polygon points="1604.02,327.56 1605.71,322.69 1606.2,320.83 1604.92,319.92 1602.67,322.24 1601.02,325.24 1601.34,327.49 
		1602.82,330.04 	"/>
	<polygon points="1905.01,164.64 1907.05,163.38 1907.28,162.7 1905.01,162.03 	"/>
	<polygon points="1932.78,329.24 1932.35,329.54 1932.2,329.76 1933.14,330.31 1933.47,330.01 1933.41,329.31 	"/>
	<polygon points="1913.51,180.01 1910.74,180.98 1912.44,182.5 1914.28,183.54 1916,182.67 1915.73,180.52 	"/>
	<polygon points="1942.14,333.19 1941.14,332.91 1940.87,333.17 1940.89,333.36 1941.21,333.6 1941.69,334.23 1942.63,334.02 
		1942.86,333.66 	"/>
	<polygon points="1939.15,332.65 1940.65,332.74 1940.74,332.42 1939.36,332.29 	"/>
	<polygon points="1937.18,330.8 1936.43,331.21 1936.54,331.33 1936.9,332.01 1937.88,332.12 1938.08,332.16 1938.23,331.99 
		1937.42,331 	"/>
	<polygon points="1945.04,335.94 1944.54,335.68 1943.47,335.18 1943.26,335.12 1943.1,335.4 1943.29,335.98 1942.8,336.46 
		1942.66,336.79 1943.12,337.87 1943.04,338.7 1943.74,339.12 1944.15,338.63 1945.05,338.17 1946.15,337.54 1946.22,337.38 
		1945.51,336.34 	"/>
	<polygon points="1950.63,193.21 1949.13,194.01 1946.58,195.87 1947.01,198.29 1948.44,199.61 1951.24,197.66 1953.67,195.19 
		1952.48,193.56 	"/>
	<polygon points="2010.86,212.51 2008.17,212.89 2006.85,212.27 2006.68,213.79 2007.2,215.86 2008.62,217.32 2009.66,219.45 
		2011.35,221.55 2012.47,221.56 2010.03,217.86 	"/>
	<polygon points="1733.96,439.7 1734.88,439.32 1733.12,437.65 1733.02,438.43 	"/>
	<polygon points="1731.48,434 1731.54,436.21 1731.94,437.01 1732.52,436.85 1733.27,437.21 1732.81,434.88 	"/>
</g>
</svg>
