<?xml version="1.0" encoding="iso-8859-1"?>
<!-- Generator: Adobe Illustrator 18.0.0, SVG Export Plug-In . SVG Version: 6.00 Build 0)  -->
<!DOCTYPE svg PUBLIC "-//W3C//DTD SVG 1.1//EN" "http://www.w3.org/Graphics/SVG/1.1/DTD/svg11.dtd">
<svg version="1.1" id="Layer_1" xmlns:amcharts="http://amcharts.com/ammap"
	 xmlns="http://www.w3.org/2000/svg" xmlns:xlink="http://www.w3.org/1999/xlink" x="0px" y="0px" width="974.143px"
	 height="699.92px" viewBox="0 0 974.143 699.92" style="enable-background:new 0 0 974.143 699.92;" xml:space="preserve">
<defs>
	
	
		<amcharts:ammap  rightLongitude="190.122401" topLatitude="83.646363" projection="mercator" leftLongitude="-169.522279" bottomLatitude="-55.621433">
		</amcharts:ammap>
</defs>
<g>
	<polygon points="408.916,645.792 404.884,635.624 401.773,629.432 401.744,629.432 395.984,627.847 388.552,633.349 
		385.931,642.566 381.754,648.817 371.039,643.92 359.691,634.904 353.037,632.11 364.155,647.232 372.393,654.635 382.561,662.441 
		391.029,664.486 396.905,668.749 401.687,669.901 405.662,670.362 412.575,665.955 415.253,660.252 415.282,660.252 
		419.401,665.235 427.063,664.515 430.75,657.544 419.43,654.059 	"/>
	<path d="M674.229,184.325l-2.736-10.283l-2.938-2.535l-6.913-0.346l-6.222-2.304l-10.312-9.016l-11.925-6.654l-12.069,0.317
		l-15.727-4.263l-9.39,2.477l1.325-4.436l-3.946-4.695l-13.394-4.896l-10.168-2.909l-6.135,5.271l-0.288-8.036l-14.287-1.267
		l-2.506-2.419l6.078-6.596l-0.23-5.53l-4.321-1.325l-4.522-14.056l-1.988-4.436l-2.765,0.374h-0.029l-1.325-3.284l-8.555-6.798
		l-5.934-1.901l-2.736-0.893l0,0l-8.67-2.189l-6.539,0.576l-0.864,1.469l-9.678-1.613l-3.197-2.823l-4.321-3.917l-3.053-0.202
		l-0.202-4.177l-5.012-5.271l-5.3-2.967l-3.168-1.93l-4.206,0.202l-1.296-6.51l-6.106-4.004l-6.481-0.605l-2.736-3.86l6.855-2.42
		l-9.678,0.115l-10.024,0.49l-0.086,2.074l-4.522,2.535l-6.164-1.008l-4.637-3.658l-8.641,0.835l-7.23-0.057l-0.317-2.708
		l-5.242-4.551l-5.674-0.144l-2.909-5.761l-2.823,2.592l1.123,3.86L379.421,41.6l0.403,6.164l2.506,2.88l-1.815,5.876l-3.485,0.519
		l-3.053-6.452l3.543-4.724l0.115-4.292l-2.65-3.716l4.753-0.951l0.23-1.93l1.555-2.765l-2.103-2.16l-2.88-0.49l-3.888,3.946
		l-3.14,1.843l-6.366,4.119l-6.337-0.662l-0.634,1.699l-5.069,0.144l-4.638,3.802l-1.498,6.884l-0.087,2.679l-3.312,0.864
		l-6.078,5.674l-4.148-0.259l-0.979,1.21l1.872,4.753l-1.527,2.42l-2.621-0.576l-1.037,3.917l3.284,4.321l1.267,6.827l-1.728,2.103
		l1.815,7.374l-1.527,4.666l2.996,1.93l-3.082,4.205l-3.428,5.041l-4.003,0.547l-1.872,2.909l0.345,4.004l-3.024,0.605l1.095,2.506
		l-5.531,3.197l-4.436,1.728l0.576,3.255l-3.053,5.185l-1.498,4.983l-2.823,1.21l1.354,7.287l-1.642,2.247l4.839,3.543l3.082-3.745
		l1.757,3.514l-4.292,5.991l-6.452,5.098l-2.506,5.617l3.917,7.691l-2.621,3.6l5.761,3.255l6.279,5.3l2.535,5.934l3.312,3.716
		l7.604,16.188l7.979,15.093l6.826,10.802l-1.325,2.391l3.341,6.827l6.25,5.127l14.488,9.131l15.986,8.411l0.72,3.457l8.094,4.839
		v0.029l1.671,11.954l0.605,14.027l-2.535,19.443l-2.592,18.348l-1.469,17.397l-4.724,11.147l0.979,11.406l-2.419,7.691
		l1.872,14.143l-3.428,14.315l-5.588,15.641l-4.954,16.13l-3.399,0.317l0.662,11.464l2.333,10.081l-3.716,7.143l-2.765,19.702
		l-2.535,15.612l5.098,1.555l2.535-13.682l5.415,2.88l-4.205,22.957l-8.987-3.946l-2.737,18.895l-7.69,10.283l12.271,3.428
		l-8.526,9.188l-3.428,11.608l1.037,21.142l4.062,8.468l-2.276,7.547l2.535,8.267l10.052,7.575l9.246,9.361l9.102,4.436l3.428-0.317
		l1.296-12.616l7.288-4.81l3.888-3.255l7.172,0.086l-7.405-2.022l0.061,0.005l7.489,2.045l3.399,0.662l-5.386-7.575l-2.621-13.365
		l3.312-5.934l7.374-4.954l5.242-14.489l9.534-6.855l2.765-10.744l-7.719-2.391l-7.95-8.583l2.304-8.67l6.337-5.876l7.633-0.029
		l1.901-6.078l1.181-11.262l6.481-6.855l7.431-3.399l-2.419-5.646l-4.436,3.428l-5.444-3.284l-1.124-10.686l3.111-2.794l7.777,3.888
		l8.267-1.469l4.839-3.745l-1.498-5.329l1.642-7.835l-1.699-6.193l8.871,1.037l16.188-2.16l11.983-5.501l7.748-13.019l0.403-4.897
		l-5.041-4.349l1.094-6.827l-10.254-8.382l0.542-5.015l4.902,5.361l5.473-0.317l7.46,4.205l4.378-1.066l5.962,1.959l9.131-5.415
		l3.485-6.106l5.357-5.501l3.658-9.102l5.501-4.436l7.115-7.46l8.958-16.361l5.646-5.041l1.815-4.465l1.527-9.16l-1.354-4.983
		l1.181-6.682l6.827-8.814l9.505-7.028l9.044-2.564l5.703-3.888l12.703-3.37l8.756,0.029l1.901-5.214l6.539-3.773l1.383-8.9
		l8.18-11.176l1.44-11.349l2.535-3.312l0.864-5.559l2.247-12.904l-0.576-15.554l2.275-6.049l2.016-0.173l5.962-7.143l5.156-9.246
		l11.378-11.349l4.119-5.3l3.226-13.422L674.229,184.325z M484.841,413.543l0.003-0.026l1.728-2.096v0.023L484.841,413.543z"/>
	<polygon points="478.363,614.54 471.479,611.314 461.8,619.062 465.833,624.967 472.688,619.062 476.317,623.642 487.234,619.725 
		489.654,615.174 483.202,609.384 	"/>
	<polygon points="455.723,48.774 457.192,49.494 463.932,48.601 464.249,42.524 462.549,42.236 457.912,43.301 458.085,46.527 	"/>
</g>
</svg>
